{
    "asset" : {
        "generator" : "Khronos glTF Blender I/O v1.5.17",
        "version" : "2.0"
    },
    "scene" : 0,
    "scenes" : [
        {
            "name" : "Scene",
            "nodes" : [
                0,
                1,
                2,
                3,
                4,
                5,
                6,
                7
            ]
        }
    ],
    "nodes" : [
        {
            "mesh" : 0,
            "name" : "Cube",
            "translation" : [
                -1.3907839059829712,
                1.4062740802764893,
                -2.9692249298095703
            ]
        },
        {
            "mesh" : 1,
            "name" : "Cube.001",
            "translation" : [
                7.948767185211182,
                1.339133858680725,
                -1.4481145143508911
            ]
        },
        {
            "mesh" : 2,
            "name" : "Cube.002",
            "translation" : [
                17.46830940246582,
                1.3077772855758667,
                -2.6506245136260986
            ]
        },
        {
            "mesh" : 3,
            "name" : "Cube.003",
            "translation" : [
                30.03472328186035,
                1.3719244003295898,
                -3.282259941101074
            ]
        },
        {
            "mesh" : 4,
            "name" : "Cube.004",
            "translation" : [
                36.33213424682617,
                1.246292233467102,
                -2.7781214714050293
            ]
        },
        {
            "mesh" : 5,
            "name" : "Cube.006",
            "translation" : [
                50.7755012512207,
                1.3641413450241089,
                -2.395672559738159
            ]
        },
        {
            "mesh" : 6,
            "name" : "Cube.009",
            "translation" : [
                57.84213638305664,
                1.391013741493225,
                -4.718518257141113
            ]
        },
        {
            "mesh" : 7,
            "name" : "Cube.010",
            "translation" : [
                71.34559631347656,
                5.124755859375,
                -6.640986442565918
            ]
        }
    ],
    "materials" : [
        {
            "doubleSided" : true,
            "name" : "Material",
            "normalTexture" : {
                "index" : 0
            },
            "pbrMetallicRoughness" : {
                "baseColorTexture" : {
                    "index" : 1
                },
                "metallicFactor" : 0,
                "metallicRoughnessTexture" : {
                    "index" : 2
                }
            }
        }
    ],
    "meshes" : [
        {
            "name" : "Cube",
            "primitives" : [
                {
                    "attributes" : {
                        "POSITION" : 0,
                        "NORMAL" : 1,
                        "TEXCOORD_0" : 2
                    },
                    "indices" : 3,
                    "material" : 0
                }
            ]
        },
        {
            "name" : "Cube.001",
            "primitives" : [
                {
                    "attributes" : {
                        "POSITION" : 4,
                        "NORMAL" : 5,
                        "TEXCOORD_0" : 6
                    },
                    "indices" : 3,
                    "material" : 0
                }
            ]
        },
        {
            "name" : "Cube.002",
            "primitives" : [
                {
                    "attributes" : {
                        "POSITION" : 7,
                        "NORMAL" : 8,
                        "TEXCOORD_0" : 9
                    },
                    "indices" : 3,
                    "material" : 0
                }
            ]
        },
        {
            "name" : "Cube.003",
            "primitives" : [
                {
                    "attributes" : {
                        "POSITION" : 10,
                        "NORMAL" : 11,
                        "TEXCOORD_0" : 12
                    },
                    "indices" : 3,
                    "material" : 0
                }
            ]
        },
        {
            "name" : "Cube.004",
            "primitives" : [
                {
                    "attributes" : {
                        "POSITION" : 13,
                        "NORMAL" : 14,
                        "TEXCOORD_0" : 15
                    },
                    "indices" : 16,
                    "material" : 0
                }
            ]
        },
        {
            "name" : "Cube.006",
            "primitives" : [
                {
                    "attributes" : {
                        "POSITION" : 17,
                        "NORMAL" : 18,
                        "TEXCOORD_0" : 19
                    },
                    "indices" : 20,
                    "material" : 0
                }
            ]
        },
        {
            "name" : "Cube.009",
            "primitives" : [
                {
                    "attributes" : {
                        "POSITION" : 21,
                        "NORMAL" : 22,
                        "TEXCOORD_0" : 23
                    },
                    "indices" : 3,
                    "material" : 0
                }
            ]
        },
        {
            "name" : "Cube.010",
            "primitives" : [
                {
                    "attributes" : {
                        "POSITION" : 24,
                        "NORMAL" : 25,
                        "TEXCOORD_0" : 26
                    },
                    "indices" : 27,
                    "material" : 0
                }
            ]
        }
    ],
    "textures" : [
        {
            "sampler" : 0,
            "source" : 0
        },
        {
            "sampler" : 0,
            "source" : 1
        },
        {
            "sampler" : 0,
            "source" : 2
        }
    ],
    "images" : [
        {
            "bufferView" : 4,
            "mimeType" : "image/jpeg",
            "name" : "mossy_rock_nor_1k"
        },
        {
            "bufferView" : 5,
            "mimeType" : "image/jpeg",
            "name" : "mossy_rock_diff_1k"
        },
        {
            "bufferView" : 6,
            "mimeType" : "image/png",
            "name" : "mossy_rock_rough_1k"
        }
    ],
    "accessors" : [
        {
            "bufferView" : 0,
            "componentType" : 5126,
            "count" : 1651,
            "max" : [
                3.439472198486328,
                2.3534624576568604,
                3.406487226486206
            ],
            "min" : [
                -3.8920974731445312,
                -2.507533550262451,
                -3.9105091094970703
            ],
            "type" : "VEC3"
        },
        {
            "bufferView" : 1,
            "componentType" : 5126,
            "count" : 1651,
            "type" : "VEC3"
        },
        {
            "bufferView" : 2,
            "componentType" : 5126,
            "count" : 1651,
            "type" : "VEC2"
        },
        {
            "bufferView" : 3,
            "componentType" : 5123,
            "count" : 9216,
            "type" : "SCALAR"
        },
        {
            "bufferView" : 7,
            "componentType" : 5126,
            "count" : 1651,
            "max" : [
                2.727712869644165,
                2.492180824279785,
                3.002188205718994
            ],
            "min" : [
                -2.8646976947784424,
                -2.5568466186523438,
                -3.174849033355713
            ],
            "type" : "VEC3"
        },
        {
            "bufferView" : 8,
            "componentType" : 5126,
            "count" : 1651,
            "type" : "VEC3"
        },
        {
            "bufferView" : 9,
            "componentType" : 5126,
            "count" : 1651,
            "type" : "VEC2"
        },
        {
            "bufferView" : 10,
            "componentType" : 5126,
            "count" : 1651,
            "max" : [
                2.7976369857788086,
                2.4426560401916504,
                2.3586504459381104
            ],
            "min" : [
                -2.8159191608428955,
                -2.5586516857147217,
                -2.4114208221435547
            ],
            "type" : "VEC3"
        },
        {
            "bufferView" : 11,
            "componentType" : 5126,
            "count" : 1651,
            "type" : "VEC3"
        },
        {
            "bufferView" : 12,
            "componentType" : 5126,
            "count" : 1651,
            "type" : "VEC2"
        },
        {
            "bufferView" : 13,
            "componentType" : 5126,
            "count" : 1651,
            "max" : [
                2.2448372840881348,
                2.3716518878936768,
                3.4695851802825928
            ],
            "min" : [
                -2.6783065795898438,
                -2.488419532775879,
                -3.3071272373199463
            ],
            "type" : "VEC3"
        },
        {
            "bufferView" : 14,
            "componentType" : 5126,
            "count" : 1651,
            "type" : "VEC3"
        },
        {
            "bufferView" : 15,
            "componentType" : 5126,
            "count" : 1651,
            "type" : "VEC2"
        },
        {
            "bufferView" : 16,
            "componentType" : 5126,
            "count" : 1651,
            "max" : [
                2.7822389602661133,
                2.4620447158813477,
                4.102458477020264
            ],
            "min" : [
                -2.7865662574768066,
                -2.3432884216308594,
                -4.060883522033691
            ],
            "type" : "VEC3"
        },
        {
            "bufferView" : 17,
            "componentType" : 5126,
            "count" : 1651,
            "type" : "VEC3"
        },
        {
            "bufferView" : 18,
            "componentType" : 5126,
            "count" : 1651,
            "type" : "VEC2"
        },
        {
            "bufferView" : 19,
            "componentType" : 5123,
            "count" : 9216,
            "type" : "SCALAR"
        },
        {
            "bufferView" : 20,
            "componentType" : 5126,
            "count" : 6374,
            "max" : [
                2.888906478881836,
                2.433161735534668,
                3.453385591506958
            ],
            "min" : [
                -3.346524953842163,
                -2.6240954399108887,
                -3.8326165676116943
            ],
            "type" : "VEC3"
        },
        {
            "bufferView" : 21,
            "componentType" : 5126,
            "count" : 6374,
            "type" : "VEC3"
        },
        {
            "bufferView" : 22,
            "componentType" : 5126,
            "count" : 6374,
            "type" : "VEC2"
        },
        {
            "bufferView" : 23,
            "componentType" : 5123,
            "count" : 36864,
            "type" : "SCALAR"
        },
        {
            "bufferView" : 24,
            "componentType" : 5126,
            "count" : 1651,
            "max" : [
                2.000387668609619,
                2.440706253051758,
                3.567009449005127
            ],
            "min" : [
                -2.2497506141662598,
                -2.5481691360473633,
                -3.637202739715576
            ],
            "type" : "VEC3"
        },
        {
            "bufferView" : 25,
            "componentType" : 5126,
            "count" : 1651,
            "type" : "VEC3"
        },
        {
            "bufferView" : 26,
            "componentType" : 5126,
            "count" : 1651,
            "type" : "VEC2"
        },
        {
            "bufferView" : 27,
            "componentType" : 5126,
            "count" : 14,
            "max" : [
                3.9639439582824707,
                3.9554903507232666,
                7.4526190757751465
            ],
            "min" : [
                -5.030591011047363,
                -4.367278099060059,
                -7.635073661804199
            ],
            "type" : "VEC3"
        },
        {
            "bufferView" : 28,
            "componentType" : 5126,
            "count" : 14,
            "type" : "VEC3"
        },
        {
            "bufferView" : 29,
            "componentType" : 5126,
            "count" : 14,
            "type" : "VEC2"
        },
        {
            "bufferView" : 30,
            "componentType" : 5123,
            "count" : 36,
            "type" : "SCALAR"
        }
    ],
    "bufferViews" : [
        {
            "buffer" : 0,
            "byteLength" : 19812,
            "byteOffset" : 0
        },
        {
            "buffer" : 0,
            "byteLength" : 19812,
            "byteOffset" : 19812
        },
        {
            "buffer" : 0,
            "byteLength" : 13208,
            "byteOffset" : 39624
        },
        {
            "buffer" : 0,
            "byteLength" : 18432,
            "byteOffset" : 52832
        },
        {
            "buffer" : 0,
            "byteLength" : 778863,
            "byteOffset" : 71264
        },
        {
            "buffer" : 0,
            "byteLength" : 817899,
            "byteOffset" : 850128
        },
        {
            "buffer" : 0,
            "byteLength" : 376411,
            "byteOffset" : 1668028
        },
        {
            "buffer" : 0,
            "byteLength" : 19812,
            "byteOffset" : 2044440
        },
        {
            "buffer" : 0,
            "byteLength" : 19812,
            "byteOffset" : 2064252
        },
        {
            "buffer" : 0,
            "byteLength" : 13208,
            "byteOffset" : 2084064
        },
        {
            "buffer" : 0,
            "byteLength" : 19812,
            "byteOffset" : 2097272
        },
        {
            "buffer" : 0,
            "byteLength" : 19812,
            "byteOffset" : 2117084
        },
        {
            "buffer" : 0,
            "byteLength" : 13208,
            "byteOffset" : 2136896
        },
        {
            "buffer" : 0,
            "byteLength" : 19812,
            "byteOffset" : 2150104
        },
        {
            "buffer" : 0,
            "byteLength" : 19812,
            "byteOffset" : 2169916
        },
        {
            "buffer" : 0,
            "byteLength" : 13208,
            "byteOffset" : 2189728
        },
        {
            "buffer" : 0,
            "byteLength" : 19812,
            "byteOffset" : 2202936
        },
        {
            "buffer" : 0,
            "byteLength" : 19812,
            "byteOffset" : 2222748
        },
        {
            "buffer" : 0,
            "byteLength" : 13208,
            "byteOffset" : 2242560
        },
        {
            "buffer" : 0,
            "byteLength" : 18432,
            "byteOffset" : 2255768
        },
        {
            "buffer" : 0,
            "byteLength" : 76488,
            "byteOffset" : 2274200
        },
        {
            "buffer" : 0,
            "byteLength" : 76488,
            "byteOffset" : 2350688
        },
        {
            "buffer" : 0,
            "byteLength" : 50992,
            "byteOffset" : 2427176
        },
        {
            "buffer" : 0,
            "byteLength" : 73728,
            "byteOffset" : 2478168
        },
        {
            "buffer" : 0,
            "byteLength" : 19812,
            "byteOffset" : 2551896
        },
        {
            "buffer" : 0,
            "byteLength" : 19812,
            "byteOffset" : 2571708
        },
        {
            "buffer" : 0,
            "byteLength" : 13208,
            "byteOffset" : 2591520
        },
        {
            "buffer" : 0,
            "byteLength" : 168,
            "byteOffset" : 2604728
        },
        {
            "buffer" : 0,
            "byteLength" : 168,
            "byteOffset" : 2604896
        },
        {
            "buffer" : 0,
            "byteLength" : 112,
            "byteOffset" : 2605064
        },
        {
            "buffer" : 0,
            "byteLength" : 72,
            "byteOffset" : 2605176
        }
    ],
    "samplers" : [
        {
            "magFilter" : 9729,
            "minFilter" : 9987
        }
    ],
    "buffers" : [
        {
            "byteLength" : 2605248,
            "uri" : "data:application/octet-stream;base64,"
        }
    ]
}
