# Blender v2.92.0 OBJ File: 'hubWorld.blend'
# www.blender.org
mtllib hubWorld.mtl
o Cube
v 6.142595 2.000000 -1.000000
v 6.142595 0.000000 -1.000000
v 6.142595 2.000000 1.000000
v 6.142595 0.000000 1.000000
v -6.142595 2.000000 -1.000000
v -6.142595 0.000000 -1.000000
v -6.142595 2.000000 1.000000
v -6.142595 0.000000 1.000000
v -0.653233 2.000000 1.000000
v -1.273803 0.000000 1.000000
v 0.783878 2.000000 1.000000
v 1.469772 0.000000 1.000000
v 0.783878 2.000000 3.093233
v -0.653233 2.000000 3.093233
v -1.273803 0.000000 3.093233
v 1.469772 0.000000 3.093233
v 0.909412 2.178766 7.925859
v -0.784605 2.178766 7.925859
v -1.516113 -0.178766 7.925859
v 1.717920 -0.178766 7.925859
v 1.469772 0.000000 1.363417
v 1.469772 0.000000 2.578931
v 1.118598 1.023989 2.286520
v 1.131019 0.987773 1.619206
v 2.448473 -0.276615 1.363417
v 2.448473 -0.276615 2.578931
v 2.374293 0.803372 2.286520
v 2.376917 0.765176 1.619206
v -2.239623 0.149006 1.127230
v -2.274100 2.242787 1.127230
v -2.203710 0.343272 3.093233
v -2.238187 2.437053 3.093233
v -3.742550 0.148482 1.127230
v -3.735231 2.242534 1.127230
v -3.706638 0.342748 3.093233
v -3.699319 2.436800 3.093233
v 2.925630 -1.048799 9.374682
v -1.423981 3.048800 9.374682
v 1.520371 3.048800 9.374682
v -2.695405 -1.048799 9.374682
vt 0.625000 0.500000
vt 0.875000 0.500000
vt 0.875000 0.750000
vt 0.763293 0.750000
vt 0.734048 0.750000
vt 0.625000 0.750000
vt 0.375000 0.750000
vt 0.625000 0.859048
vt 0.375000 0.845091
vt 0.375000 0.000000
vt 0.625000 0.000000
vt 0.625000 0.250000
vt 0.375000 0.250000
vt 0.375000 0.500000
vt 0.734048 0.750000
vt 0.763293 0.750000
vt 0.763293 0.750000
vt 0.734048 0.750000
vt 0.375000 0.900922
vt 0.625000 0.888293
vt 0.625000 1.000000
vt 0.375000 1.000000
vt 0.375000 0.900922
vt 0.625000 0.888293
vt 0.625000 0.859048
vt 0.375000 0.845091
vt 0.375000 0.845091
vt 0.502999 0.852237
vt 0.498472 0.851984
vt 0.375000 0.845091
vt 0.625000 0.859048
vt 0.375000 0.845091
vt 0.625000 0.888293
vt 0.375000 0.900922
vt 0.375000 0.900922
vt 0.625000 0.888293
vt 0.498472 0.851984
vt 0.375000 0.845091
vt 0.375000 0.845091
vt 0.502999 0.852237
vt 0.625000 0.888293
vt 0.375000 0.900922
vt 0.763293 0.750000
vt 0.763293 0.750000
vt 0.625000 0.888293
vt 0.375000 0.900922
vt 0.375000 0.900922
vt 0.625000 0.888293
vt 0.763293 0.750000
vt 0.763293 0.750000
vt 0.625000 0.859048
vt 0.375000 0.845091
vt 0.375000 0.900922
vt 0.625000 0.888293
vt 0.763293 0.750000
vt 0.734048 0.750000
vn 0.0000 1.0000 0.0000
vn 0.0000 0.0000 1.0000
vn -1.0000 0.0000 0.0000
vn 1.0000 0.0000 0.0000
vn 0.0000 0.0000 -1.0000
vn 0.0000 0.9993 -0.0370
vn -0.0958 0.0137 -0.9953
vn 0.9459 0.3244 -0.0000
vn 0.9453 0.3242 -0.0365
vn -0.9544 0.2961 -0.0369
vn 0.0572 0.2549 -0.9653
vn 0.0621 0.2789 0.9583
vn 0.1742 0.9833 -0.0529
vn 0.2054 0.9775 -0.0486
vn -0.9998 0.0035 0.0179
vn -0.0002 0.9952 -0.0983
vn 0.8134 0.2789 -0.5105
vn -0.8192 0.2542 -0.5141
vn 0.0000 0.8573 -0.5148
usemtl Material.006
s off
f 1/1/1 5/2/1 7/3/1 9/4/1 11/5/1 3/6/1
f 4/7/2 3/6/2 11/8/2 12/9/2
f 8/10/3 7/11/3 5/12/3 6/13/3
f 2/14/4 1/1/4 3/6/4 4/7/4
f 6/13/5 5/12/5 1/1/5 2/14/5
f 13/15/6 14/16/6 18/17/6 17/18/6
f 10/19/2 9/20/2 7/21/2 8/22/2
f 9/20/7 10/19/7 29/23/7 30/24/7
f 11/5/1 9/4/1 14/16/1 13/15/1
f 12/9/8 11/8/8 13/25/8 16/26/8 22/27/8 23/28/8 24/29/8 21/30/8
f 16/26/9 13/25/9 17/31/9 20/32/9
f 14/33/10 15/34/10 19/35/10 18/36/10
f 21/30/11 24/29/11 28/37/11 25/38/11
f 23/28/12 22/27/12 26/39/12 27/40/12
f 24/29/13 23/28/13 27/40/13 28/37/13
f 15/34/2 14/33/2 32/41/2 31/42/2
f 14/16/14 9/4/14 30/43/14 32/44/14
f 34/45/15 33/46/15 35/47/15 36/48/15
f 30/24/5 29/23/5 33/46/5 34/45/5
f 32/44/16 30/43/16 34/49/16 36/50/16
f 31/42/2 32/41/2 36/48/2 35/47/2
f 20/32/17 17/31/17 39/51/17 37/52/17
f 18/36/18 19/35/18 40/53/18 38/54/18
f 17/18/19 18/17/19 38/55/19 39/56/19
o Cube.001
v 2.840841 4.929209 20.676188
v -2.805868 4.929209 20.676188
v -5.244220 -2.990704 20.676188
v 5.535861 -2.990704 20.676188
v 2.764390 4.910656 11.840655
v 5.659603 -2.993646 11.706224
v -5.921247 -2.993646 11.706224
v -3.301769 4.910656 11.840655
v 2.925630 -1.048799 9.374682
v -1.423981 3.048800 9.374682
v 1.520371 3.048800 9.374682
v -2.695405 -1.048799 9.374682
vt 0.375000 0.845091
vt 0.625000 0.859048
vt 0.625000 0.859048
vt 0.375000 0.845091
vt 0.625000 0.888293
vt 0.375000 0.900922
vt 0.625000 0.888293
vt 0.375000 0.900922
vt 0.734048 0.750000
vt 0.763293 0.750000
vt 0.763293 0.750000
vt 0.734048 0.750000
vt 0.734048 0.750000
vt 0.763293 0.750000
vt 0.625000 0.888293
vt 0.375000 0.900922
vt 0.375000 0.845091
vt 0.625000 0.859048
vn 0.9429 0.3331 0.0021
vn 0.0000 0.0000 1.0000
vn -0.9508 0.3034 0.0623
vn 0.0000 1.0000 -0.0021
vn 0.0000 0.7981 -0.6026
vn -0.6693 0.2249 -0.7081
vn 0.7429 0.2730 -0.6112
usemtl Material.001
s off
f 46/57/20 45/58/20 41/59/20 44/60/20
f 44/60/21 41/59/21 42/61/21 43/62/21
f 48/63/22 47/64/22 43/62/22 42/61/22
f 45/65/23 48/66/23 42/67/23 41/68/23
f 51/69/24 50/70/24 48/66/24 45/65/24
f 50/71/25 52/72/25 47/64/25 48/63/25
f 49/73/26 51/74/26 45/58/26 46/57/26
o Cube.002
v 2.448473 -0.276615 1.363417
v 2.448473 -0.276615 2.578931
v 2.374293 0.803372 2.286520
v 2.376917 0.765176 1.619206
vt 0.375000 0.845091
vt 0.498472 0.851984
vt 0.502999 0.852237
vt 0.375000 0.845091
vn 0.9976 0.0685 0.0000
usemtl Material.002
s off
f 53/75/27 56/76/27 55/77/27 54/78/27
o Cube.003
v 6.142595 0.000000 -1.000000
v 6.142595 0.000000 1.000000
v -6.142595 0.000000 -1.000000
v -6.142595 0.000000 1.000000
v -1.273803 0.000000 1.000000
v 1.469772 0.000000 1.000000
v -1.273803 0.000000 3.093233
v 1.469772 0.000000 3.093233
v -1.516113 -0.178766 7.925859
v 1.717920 -0.178766 7.925859
v 1.469772 0.000000 1.363417
v 1.469772 0.000000 2.578931
v 2.448473 -0.276615 1.363417
v 2.448473 -0.276615 2.578931
v -2.239623 0.149006 1.127230
v -2.203710 0.343272 3.093233
v -3.742550 0.148482 1.127230
v -3.706638 0.342748 3.093233
v 2.925630 -1.048799 9.374682
v -2.695405 -1.048799 9.374682
vt 0.125000 0.500000
vt 0.375000 0.500000
vt 0.375000 0.750000
vt 0.279909 0.750000
vt 0.224078 0.750000
vt 0.125000 0.750000
vt 0.279909 0.750000
vt 0.279909 0.750000
vt 0.279909 0.750000
vt 0.224078 0.750000
vt 0.279909 0.750000
vt 0.224078 0.750000
vt 0.279909 0.750000
vt 0.279909 0.750000
vt 0.224078 0.750000
vt 0.224078 0.750000
vt 0.224078 0.750000
vt 0.224078 0.750000
vt 0.279909 0.750000
vt 0.224079 0.750000
vn 0.0000 -1.0000 0.0000
vn 0.0000 -0.9993 -0.0370
vn -0.2720 -0.9623 0.0000
vn 0.0003 -0.9952 0.0983
vn -0.2480 -0.9675 0.0485
vn 0.0000 -0.8573 -0.5148
usemtl Material.001
s off
f 59/79/28 57/80/28 58/81/28 62/82/28 61/83/28 60/84/28
f 61/83/28 62/82/28 67/85/28 68/86/28 64/87/28 63/88/28
f 63/88/29 64/87/29 66/89/29 65/90/29
f 68/86/30 67/85/30 69/91/30 70/92/30
f 71/93/31 72/94/31 74/95/31 73/96/31
f 61/83/32 63/88/32 72/94/32 71/93/32
f 65/90/33 66/89/33 75/97/33 76/98/33
o Cube.004
v -5.244220 -2.990704 20.676188
v 5.535861 -2.990704 20.676188
v 5.659603 -2.993646 11.706224
v -5.921247 -2.993646 11.706224
v 2.925630 -1.048799 9.374682
v -2.695405 -1.048799 9.374682
vt 0.224079 0.750000
vt 0.279909 0.750000
vt 0.279909 0.750000
vt 0.224078 0.750000
vt 0.224079 0.750000
vt 0.279909 0.750000
vn 0.0000 -1.0000 0.0003
vn 0.0000 -0.7679 -0.6406
usemtl Material
s off
f 80/99/34 79/100/34 78/101/34 77/102/34
f 82/103/35 81/104/35 79/100/35 80/99/35
