# Created by Kenney (www.kenney.nl)

mtllib ammo_rocket.mtl

g ammo_rocket

v 0.02956696 0.01224704 -1.862645E-09
v 0.02956696 -0.01224704 1.862645E-09
v 0.01224703 0.02956696 -3.72529E-09
v 0.01224703 -0.02956696 3.72529E-09
v -0.01224703 -0.02956696 3.72529E-09
v -0.01224703 0.02956696 -3.72529E-09
v -0.02956696 0.01224704 -1.862645E-09
v -0.02956696 -0.01224704 1.862645E-09
v -0.03285218 -0.01360784 -0.195228
v -0.03285218 0.01360779 -0.195228
v 0.01360782 0.03285216 -0.195228
v -0.01360782 0.03285216 -0.195228
v 0.03285218 -0.01360784 -0.195228
v 0.03285218 0.01360779 -0.195228
v 0.01360782 -0.03285222 -0.195228
v -0.01360782 -0.03285222 -0.195228
v 0.06015464 0.02491683 -0.321552
v 0.05420609 -0.02245292 -0.321552
v 0.06015464 -0.02491689 -0.321552
v 0.02491687 -0.06015468 -0.321552
v 0.0224529 -0.05420613 -0.321552
v -0.02491687 -0.06015468 -0.321552
v -0.0224529 -0.05420613 -0.321552
v -0.05420609 -0.02245292 -0.321552
v -0.06015464 -0.02491689 -0.321552
v -0.05420609 0.02245286 -0.321552
v 0.05420609 0.02245286 -0.321552
v 0.02491687 0.06015462 -0.321552
v 0.0224529 0.05420607 -0.321552
v -0.02491687 0.06015462 -0.321552
v -0.0224529 0.05420607 -0.321552
v -0.06015464 0.02491683 -0.321552
v -0.06015464 -0.02491689 -0.310068
v -0.06015464 0.02491683 -0.310068
v 0.06015464 -0.02491689 -0.310068
v 0.05420609 0.02245286 -0.310068
v 0.06015464 0.02491683 -0.310068
v 0.02491687 0.06015462 -0.310068
v 0.0224529 0.05420607 -0.310068
v -0.02491687 0.06015462 -0.310068
v -0.0224529 0.05420607 -0.310068
v -0.05420609 0.02245286 -0.310068
v 0.05420609 -0.02245292 -0.310068
v 0.02491687 -0.06015468 -0.310068
v 0.0224529 -0.05420613 -0.310068
v -0.02491687 -0.06015468 -0.310068
v -0.0224529 -0.05420613 -0.310068
v -0.05420609 -0.02245292 -0.310068
v 0.04816417 0.01995023 -0.195228
v 0.04816417 -0.01995029 -0.195228
v 0.01995025 0.04816414 -0.195228
v -0.01995025 0.04816414 -0.195228
v -0.04816417 0.01995023 -0.195228
v -0.04816417 -0.01995029 -0.195228
v 0.01995025 -0.0481642 -0.195228
v -0.01995025 -0.0481642 -0.195228
v 0.03853134 0.01596017 -0.214368
v 0.03285218 -0.01360784 -0.214368
v 0.03853134 -0.01596023 -0.214368
v 0.0159602 -0.03853136 -0.214368
v 0.01360782 -0.0328522 -0.214368
v -0.0159602 -0.03853136 -0.214368
v -0.01360782 -0.0328522 -0.214368
v -0.03285218 -0.01360784 -0.214368
v -0.03853134 -0.01596023 -0.214368
v -0.03285218 0.01360779 -0.214368
v 0.03285218 0.01360779 -0.214368
v 0.0159602 0.0385313 -0.214368
v 0.01360782 0.03285214 -0.214368
v -0.0159602 0.0385313 -0.214368
v -0.01360782 0.03285214 -0.214368
v -0.03853134 0.01596017 -0.214368
v 0.02299652 -0.009525537 -0.4172521
v 0.02299652 0.009525418 -0.4172521
v 0.009525471 -0.02299657 -0.4172521
v 0.009525471 0.02299646 -0.4172521
v -0.009525471 -0.02299657 -0.4172521
v -0.009525471 0.02299646 -0.4172521
v -0.02299652 -0.009525537 -0.4172521
v -0.02299652 0.009525418 -0.4172521

vn 0 5.960464E-08 0.3828001
vn 0 -5.960464E-08 -0.3828001
vn -0.3827458 9.313226E-10 0.006440693
vn 0.3827458 -9.313226E-10 -0.006440693
vn 0 0.3827459 0.006440639
vn 0 -0.3827459 -0.006440639
vn 0.3827458 9.313226E-10 0.006440693
vn -0.3827458 -9.313226E-10 -0.006440693
vn 0.2706422 -0.2706422 0.006440729
vn -0.2706422 0.2706422 -0.006440729
vn 0.2706422 0.2706422 0.006440669
vn -0.2706422 -0.2706422 -0.006440669
vn -0.2706422 0.2706422 0.006440669
vn 0.2706422 -0.2706422 -0.006440669
vn 0 -0.3827459 0.006440759
vn 0 0.3827459 -0.006440759
vn -0.2706422 -0.2706422 0.006440729
vn 0.2706422 0.2706422 -0.006440729
vn -0.3828 0 0
vn 0 0.3828001 -5.960464E-08
vn -0.2706805 -0.2706805 2.980232E-08
vn 0.2706805 0.2706805 -2.980232E-08
vn 0.3828 0 0
vn 0.2706805 -0.2706805 2.980232E-08
vn 0 -0.3828001 5.960464E-08
vn -0.2706805 0.2706805 -2.980232E-08
vn 0.2417857 0.2417857 -0.1720909
vn -0.2417857 0.2417857 -0.1720909
vn -0.3419365 -1.490116E-08 -0.1720908
vn 0 -0.3419365 -0.1720908
vn -0.2417857 -0.2417857 -0.1720908
vn 0 0.3419365 -0.1720908
vn 0.3419365 -1.490116E-08 -0.1720908
vn 0.2417857 -0.2417857 -0.1720908
vn -0.3736122 7.450581E-09 0.08336554
vn -0.2641837 -0.2641837 0.08336556
vn 0 -0.3736122 0.08336556
vn 0 0.3736122 0.0833655
vn -0.2641837 0.2641837 0.0833655
vn 0.2641837 0.2641837 0.0833655
vn 0.3736122 7.450581E-09 0.08336554
vn 0.2641837 -0.2641837 0.08336556
vn 0 -0.363936 -0.1186863
vn 0.363936 -1.490116E-08 -0.1186864
vn -0.363936 -1.490116E-08 -0.1186864
vn 0 0.363936 -0.1186864
vn -0.2573416 0.2573416 -0.1186864
vn 0.2573416 0.2573416 -0.1186864
vn -0.2573416 -0.2573417 -0.1186863
vn 0.2573416 -0.2573417 -0.1186863

vt 3.040892 1.259579
vt 3.040892 -1.259579
vt 1.259579 3.040892
vt 1.259579 -3.040892
vt -1.259579 -3.040892
vt -1.259579 3.040892
vt -3.040892 1.259579
vt -3.040892 -1.259579
vt -1.399532 20.13275
vt 1.399532 20.13275
vt -1.259579 0.05116365
vt 1.259579 0.05116365
vt -6.186763 2.562641
vt -5.574968 -2.309227
vt -6.186763 -2.562641
vt -2.562641 -6.186763
vt -2.309227 -5.574968
vt 2.562641 -6.186763
vt 2.309227 -5.574968
vt 5.574968 -2.309227
vt 6.186763 -2.562641
vt 5.574968 2.309227
vt -5.574968 2.309227
vt -2.562641 6.186763
vt -2.309227 5.574968
vt 2.562641 6.186763
vt 2.309227 5.574968
vt 6.186763 2.562641
vt -2.562641 33.07087
vt 2.562641 33.07087
vt -2.562641 31.88976
vt 2.562641 31.88976
vt 4.953572 2.051837
vt 4.953572 -2.051837
vt 2.051837 4.953572
vt 3.378769 1.399532
vt 1.399532 3.378769
vt -2.051837 4.953572
vt -1.399532 3.378769
vt -3.378769 1.399532
vt -4.953572 2.051837
vt -4.953572 -2.051837
vt 3.378769 -1.399532
vt 2.051837 -4.953572
vt 1.399532 -3.378769
vt -2.051837 -4.953572
vt -1.399532 -3.378769
vt -3.378769 -1.399532
vt -3.962857 1.641469
vt -3.962857 -1.641469
vt -1.641469 -3.962857
vt 1.641469 -3.962857
vt 3.962857 -1.641469
vt -1.641469 3.962857
vt 1.641469 3.962857
vt 3.962857 1.641469
vt 1.641469 17.91219
vt 2.051837 15.70844
vt -1.641469 17.91219
vt -2.051837 15.70844
vt -2.365138 -0.9796723
vt -2.365138 0.9796723
vt -0.9796723 -2.365138
vt -0.9796723 2.365138
vt 0.9796723 -2.365138
vt 0.9796723 2.365138
vt 2.365138 -0.9796723
vt 2.365138 0.9796723
vt -2.309227 32.33846
vt 2.309227 32.33846
vt -1.399532 22.25389
vt 1.399532 22.25389
vt 2.309227 29.71266
vt -2.309227 29.71266
vt 0.9796723 40.06535
vt -0.9796723 40.06535

usemtl dark

f 3/3/1 2/2/1 1/1/1
f 2/2/1 3/3/1 4/4/1
f 4/4/1 3/3/1 5/5/1
f 5/5/1 3/3/1 6/6/1
f 5/5/1 6/6/1 7/7/1
f 5/5/1 7/7/1 8/8/1
f 1/1/2 2/2/2 3/3/2
f 4/4/2 3/3/2 2/2/2
f 5/5/2 3/3/2 4/4/2
f 6/6/2 3/3/2 5/5/2
f 7/7/2 6/6/2 5/5/2
f 8/8/2 7/7/2 5/5/2
f 8/11/3 10/10/3 9/9/3
f 10/10/3 8/11/3 7/12/3
f 9/9/4 10/10/4 8/11/4
f 7/12/4 8/11/4 10/10/4
f 11/10/5 6/11/5 3/12/5
f 6/11/5 11/10/5 12/9/5
f 3/12/6 6/11/6 11/10/6
f 12/9/6 11/10/6 6/11/6
f 14/9/7 2/12/7 13/10/7
f 2/12/7 14/9/7 1/11/7
f 13/10/8 2/12/8 14/9/8
f 1/11/8 14/9/8 2/12/8
f 13/9/9 4/12/9 15/10/9
f 4/12/9 13/9/9 2/11/9
f 15/10/10 4/12/10 13/9/10
f 2/11/10 13/9/10 4/12/10
f 14/10/11 3/11/11 1/12/11
f 3/11/11 14/10/11 11/9/11
f 1/12/12 3/11/12 14/10/12
f 11/9/12 14/10/12 3/11/12
f 6/12/13 10/9/13 7/11/13
f 10/9/13 6/12/13 12/10/13
f 7/11/14 10/9/14 6/12/14
f 12/10/14 6/12/14 10/9/14
f 16/10/15 4/11/15 5/12/15
f 4/11/15 16/10/15 15/9/15
f 5/12/16 4/11/16 16/10/16
f 15/9/16 16/10/16 4/11/16
f 5/11/17 9/10/17 16/9/17
f 9/10/17 5/11/17 8/12/17
f 16/9/18 9/10/18 5/11/18
f 8/12/18 5/11/18 9/10/18
f 19/15/2 18/14/2 17/13/2
f 18/14/2 19/15/2 20/16/2
f 18/14/2 20/16/2 21/17/2
f 21/17/2 20/16/2 22/18/2
f 21/17/2 22/18/2 23/19/2
f 23/19/2 22/18/2 24/20/2
f 24/20/2 22/18/2 25/21/2
f 24/20/2 25/21/2 26/22/2
f 27/23/2 17/13/2 18/14/2
f 17/13/2 27/23/2 28/24/2
f 28/24/2 27/23/2 29/25/2
f 28/24/2 29/25/2 30/26/2
f 30/26/2 29/25/2 31/27/2
f 30/26/2 31/27/2 26/22/2
f 30/26/2 26/22/2 32/28/2
f 32/28/2 26/22/2 25/21/2
f 33/31/19 32/30/19 25/29/19
f 32/30/19 33/31/19 34/32/19
f 37/28/1 36/22/1 35/21/1
f 36/22/1 37/28/1 38/26/1
f 36/22/1 38/26/1 39/27/1
f 39/27/1 38/26/1 40/24/1
f 39/27/1 40/24/1 41/25/1
f 41/25/1 40/24/1 42/23/1
f 42/23/1 40/24/1 34/13/1
f 42/23/1 34/13/1 33/15/1
f 43/20/1 35/21/1 36/22/1
f 35/21/1 43/20/1 44/18/1
f 44/18/1 43/20/1 45/19/1
f 44/18/1 45/19/1 46/16/1
f 46/16/1 45/19/1 47/17/1
f 46/16/1 47/17/1 48/14/1
f 46/16/1 48/14/1 33/15/1
f 33/15/1 48/14/1 42/23/1
f 38/32/20 30/29/20 40/31/20
f 30/29/20 38/32/20 28/30/20
f 33/32/21 22/29/21 46/31/21
f 22/29/21 33/32/21 25/30/21
f 17/30/22 38/31/22 37/32/22
f 38/31/22 17/30/22 28/29/22
f 19/30/23 37/31/23 35/32/23
f 37/31/23 19/30/23 17/29/23
f 20/30/24 35/31/24 44/32/24
f 35/31/24 20/30/24 19/29/24
f 22/30/25 44/31/25 46/32/25
f 44/31/25 22/30/25 20/29/25
f 30/30/26 34/31/26 40/32/26
f 34/31/26 30/30/26 32/29/26

usemtl green

f 51/35/1 50/34/1 49/33/1
f 50/34/1 51/35/1 14/36/1
f 14/36/1 51/35/1 11/37/1
f 11/37/1 51/35/1 52/38/1
f 11/37/1 52/38/1 12/39/1
f 12/39/1 52/38/1 10/40/1
f 10/40/1 52/38/1 53/41/1
f 10/40/1 53/41/1 54/42/1
f 13/43/1 50/34/1 14/36/1
f 50/34/1 13/43/1 55/44/1
f 55/44/1 13/43/1 15/45/1
f 55/44/1 15/45/1 56/46/1
f 56/46/1 15/45/1 16/47/1
f 56/46/1 16/47/1 9/48/1
f 56/46/1 9/48/1 54/42/1
f 54/42/1 9/48/1 10/40/1
f 59/50/2 58/48/2 57/49/2
f 58/48/2 59/50/2 60/51/2
f 58/48/2 60/51/2 61/47/2
f 61/47/2 60/51/2 62/52/2
f 61/47/2 62/52/2 63/45/2
f 63/45/2 62/52/2 64/43/2
f 64/43/2 62/52/2 65/53/2
f 64/43/2 65/53/2 66/36/2
f 67/40/2 57/49/2 58/48/2
f 57/49/2 67/40/2 68/54/2
f 68/54/2 67/40/2 69/39/2
f 68/54/2 69/39/2 70/55/2
f 70/55/2 69/39/2 71/37/2
f 70/55/2 71/37/2 66/36/2
f 70/55/2 66/36/2 72/56/2
f 72/56/2 66/36/2 65/53/2
f 68/59/27 49/58/27 57/57/27
f 49/58/27 68/59/27 51/60/27
f 52/58/28 72/59/28 53/60/28
f 72/59/28 52/58/28 70/57/28
f 53/58/29 65/59/29 54/60/29
f 65/59/29 53/58/29 72/57/29
f 62/57/30 55/60/30 56/58/30
f 55/60/30 62/57/30 60/59/30
f 54/58/31 62/59/31 56/60/31
f 62/59/31 54/58/31 65/57/31
f 68/57/32 52/60/32 51/58/32
f 52/60/32 68/57/32 70/59/32
f 59/57/33 49/60/33 50/58/33
f 49/60/33 59/57/33 57/59/33
f 60/57/34 50/60/34 55/58/34
f 50/60/34 60/57/34 59/59/34
f 75/63/2 74/62/2 73/61/2
f 74/62/2 75/63/2 76/64/2
f 76/64/2 75/63/2 77/65/2
f 76/64/2 77/65/2 78/66/2
f 78/66/2 77/65/2 79/67/2
f 78/66/2 79/67/2 80/68/2
f 64/71/35 42/70/35 48/69/35
f 42/70/35 64/71/35 66/72/35
f 63/71/36 48/70/36 47/69/36
f 48/70/36 63/71/36 64/72/36
f 47/70/37 61/71/37 63/72/37
f 61/71/37 47/70/37 45/69/37
f 69/72/38 41/69/38 71/71/38
f 41/69/38 69/72/38 39/70/38
f 71/72/39 42/69/39 66/71/39
f 42/69/39 71/72/39 41/70/39
f 36/70/40 69/71/40 67/72/40
f 69/71/40 36/70/40 39/69/40
f 36/69/41 58/72/41 43/70/41
f 58/72/41 36/69/41 67/71/41
f 43/69/42 61/72/42 45/70/42
f 61/72/42 43/69/42 58/71/42
f 77/75/43 21/74/43 23/73/43
f 21/74/43 77/75/43 75/76/43
f 73/75/44 27/74/44 18/73/44
f 27/74/44 73/75/44 74/76/44
f 26/73/45 79/76/45 24/74/45
f 79/76/45 26/73/45 80/75/45
f 76/75/46 31/74/46 29/73/46
f 31/74/46 76/75/46 78/76/46
f 31/73/47 80/76/47 26/74/47
f 80/76/47 31/73/47 78/75/47
f 76/76/48 27/73/48 74/75/48
f 27/73/48 76/76/48 29/74/48
f 24/73/49 77/76/49 23/74/49
f 77/76/49 24/73/49 79/75/49
f 75/75/50 18/74/50 21/73/50
f 18/74/50 75/75/50 73/76/50

