# Created by Kenney (www.kenney.nl)

mtllib ammo_shotgun.mtl

g ammo_shotgun

v 0.01158871 0.07656001 -0.006690743
v 0.01158871 0.01914 -0.006690743
v 0.01292552 0.07656001 -0.003463383
v 0.01292552 0.01914 -0.003463383
v 0.006690743 0.01914 -0.01158871
v 0.009462139 0.01914 -0.009462139
v 0.006690743 0.07656001 -0.01158871
v 0.009462139 0.07656001 -0.009462139
v 0.01338149 0.07656001 0
v 0.01338149 0.01914 0
v 0.01292552 0.07656001 0.003463383
v 0.01158871 0.07656001 0.006690743
v 0.009462139 0.07656001 0.009462139
v 0.006690743 0.07656001 0.01158871
v 0.003463383 0.07656001 -0.01292552
v 0.003463383 0.07656001 0.01292552
v 0 0.07656001 -0.01338149
v 0 0.07656001 0.01338149
v -0.003463383 0.07656001 -0.01292552
v -0.003463383 0.07656001 0.01292552
v -0.006690743 0.07656001 -0.01158871
v -0.006690743 0.07656001 0.01158871
v -0.009462139 0.07656001 -0.009462139
v -0.009462139 0.07656001 0.009462139
v -0.01158871 0.07656001 0.006690743
v -0.01158871 0.07656001 -0.006690743
v -0.01292552 0.07656001 -0.003463383
v -0.01292552 0.07656001 0.003463383
v -0.01338149 0.07656001 0
v -0.009462139 0.01914 -0.009462139
v -0.006690743 0.01914 -0.01158871
v -0.01158871 0.01914 -0.006690743
v -0.003463383 0.01914 -0.01292552
v 0 0.01914 -0.01338149
v -0.01292552 0.01914 -0.003463383
v -0.01338149 0.01914 0
v -0.01158871 0.01914 0.006690743
v -0.009462139 0.01914 0.009462139
v -0.006690743 0.01914 0.01158871
v 0.003463383 0.01914 -0.01292552
v -0.003463383 0.01914 0.01292552
v -0.01292552 0.01914 0.003463383
v 0 0.01914 0.01338149
v 0.006690743 0.01914 0.01158871
v 0.003463383 0.01914 0.01292552
v 0.009462139 0.01914 0.009462139
v 0.01158871 0.01914 0.006690743
v 0.01292552 0.01914 0.003463383
v 0.007589937 0 0
v 0.007331316 0 0.00196442
v 0.007656 0 0.01326058
v 0.003963037 0 0.01479026
v 0.006573078 0 0.003794968
v 0.005366896 0 0.005366896
v 0.003794968 0 0.006573078
v 0 0 0.015312
v 0.00196442 0 0.007331316
v 0 0 0.007589937
v -0.003963037 0 0.01479026
v -0.00196442 0 0.007331316
v -0.003794968 0 0.006573078
v -0.005366896 0 0.005366896
v -0.007656 0 0.01326058
v -0.006573078 0 0.003794968
v -0.007331316 0 0.00196442
v -0.007589937 0 0
v -0.007656 0 -0.01326058
v -0.01082722 0 -0.01082722
v -0.01082722 0 0.01082722
v -0.01326058 0 0.007656
v -0.01326058 0 -0.007656
v -0.01479026 0 0.003963037
v -0.01479026 0 -0.003963037
v -0.015312 0 0
v -0.007331316 0 -0.00196442
v -0.006573078 0 -0.003794968
v -0.005366896 0 -0.005366896
v -0.003963037 0 -0.01479026
v -0.003794968 0 -0.006573078
v -0.00196442 0 -0.007331316
v 0 0 -0.015312
v 0 0 -0.007589937
v 0.00196442 0 -0.007331316
v 0.003794968 0 -0.006573078
v 0.003963037 0 -0.01479026
v 0.005366896 0 -0.005366896
v 0.006573078 0 -0.003794968
v 0.007331316 0 -0.00196442
v 0.007656 0 -0.01326058
v 0.01082722 0 -0.01082722
v 0.01082722 0 0.01082722
v 0.01326058 0 -0.007656
v 0.01326058 0 0.007656
v 0.01479026 0 -0.003963037
v 0.01479026 0 0.003963037
v 0.015312 0 0
v 0.015312 0.003828 0
v 0.01479026 0.003828 0.003963037
v 0.01479026 0.003828 -0.003963037
v 0.01326058 0.003828 -0.007656
v 0.01338149 0.003828 0
v 0.01292552 0.003828 -0.003463383
v 0.01082722 0.003828 -0.01082722
v 0.01158871 0.003828 -0.006690743
v 0.009462139 0.003828 -0.009462139
v 0.007656 0.003828 -0.01326058
v 0.006690743 0.003828 -0.01158871
v 0.003963037 0.003828 -0.01479026
v 0.003463383 0.003828 -0.01292552
v 0 0.003828 -0.015312
v 0 0.003828 -0.01338149
v -0.003963037 0.003828 -0.01479026
v -0.003463383 0.003828 -0.01292552
v -0.006690743 0.003828 -0.01158871
v -0.007656 0.003828 -0.01326058
v -0.009462139 0.003828 -0.009462139
v -0.01082722 0.003828 -0.01082722
v -0.01158871 0.003828 -0.006690743
v -0.01326058 0.003828 -0.007656
v -0.01292552 0.003828 -0.003463383
v -0.01338149 0.003828 0
v -0.01479026 0.003828 -0.003963037
v -0.01479026 0.003828 0.003963037
v -0.01326058 0.003828 0.007656
v -0.01292552 0.003828 0.003463383
v -0.01158871 0.003828 0.006690743
v -0.01082722 0.003828 0.01082722
v -0.009462139 0.003828 0.009462139
v -0.007656 0.003828 0.01326058
v -0.006690743 0.003828 0.01158871
v -0.003963037 0.003828 0.01479026
v -0.003463383 0.003828 0.01292552
v 0 0.003828 0.015312
v 0 0.003828 0.01338149
v 0.003463383 0.003828 0.01292552
v 0.003963037 0.003828 0.01479026
v 0.006690743 0.003828 0.01158871
v 0.007656 0.003828 0.01326058
v 0.009462139 0.003828 0.009462139
v 0.01082722 0.003828 0.01082722
v 0.01158871 0.003828 0.006690743
v 0.01292552 0.003828 0.003463383
v 0.01326058 0.003828 0.007656
v -0.015312 0.003828 0

vn 0.3315146 0 -0.1914
vn 0.3697564 0 -0.09907594
vn 0.1914 0 -0.3315146
vn 0.2706805 0 -0.2706805
vn 0.3828 0 0
vn 0 0.3828 0
vn -0.2706805 0 -0.2706805
vn -0.1914 0 -0.3315146
vn -0.3315146 0 -0.1914
vn -0.09907594 0 -0.3697564
vn 0 0 -0.3828
vn -0.3697564 0 -0.09907594
vn -0.3828 0 0
vn -0.3315146 0 0.1914
vn -0.2706805 0 0.2706805
vn -0.1914 0 0.3315146
vn 0.09907594 0 -0.3697564
vn -0.09907594 0 0.3697564
vn -0.3697564 0 0.09907594
vn 0 0 0.3828
vn 0.1914 0 0.3315146
vn 0.09907594 0 0.3697564
vn 0.2706805 0 0.2706805
vn 0.3315146 0 0.1914
vn 0.3697564 0 0.09907594
vn 0 -0.3828 0

vt 0.1796372 7.874016
vt 0.1796372 1.968504
vt -0.1796372 7.874016
vt -0.1796372 1.968504
vt -1.376254 0
vt -1.329359 0.3562008
vt -1.329359 -0.3562008
vt -1.191871 -0.6881271
vt -1.191871 0.6881271
vt -0.9731587 -0.9731587
vt -0.9731587 0.9731587
vt -0.6881271 1.191871
vt -0.6881271 -1.191871
vt -0.3562008 -1.329359
vt -0.3562008 1.329359
vt 0 -1.376254
vt 0 1.376254
vt 0.3562008 -1.329359
vt 0.3562008 1.329359
vt 0.6881271 -1.191871
vt 0.6881271 1.191871
vt 0.9731587 -0.9731587
vt 0.9731587 0.9731587
vt 1.191871 0.6881271
vt 1.191871 -0.6881271
vt 1.329359 -0.3562008
vt 1.329359 0.3562008
vt 1.376254 0
vt 0.7806071 0
vt 0.7540086 0.202036
vt 0.7874016 1.363819
vt 0.407589 1.521143
vt 0.6760256 0.3903036
vt 0.5519726 0.5519726
vt 0.3903036 0.6760256
vt 0 1.574803
vt 0.202036 0.7540086
vt 0 0.7806071
vt -0.407589 1.521143
vt -0.202036 0.7540086
vt -0.3903036 0.6760256
vt -0.5519726 0.5519726
vt -0.7874016 1.363819
vt -0.6760256 0.3903036
vt -0.7540086 0.202036
vt -0.7806071 0
vt -0.7874016 -1.363819
vt -1.113554 -1.113554
vt -1.113554 1.113554
vt -1.363819 0.7874016
vt -1.363819 -0.7874016
vt -1.521143 0.407589
vt -1.521143 -0.407589
vt -1.574803 0
vt -0.7540086 -0.202036
vt -0.6760256 -0.3903036
vt -0.5519726 -0.5519726
vt -0.407589 -1.521143
vt -0.3903036 -0.6760256
vt -0.202036 -0.7540086
vt 0 -1.574803
vt 0 -0.7806071
vt 0.202036 -0.7540086
vt 0.3903036 -0.6760256
vt 0.407589 -1.521143
vt 0.5519726 -0.5519726
vt 0.6760256 -0.3903036
vt 0.7540086 -0.202036
vt 0.7874016 -1.363819
vt 1.113554 -1.113554
vt 1.113554 1.113554
vt 1.363819 -0.7874016
vt 1.363819 0.7874016
vt 1.521143 -0.407589
vt 1.521143 0.407589
vt 1.574803 0
vt 0.2055531 0
vt -0.2055531 0
vt 0.2055531 0.3937008
vt -0.2055531 0.3937008
vt 0.1796372 0.3937008
vt -0.1796372 0.3937008

usemtl red

f 3/3/2 2/2/1 1/1/1
f 2/2/1 3/3/2 4/4/2
f 7/1/3 6/4/4 5/2/3
f 6/4/4 7/1/3 8/3/4
f 9/3/5 4/2/2 3/1/2
f 4/2/2 9/3/5 10/4/5
f 1/3/1 6/2/4 8/1/4
f 6/2/4 1/3/1 2/4/1
f 3/7/6 11/6/6 9/5/6
f 11/6/6 3/7/6 1/8/6
f 11/6/6 1/8/6 12/9/6
f 12/9/6 1/8/6 8/10/6
f 12/9/6 8/10/6 13/11/6
f 13/11/6 8/10/6 14/12/6
f 14/12/6 8/10/6 7/13/6
f 14/12/6 7/13/6 15/14/6
f 14/12/6 15/14/6 16/15/6
f 16/15/6 15/14/6 17/16/6
f 16/15/6 17/16/6 18/17/6
f 18/17/6 17/16/6 19/18/6
f 18/17/6 19/18/6 20/19/6
f 20/19/6 19/18/6 21/20/6
f 20/19/6 21/20/6 22/21/6
f 22/21/6 21/20/6 23/22/6
f 22/21/6 23/22/6 24/23/6
f 24/23/6 23/22/6 25/24/6
f 25/24/6 23/22/6 26/25/6
f 25/24/6 26/25/6 27/26/6
f 25/24/6 27/26/6 28/27/6
f 28/27/6 27/26/6 29/28/6
f 23/1/7 31/4/8 30/2/7
f 31/4/8 23/1/7 21/3/8
f 32/2/9 23/3/7 30/4/7
f 23/3/7 32/2/9 26/1/9
f 19/1/10 34/4/11 33/2/10
f 34/4/11 19/1/10 17/3/11
f 35/2/12 26/3/9 32/4/9
f 26/3/9 35/2/12 27/1/12
f 36/2/13 27/3/12 35/4/12
f 27/3/12 36/2/13 29/1/13
f 38/2/15 25/3/14 37/4/14
f 25/3/14 38/2/15 24/1/15
f 22/1/16 38/4/15 39/2/16
f 38/4/15 22/1/16 24/3/15
f 17/1/11 40/4/17 34/2/11
f 40/4/17 17/1/11 15/3/17
f 20/1/18 39/4/16 41/2/18
f 39/4/16 20/1/18 22/3/16
f 37/2/14 28/3/19 42/4/19
f 28/3/19 37/2/14 25/1/14
f 42/2/19 29/3/13 36/4/13
f 29/3/13 42/2/19 28/1/19
f 15/1/17 5/4/3 40/2/17
f 5/4/3 15/1/17 7/3/3
f 21/1/8 33/4/10 31/2/8
f 33/4/10 21/1/8 19/3/10
f 18/1/20 41/4/18 43/2/20
f 41/4/18 18/1/20 20/3/18
f 14/1/21 45/4/22 44/2/21
f 45/4/22 14/1/21 16/3/22
f 13/1/23 44/4/21 46/2/23
f 44/4/21 13/1/23 14/3/21
f 13/3/23 47/2/24 12/1/24
f 47/2/24 13/3/23 46/4/23
f 12/3/24 48/2/25 11/1/25
f 48/2/25 12/3/24 47/4/24
f 16/1/22 43/4/20 45/2/22
f 43/4/20 16/1/22 18/3/20
f 11/3/25 10/2/5 9/1/5
f 10/2/5 11/3/25 48/4/25

usemtl gold

f 51/31/26 50/30/26 49/29/26
f 50/30/26 51/31/26 52/32/26
f 50/30/26 52/32/26 53/33/26
f 53/33/26 52/32/26 54/34/26
f 54/34/26 52/32/26 55/35/26
f 55/35/26 52/32/26 56/36/26
f 55/35/26 56/36/26 57/37/26
f 57/37/26 56/36/26 58/38/26
f 58/38/26 56/36/26 59/39/26
f 58/38/26 59/39/26 60/40/26
f 60/40/26 59/39/26 61/41/26
f 61/41/26 59/39/26 62/42/26
f 62/42/26 59/39/26 63/43/26
f 62/42/26 63/43/26 64/44/26
f 64/44/26 63/43/26 65/45/26
f 65/45/26 63/43/26 66/46/26
f 66/46/26 63/43/26 67/47/26
f 67/47/26 63/43/26 68/48/26
f 68/48/26 63/43/26 69/49/26
f 68/48/26 69/49/26 70/50/26
f 68/48/26 70/50/26 71/51/26
f 71/51/26 70/50/26 72/52/26
f 71/51/26 72/52/26 73/53/26
f 73/53/26 72/52/26 74/54/26
f 67/47/26 75/55/26 66/46/26
f 67/47/26 76/56/26 75/55/26
f 67/47/26 77/57/26 76/56/26
f 78/58/26 77/57/26 67/47/26
f 78/58/26 79/59/26 77/57/26
f 78/58/26 80/60/26 79/59/26
f 81/61/26 80/60/26 78/58/26
f 81/61/26 82/62/26 80/60/26
f 81/61/26 83/63/26 82/62/26
f 81/61/26 84/64/26 83/63/26
f 85/65/26 84/64/26 81/61/26
f 85/65/26 86/66/26 84/64/26
f 85/65/26 87/67/26 86/66/26
f 85/65/26 88/68/26 87/67/26
f 89/69/26 88/68/26 85/65/26
f 89/69/26 49/29/26 88/68/26
f 89/69/26 51/31/26 49/29/26
f 90/70/26 51/31/26 89/69/26
f 90/70/26 91/71/26 51/31/26
f 92/72/26 91/71/26 90/70/26
f 92/72/26 93/73/26 91/71/26
f 94/74/26 93/73/26 92/72/26
f 94/74/26 95/75/26 93/73/26
f 95/75/26 94/74/26 96/76/26
f 99/53/6 98/52/6 97/54/6
f 98/52/6 99/53/6 100/51/6
f 98/52/6 100/51/6 101/5/6
f 101/5/6 100/51/6 102/7/6
f 102/7/6 100/51/6 103/48/6
f 102/7/6 103/48/6 104/8/6
f 104/8/6 103/48/6 105/10/6
f 105/10/6 103/48/6 106/47/6
f 105/10/6 106/47/6 107/13/6
f 107/13/6 106/47/6 108/58/6
f 107/13/6 108/58/6 109/14/6
f 109/14/6 108/58/6 110/61/6
f 109/14/6 110/61/6 111/16/6
f 111/16/6 110/61/6 112/65/6
f 111/16/6 112/65/6 113/18/6
f 113/18/6 112/65/6 114/20/6
f 114/20/6 112/65/6 115/69/6
f 114/20/6 115/69/6 116/22/6
f 116/22/6 115/69/6 117/70/6
f 116/22/6 117/70/6 118/25/6
f 118/25/6 117/70/6 119/72/6
f 118/25/6 119/72/6 120/26/6
f 120/26/6 119/72/6 121/28/6
f 121/28/6 119/72/6 122/74/6
f 123/75/6 121/28/6 122/74/6
f 124/73/6 121/28/6 123/75/6
f 124/73/6 125/27/6 121/28/6
f 124/73/6 126/24/6 125/27/6
f 127/71/6 126/24/6 124/73/6
f 127/71/6 128/23/6 126/24/6
f 129/31/6 128/23/6 127/71/6
f 129/31/6 130/21/6 128/23/6
f 131/32/6 130/21/6 129/31/6
f 131/32/6 132/19/6 130/21/6
f 133/36/6 132/19/6 131/32/6
f 133/36/6 134/17/6 132/19/6
f 133/36/6 135/15/6 134/17/6
f 136/39/6 135/15/6 133/36/6
f 136/39/6 137/12/6 135/15/6
f 138/43/6 137/12/6 136/39/6
f 138/43/6 139/11/6 137/12/6
f 140/49/6 139/11/6 138/43/6
f 140/49/6 141/9/6 139/11/6
f 140/49/6 142/6/6 141/9/6
f 143/50/6 142/6/6 140/49/6
f 143/50/6 101/5/6 142/6/6
f 101/5/6 143/50/6 98/52/6
f 123/75/6 122/74/6 144/76/6
f 133/79/20 59/78/18 56/77/20
f 59/78/18 133/79/20 131/80/18
f 70/77/14 123/80/19 72/78/19
f 123/80/19 70/77/14 124/79/14
f 140/80/23 93/77/24 143/79/24
f 93/77/24 140/80/23 91/78/23
f 140/79/23 51/78/21 91/77/23
f 51/78/21 140/79/23 138/80/21
f 97/80/5 94/77/2 99/79/2
f 94/77/2 97/80/5 96/78/5
f 143/80/24 95/77/25 98/79/25
f 95/77/25 143/80/24 93/78/24
f 138/79/21 52/78/22 51/77/21
f 52/78/22 138/79/21 136/80/22
f 136/79/22 56/78/20 52/77/22
f 56/78/20 136/79/22 133/80/20
f 131/79/18 63/78/16 59/77/18
f 63/78/16 131/79/18 129/80/16
f 129/79/16 69/78/15 63/77/16
f 69/78/15 129/79/16 127/80/15
f 69/77/15 124/80/14 70/78/14
f 124/80/14 69/77/15 127/79/15
f 98/80/25 96/77/5 97/79/5
f 96/77/5 98/80/25 95/78/25
f 72/77/19 144/80/13 74/78/13
f 144/80/13 72/77/19 123/79/19
f 110/79/11 85/78/17 81/77/11
f 85/78/17 110/79/11 108/80/17
f 108/79/17 89/78/3 85/77/17
f 89/78/3 108/79/17 106/80/3
f 106/79/3 90/78/4 89/77/3
f 90/78/4 106/79/3 103/80/4
f 100/80/1 90/77/4 103/79/4
f 90/77/4 100/80/1 92/78/1
f 73/77/12 119/80/9 71/78/9
f 119/80/9 73/77/12 122/79/12
f 74/77/13 122/80/12 73/78/12
f 122/80/12 74/77/13 144/79/13
f 99/80/2 92/77/1 100/79/1
f 92/77/1 99/80/2 94/78/2
f 117/79/7 67/78/8 68/77/7
f 67/78/8 117/79/7 115/80/8
f 112/79/10 81/78/11 78/77/10
f 81/78/11 112/79/10 110/80/11
f 71/77/9 117/80/7 68/78/7
f 117/80/7 71/77/9 119/79/9
f 115/79/8 78/78/10 67/77/8
f 78/78/10 115/79/8 112/80/10
f 30/2/7 114/82/8 116/81/7
f 114/82/8 30/2/7 31/4/8
f 34/2/11 109/82/17 111/81/11
f 109/82/17 34/2/11 40/4/17
f 31/2/8 113/82/10 114/81/8
f 113/82/10 31/2/8 33/4/10
f 45/2/22 134/82/20 135/81/22
f 134/82/20 45/2/22 43/4/20
f 125/81/19 36/4/13 121/82/13
f 36/4/13 125/81/19 42/2/19
f 126/81/14 42/4/19 125/82/19
f 42/4/19 126/81/14 37/2/14
f 118/81/9 30/4/7 116/82/7
f 30/4/7 118/81/9 32/2/9
f 120/81/12 32/4/9 118/82/9
f 32/4/9 120/81/12 35/2/12
f 121/81/13 35/4/12 120/82/12
f 35/4/12 121/81/13 36/2/13
f 40/2/17 107/82/3 109/81/17
f 107/82/3 40/2/17 5/4/3
f 41/2/18 130/82/16 132/81/18
f 130/82/16 41/2/18 39/4/16
f 43/2/20 132/82/18 134/81/20
f 132/82/18 43/2/20 41/4/18
f 44/2/21 135/82/22 137/81/21
f 135/82/22 44/2/21 45/4/22
f 46/2/23 137/82/21 139/81/23
f 137/82/21 46/2/23 44/4/21
f 39/2/16 128/82/15 130/81/16
f 128/82/15 39/2/16 38/4/15
f 46/4/23 141/81/24 47/2/24
f 141/81/24 46/4/23 139/82/23
f 128/81/15 37/4/14 126/82/14
f 37/4/14 128/81/15 38/2/15
f 33/2/10 111/82/11 113/81/10
f 111/82/11 33/2/10 34/4/11
f 47/4/24 142/81/25 48/2/25
f 142/81/25 47/4/24 141/82/24
f 4/4/2 104/81/1 2/2/1
f 104/81/1 4/4/2 102/82/2
f 2/4/1 105/81/4 6/2/4
f 105/81/4 2/4/1 104/82/1
f 5/2/3 105/82/4 107/81/3
f 105/82/4 5/2/3 6/4/4
f 48/4/25 101/81/5 10/2/5
f 101/81/5 48/4/25 142/82/25
f 10/4/5 102/81/2 4/2/2
f 102/81/2 10/4/5 101/82/5

usemtl dark

f 50/30/26 88/68/26 49/29/26
f 88/68/26 50/30/26 53/33/26
f 88/68/26 53/33/26 87/67/26
f 87/67/26 53/33/26 54/34/26
f 87/67/26 54/34/26 86/66/26
f 86/66/26 54/34/26 55/35/26
f 86/66/26 55/35/26 84/64/26
f 84/64/26 55/35/26 83/63/26
f 83/63/26 55/35/26 57/37/26
f 83/63/26 57/37/26 82/62/26
f 82/62/26 57/37/26 58/38/26
f 82/62/26 58/38/26 60/40/26
f 82/62/26 60/40/26 80/60/26
f 80/60/26 60/40/26 79/59/26
f 79/59/26 60/40/26 61/41/26
f 79/59/26 61/41/26 77/57/26
f 77/57/26 61/41/26 62/42/26
f 77/57/26 62/42/26 64/44/26
f 77/57/26 64/44/26 76/56/26
f 76/56/26 64/44/26 65/45/26
f 76/56/26 65/45/26 75/55/26
f 75/55/26 65/45/26 66/46/26

