# Created by Kenney (www.kenney.nl)

mtllib pistol.mtl

g Group

v -0.02871 0.179916 -0.14355
v -0.02871 0.22968 -0.14355
v -0.02871 0.179916 0.120582
v -0.02871 0.22968 0.120582
v -0.00957 0.225852 0.04785
v 0.024882 0.225852 0.04785
v -0.00957 0.22968 0.04785
v 0.02871 0.22968 0.04785
v 0.02871 0.21054 0.04785
v 0.024882 0.21054 0.04785
v 0.02871 0.21054 -0.00191401
v 0.024882 0.21054 -0.00191401
v 0.02871 0.22968 -0.00191401
v 0.024882 0.225852 -0.00191401
v -0.00957 0.225852 -0.00191401
v -0.00957 0.22968 -0.00191401
v 0.02871 0.22968 0.120582
v 0.02871 0.179916 0.120582
v 0.02871 0.179916 -0.14355
v 0.02871 0.22968 -0.14355
v 0.024882 0.179916 -0.14355
v 0.024882 0.225852 -0.14355
v 0.024882 0.179916 -0.139722
v 0.024882 0.225852 -0.139722
v 0.024882 0.179916 0.120582
v 0.024882 0.225852 0.120582
v -0.024882 0.225852 -0.14355
v -0.024882 0.179916 -0.14355
v -0.024882 0.225852 -0.139722
v -0.024882 0.179916 -0.139722
v -0.024882 0.225852 0.120582
v -0.024882 0.179916 0.120582

vn -1 0 0
vn 0 0 -1
vn 0 0 1
vn 1 0 0
vn 0 1 0
vn 0 -1 0

vt 0 16.92913
vt 0 22.04725
vt 27.16535 16.92913
vt 27.16535 22.04725
vt 3.937008 21.65354
vt 0.3937008 21.65354
vt 3.937008 22.04725
vt 0 20.07874
vt 0.3937008 20.07874
vt -0.3937008 20.07874
vt -0.3937008 21.65354
vt -3.937008 21.65354
vt -3.937008 22.04725
vt -14.56693 22.04725
vt -14.56693 21.65354
vt -19.68504 22.04725
vt -19.68504 21.65354
vt 0 14.56693
vt 0 19.68504
vt 0.3937008 14.56693
vt 0.3937008 19.68504
vt -19.68504 20.07874
vt -27.16535 22.04725
vt -27.16535 16.92913
vt -14.56693 20.07874
vt 0 0
vt 5.905512 0
vt 3.937008 14.56693
vt 3.937008 19.68504
vt 5.905512 27.16535
vt 0 27.16535
vt 0 21.65354
vt 0.3937008 16.92913
vt 14.56693 20.07874
vt 19.68504 20.07874
vt 19.68504 21.65354
vt 27.16535 21.65354
vt 14.56693 21.65354
vt -0.3937008 16.92913
vt -27.16535 21.65354
vt -0.3937008 27.16535
vt -0.3937008 0
vt -0.3937008 0.3937008
vt -5.511811 21.65354
vt -5.905512 22.04725
vt -5.905512 16.92913
vt -5.511811 16.92913
vt -5.511811 0.3937008
vt -5.511811 0
vt -5.511811 27.16535
vt -5.905512 0
vt -5.905512 27.16535
vt 5.905512 16.92913
vt 5.511811 16.92913
vt 5.905512 22.04725
vt 5.511811 21.65354
vt -3.937008 14.56693
vt -3.937008 19.68504
vt -0.3937008 19.68504
vt -0.3937008 14.56693

usemtl grey

f 3/3/1 2/2/1 1/1/1
f 2/2/1 3/3/1 4/4/1
f 7/7/2 6/6/2 5/5/2
f 8/2/2 6/6/2 7/7/2
f 9/8/2 6/6/2 8/2/2
f 6/6/2 9/8/2 10/9/2
f 13/2/3 12/10/3 11/8/3
f 12/10/3 13/2/3 14/11/3
f 14/11/3 13/2/3 15/12/3
f 15/12/3 13/2/3 16/13/3
f 7/16/4 15/15/4 16/14/4
f 15/15/4 7/16/4 5/17/4
f 12/20/5 9/19/5 11/18/5
f 9/19/5 12/20/5 10/21/5
f 17/23/4 9/22/4 8/16/4
f 18/24/4 9/22/4 17/23/4
f 18/24/4 11/25/4 9/22/4
f 19/1/4 11/25/4 18/24/4
f 19/1/4 13/14/4 11/25/4
f 13/14/4 19/1/4 20/2/4
f 2/27/5 13/18/5 20/26/5
f 13/18/5 2/27/5 16/28/5
f 16/28/5 2/27/5 7/29/5
f 4/30/5 7/29/5 2/27/5
f 17/31/5 7/29/5 4/30/5
f 7/29/5 17/31/5 8/19/5
f 23/33/1 22/32/1 21/1/1
f 22/32/1 23/33/1 24/6/1
f 25/3/1 24/6/1 23/33/1
f 24/6/1 25/3/1 12/34/1
f 12/34/1 25/3/1 10/35/1
f 10/35/1 25/3/1 6/36/1
f 6/36/1 25/3/1 26/37/1
f 14/38/1 24/6/1 12/34/1
f 29/11/4 28/1/4 27/32/4
f 28/1/4 29/11/4 30/39/4
f 31/40/4 30/39/4 29/11/4
f 30/39/4 31/40/4 32/24/4
f 25/41/6 19/26/6 18/31/6
f 19/26/6 25/41/6 21/42/6
f 21/42/6 25/41/6 23/43/6
f 17/2/3 25/39/3 18/1/3
f 25/39/3 17/2/3 26/11/3
f 26/11/3 17/2/3 31/44/3
f 4/45/3 31/44/3 17/2/3
f 3/46/3 31/44/3 4/45/3
f 31/44/3 3/46/3 32/47/3
f 32/50/6 28/49/6 30/48/6
f 28/49/6 32/50/6 1/51/6
f 1/51/6 32/50/6 3/52/6
f 2/55/2 28/54/2 1/53/2
f 28/54/2 2/55/2 27/56/2
f 27/56/2 2/55/2 22/6/2
f 20/2/2 22/6/2 2/55/2
f 19/1/2 22/6/2 20/2/2
f 22/6/2 19/1/2 21/33/2
f 29/48/6 22/42/6 24/43/6
f 22/42/6 29/48/6 27/49/6
f 24/43/6 15/57/6 29/48/6
f 15/57/6 31/50/6 29/48/6
f 5/58/6 31/50/6 15/57/6
f 6/59/6 31/50/6 5/58/6
f 31/50/6 6/59/6 26/41/6
f 15/57/6 24/43/6 14/60/6

g Group

v 0.024882 0.015312 0.14355
v 0.024882 0.015312 0.06699001
v -0.024882 0.015312 0.14355
v -0.024882 0.015312 0.06699001
v 0.02871 0 0.147378
v 0.02871 0 0.06316198
v -0.02871 0 0.147378
v -0.02871 0 0.06316198
v -0.02871 0.015312 0.06316198
v 0.02871 0.015312 0.06316198
v -0.02871 0.015312 0.147378
v 0.02871 0.015312 0.147378
v -0.015312 0.11484 0.04079842
v 0.015312 0.11484 0.04079842
v -0.015312 0.126324 0.03777632
v 0.015312 0.126324 0.03777632
v -0.024882 0.160776 0.02871
v 0.024882 0.160776 0.02871
v 0.024882 0.160776 -0.139722
v 0.024882 0.225852 0.12441
v 0.024882 0.160776 0.10527
v 0.024882 0.160776 0.12441
v 0.015312 0.160776 -0.009939952
v -0.015312 0.160776 -0.009939952
v -0.015312 0.160776 -0.02142395
v 0.015312 0.160776 -0.02142395
v -0.024882 0.160776 -0.139722
v -0.024882 0.225852 0.12441
v -0.00957 0.1863083 -0.139722
v -0.01353402 0.18935 -0.139722
v -0.01657572 0.193314 -0.139722
v -0.01848782 0.1979302 -0.139722
v -0.004953793 0.1843962 -0.139722
v 0 0.183744 -0.139722
v -0.01914 0.202884 -0.139722
v -0.01848782 0.2078378 -0.139722
v -0.01657572 0.212454 -0.139722
v -0.01353402 0.216418 -0.139722
v -0.00957 0.2194597 -0.139722
v -0.004953793 0.2213718 -0.139722
v 0 0.222024 -0.139722
v 0.004953799 0.1843962 -0.139722
v 0.004953799 0.2213718 -0.139722
v 0.009570002 0.2194597 -0.139722
v 0.01353403 0.216418 -0.139722
v 0.01657573 0.212454 -0.139722
v 0.01848782 0.2078378 -0.139722
v 0.01914 0.202884 -0.139722
v 0.01848782 0.1979302 -0.139722
v 0.01657573 0.193314 -0.139722
v 0.01353403 0.18935 -0.139722
v 0.009570002 0.1863083 -0.139722
v -0.024882 0.160776 0.10527
v -0.024882 0.160776 0.12441
v 0.009570002 0.1914 0.12441
v -0.00957 0.1914 0.12441
v 0.009570002 0.218196 0.12441
v -0.00957 0.218196 0.12441
v -0.00957 0.1863083 -0.147378
v 0 0.1876534 -0.147378
v -0.01353402 0.18935 -0.147378
v -0.003941957 0.1881724 -0.147378
v -0.007615279 0.1896939 -0.147378
v -0.01657572 0.193314 -0.147378
v -0.01076963 0.1921144 -0.147378
v -0.01319005 0.1952687 -0.147378
v -0.01848782 0.1979302 -0.147378
v -0.01471159 0.1989421 -0.147378
v -0.01914 0.202884 -0.147378
v -0.01523056 0.202884 -0.147378
v -0.01848782 0.2078378 -0.147378
v -0.01471159 0.206826 -0.147378
v -0.01319005 0.2104993 -0.147378
v -0.01657572 0.212454 -0.147378
v -0.01076963 0.2136536 -0.147378
v -0.01353402 0.216418 -0.147378
v -0.007615279 0.216074 -0.147378
v -0.003941957 0.2175956 -0.147378
v -0.00957 0.2194597 -0.147378
v 0 0.2181146 -0.147378
v 0.009570002 0.2194597 -0.147378
v 0.004953799 0.2213718 -0.147378
v -0.004953793 0.2213718 -0.147378
v 0 0.222024 -0.147378
v 0.00394196 0.2175956 -0.147378
v 0.01353403 0.216418 -0.147378
v 0.007615281 0.216074 -0.147378
v 0.01076963 0.2136536 -0.147378
v 0.01657573 0.212454 -0.147378
v 0.01319005 0.2104993 -0.147378
v 0.01848782 0.2078378 -0.147378
v 0.01471159 0.206826 -0.147378
v 0.01914 0.202884 -0.147378
v 0.01523056 0.202884 -0.147378
v 0.01471159 0.1989421 -0.147378
v 0.01848782 0.1979302 -0.147378
v 0.01319005 0.1952687 -0.147378
v 0.01657573 0.193314 -0.147378
v 0.01076963 0.1921144 -0.147378
v 0.007615281 0.1896939 -0.147378
v 0.01353403 0.18935 -0.147378
v 0.00394196 0.1881724 -0.147378
v 0.009570002 0.1863083 -0.147378
v 0.004953799 0.1843962 -0.147378
v -0.004953793 0.1843962 -0.147378
v 0 0.183744 -0.147378
v 0.01471159 0.206826 -0.139722
v 0.01319005 0.2104993 -0.139722
v 0.01076963 0.2136536 -0.139722
v 0.007615281 0.216074 -0.139722
v 0.00394196 0.2175956 -0.139722
v 0 0.2181146 -0.139722
v -0.003941957 0.2175956 -0.139722
v -0.007615279 0.216074 -0.139722
v -0.01076963 0.2136536 -0.139722
v -0.01319005 0.2104993 -0.139722
v -0.01471159 0.206826 -0.139722
v -0.01523056 0.202884 -0.139722
v -0.01471159 0.1989421 -0.139722
v -0.01319005 0.1952687 -0.139722
v -0.01076963 0.1921144 -0.139722
v -0.007615279 0.1896939 -0.139722
v -0.003941957 0.1881724 -0.139722
v 0 0.1876534 -0.139722
v 0.00394196 0.1881724 -0.139722
v 0.007615281 0.1896939 -0.139722
v 0.01076963 0.1921144 -0.139722
v 0.01319005 0.1952687 -0.139722
v 0.01471159 0.1989421 -0.139722
v 0.01523056 0.202884 -0.139722
v 0.015312 0.126324 -0.009939952
v -0.015312 0.126324 -0.009939952
v -0.015312 0.11484 -0.02142395
v 0.015312 0.11484 -0.02142395
v 0.009570002 0.218196 0.135894
v -0.00957 0.218196 0.135894
v 0.009570002 0.202884 0.135894
v -0.00957 0.202884 0.135894

vn 0 -0.2544933 -0.9670745
vn 0 0.2544933 0.9670745
vn 0.7071068 0.7071068 0
vn 0.8660254 0.5 0
vn 0.9659258 0.258819 0
vn 0.9659258 -0.258819 0
vn 0.8660254 -0.5 0
vn 0.7071068 -0.7071068 0
vn 0.5 -0.8660254 0
vn 0.258819 -0.9659258 0
vn -0.258819 -0.9659258 0
vn -0.5 -0.8660254 0
vn -0.7071068 -0.7071068 0
vn -0.8660254 -0.5 0
vn -0.9659258 -0.258819 0
vn -0.9659258 0.258819 0
vn -0.8660254 0.5 0
vn -0.7071068 0.7071068 0
vn -0.5 0.8660254 0
vn -0.258819 0.9659258 0
vn 0.258819 0.9659258 0
vn 0.5 0.8660254 0
vn 0 -0.7071068 0.7071068

vt -0.3937008 29.52756
vt -5.511811 29.52756
vt 0 29.92126
vt 0 21.25984
vt -5.905512 29.92126
vt -5.905512 21.25984
vt 5.905512 -1.574803
vt 0 -1.574803
vt 21.25984 -1.574803
vt 21.25984 1.261169E-44
vt 29.92126 -1.574803
vt 29.92126 1.261169E-44
vt -5.905512 -1.574803
vt -21.25984 0
vt -21.25984 -1.574803
vt -29.92126 0
vt -29.92126 -1.574803
vt 5.905512 21.25984
vt 5.905512 29.92126
vt 0.3937008 29.52756
vt 5.511811 29.52756
vt 4.527559 5.074046
vt 1.377953 5.074046
vt 4.527559 6.295361
vt 1.377953 6.295361
vt 5.511811 9.959305
vt 5.511811 -5.510682
vt 0.3937008 -5.510682
vt 0.3937008 9.959305
vt -0.3937008 14.96063
vt -27.55906 21.65354
vt -17.71654 14.96063
vt -25.59055 14.96063
vt -21.65354 -2.477818E-16
vt -27.55906 14.96063
vt -29.52756 -2.477818E-16
vt -0.3937008 17.71654
vt -1.377953 13.74148
vt -5.511811 17.71654
vt -4.527559 13.74148
vt -4.527559 12.56038
vt -1.377953 12.56038
vt 0.3937008 27.55906
vt 5.511811 27.55906
vt 0.3937008 0.3937008
vt 5.511811 0.3937008
vt 0.3937008 14.96063
vt 3.937008 17.58657
vt 5.511811 14.96063
vt 4.344698 17.8994
vt 4.65753 18.30709
vt 4.854185 18.78185
vt 3.462242 17.38991
vt 2.952756 17.32283
vt 4.92126 19.29134
vt 4.854185 19.80083
vt 4.65753 20.27559
vt 4.344698 20.68328
vt 3.937008 20.99611
vt 3.462242 21.19277
vt 2.952756 21.25984
vt 2.443269 17.38991
vt 2.443269 21.19277
vt 1.968504 20.99611
vt 1.560813 20.68328
vt 1.247981 20.27559
vt 1.051327 19.80083
vt 0.984252 19.29134
vt 1.051327 18.78185
vt 1.247981 18.30709
vt 1.560813 17.8994
vt 1.968504 17.58657
vt 21.65354 8.732377E-16
vt 25.59055 14.96063
vt 29.52756 8.732377E-16
vt 17.71654 14.96063
vt 27.55906 21.65354
vt 27.55906 14.96063
vt -0.3937008 -7.514566
vt -5.511811 -7.514566
vt -0.3937008 7.95542
vt -5.511811 7.95542
vt -1.968504 18.11024
vt -3.937008 18.11024
vt -1.968504 20.86614
vt -3.937008 20.86614
vt -5.511811 14.96063
vt 2.952756 17.72491
vt 3.358177 17.77829
vt 3.73597 17.93477
vt 4.060387 18.18371
vt 4.309322 18.50813
vt 4.465808 18.88592
vt 4.519183 19.29134
vt 4.465808 19.69676
vt 4.309322 20.07455
vt 4.060387 20.39897
vt 3.73597 20.6479
vt 3.358177 20.80439
vt 2.952756 20.85777
vt 2.547335 20.80439
vt 2.169542 20.6479
vt 1.845125 20.39897
vt 1.59619 20.07455
vt 1.439703 19.69676
vt 1.386329 19.29134
vt 1.439703 18.88592
vt 1.59619 18.50813
vt 1.845125 18.18371
vt 2.169542 17.93477
vt 2.547335 17.77829
vt 0.3937008 17.35931
vt 0.3937008 16.84543
vt -0.3937008 17.35931
vt -0.3937008 16.84543
vt 0.3937008 19.20979
vt 0.3937008 18.6959
vt -0.3937008 19.20979
vt -0.3937008 18.6959
vt 0.3937008 19.76865
vt 0.3937008 19.25477
vt -0.3937008 19.76865
vt -0.3937008 19.25477
vt 0.3937008 18.99783
vt 0.3937008 18.48395
vt -0.3937008 18.99783
vt -0.3937008 18.48395
vt 0.3937008 16.94984
vt 0.3937008 16.43596
vt -0.3937008 16.94984
vt -0.3937008 16.43596
vt 0.3937008 13.76427
vt 0.3937008 13.25038
vt -0.3937008 13.76427
vt -0.3937008 13.25038
vt -0.3937008 9.658185
vt 0.3937008 9.658185
vt -0.3937008 9.144302
vt 0.3937008 9.144302
vt -0.3937008 4.911426
vt 0.3937008 4.911426
vt -0.3937008 4.397543
vt 0.3937008 4.397543
vt -0.3937008 -0.1525284
vt 0.3937008 -0.1525284
vt -0.3937008 -0.666411
vt 0.3937008 -0.666411
vt 0.3937008 5.188578
vt -0.3937008 5.188578
vt 0.3937008 5.702461
vt -0.3937008 5.702461
vt 0.3937008 9.853525
vt -0.3937008 9.853525
vt 0.3937008 10.36741
vt -0.3937008 10.36741
vt 0.3937008 13.82946
vt -0.3937008 13.82946
vt 0.3937008 14.34334
vt -0.3937008 14.34334
vt -0.3937008 18.74838
vt -0.3937008 19.1573
vt 0.3937008 18.74838
vt 0.3937008 19.1573
vt -0.3937008 16.89791
vt -0.3937008 17.30683
vt 0.3937008 16.89791
vt 0.3937008 17.30683
vt 0.3937008 13.88194
vt -0.3937008 13.88194
vt 0.3937008 14.29086
vt -0.3937008 14.29086
vt 0.3937008 9.906007
vt -0.3937008 9.906007
vt 0.3937008 10.31493
vt -0.3937008 10.31493
vt 0.3937008 5.24106
vt -0.3937008 5.24106
vt 0.3937008 5.64998
vt -0.3937008 5.64998
vt -0.3937008 -0.2050099
vt 0.3937008 -0.2050099
vt -0.3937008 -0.6139295
vt 0.3937008 -0.6139295
vt -0.3937008 4.858945
vt 0.3937008 4.858945
vt -0.3937008 4.450025
vt 0.3937008 4.450025
vt -0.3937008 9.605704
vt 0.3937008 9.605704
vt -0.3937008 9.196784
vt 0.3937008 9.196784
vt 0.3937008 13.71178
vt 0.3937008 13.30286
vt -0.3937008 13.71178
vt -0.3937008 13.30286
vt 0.3937008 16.89736
vt 0.3937008 16.48844
vt -0.3937008 16.89736
vt -0.3937008 16.48844
vt 0.3937008 18.94535
vt 0.3937008 18.53643
vt -0.3937008 18.94535
vt -0.3937008 18.53643
vt 0.3937008 19.71617
vt 0.3937008 19.30725
vt -0.3937008 19.71617
vt -0.3937008 19.30725
vt -1.377953 11.41732
vt -4.527559 11.41732
vt -1.377953 14.96063
vt -4.527559 14.96063
vt 4.527559 10.23622
vt 1.377953 10.23622
vt 4.527559 14.96063
vt 1.377953 14.96063
vt -1.377953 18.9598
vt -4.527559 18.9598
vt -12.56038 14.96063
vt -12.56038 10.23622
vt -13.74148 14.96063
vt -13.74148 11.41732
vt -18.9598 10.23622
vt -18.64898 11.41732
vt 12.56038 14.96063
vt 13.74148 11.41732
vt 12.56038 10.23622
vt 18.9598 10.23622
vt 18.64898 11.41732
vt 13.74148 14.96063
vt 1.377953 13.74148
vt 1.377953 18.64898
vt 4.527559 13.74148
vt 4.527559 18.64898
vt -0.3937008 27.55906
vt -0.3937008 25.59055
vt -5.511811 27.55906
vt -5.511811 25.59055
vt 1.968504 27.55906
vt 1.968504 28.74016
vt 3.937008 27.55906
vt 3.937008 28.74016
vt -1.968504 19.29134
vt -3.937008 19.29134
vt 27.55906 18.11024
vt 27.55906 20.86614
vt 28.74016 19.29134
vt 28.74016 20.86614
vt -1.968504 32.29306
vt -3.937008 32.29306
vt -1.968504 33.9634
vt -3.937008 33.9634
vt -27.55906 20.86614
vt -27.55906 18.11024
vt -28.74016 20.86614
vt -28.74016 19.29134

usemtl greyDark

f 35/62/6 34/11/6 33/61/6
f 34/11/6 35/62/6 36/44/6
f 39/65/6 38/64/6 37/63/6
f 38/64/6 39/65/6 40/66/6
f 41/27/2 38/68/2 40/67/2
f 38/68/2 41/27/2 42/26/2
f 39/71/1 41/70/1 40/69/1
f 41/70/1 39/71/1 43/72/1
f 44/26/3 39/73/3 37/68/3
f 39/73/3 44/26/3 43/51/3
f 44/76/4 38/75/4 42/74/4
f 38/75/4 44/76/4 37/77/4
f 42/64/5 34/6/5 44/63/5
f 34/6/5 42/64/5 41/78/5
f 34/6/5 41/78/5 36/56/5
f 36/56/5 41/78/5 43/79/5
f 44/63/5 33/80/5 43/79/5
f 33/80/5 44/63/5 34/6/5
f 43/79/5 33/80/5 35/81/5
f 43/79/5 35/81/5 36/56/5
f 47/84/7 46/83/7 45/82/7
f 46/83/7 47/84/7 48/85/7
f 45/82/7 49/86/7 47/84/7
f 47/84/7 49/86/7 48/85/7
f 45/82/7 36/87/7 49/86/7
f 36/87/7 45/82/7 34/88/7
f 46/83/7 34/88/7 45/82/7
f 34/88/7 46/83/7 50/89/7
f 50/89/7 46/83/7 48/85/7
f 50/89/7 48/85/7 49/86/7
f 52/91/4 51/90/4 24/11/4
f 51/90/4 52/91/4 50/92/4
f 50/92/4 52/91/4 53/93/4
f 50/92/4 53/93/4 34/94/4
f 53/93/4 52/91/4 54/95/4
f 33/96/4 34/94/4 53/93/4
f 49/99/6 55/98/6 50/97/6
f 55/98/6 49/99/6 56/100/6
f 56/100/6 49/99/6 57/101/6
f 58/102/6 50/97/6 55/98/6
f 58/102/6 51/43/6 50/97/6
f 51/43/6 58/102/6 59/48/6
f 59/48/6 58/102/6 57/101/6
f 59/48/6 57/101/6 49/99/6
f 24/105/5 60/104/5 52/103/5
f 60/104/5 24/105/5 29/106/5
f 59/109/2 61/108/2 51/107/2
f 61/108/2 59/109/2 62/110/2
f 62/110/2 59/109/2 63/111/2
f 63/111/2 59/109/2 64/112/2
f 64/112/2 59/109/2 29/56/2
f 51/107/2 61/108/2 65/113/2
f 51/107/2 65/113/2 66/114/2
f 64/112/2 29/56/2 67/115/2
f 67/115/2 29/56/2 68/116/2
f 68/116/2 29/56/2 69/117/2
f 69/117/2 29/56/2 70/118/2
f 70/118/2 29/56/2 71/119/2
f 71/119/2 29/56/2 72/120/2
f 72/120/2 29/56/2 73/121/2
f 74/122/2 51/107/2 66/114/2
f 24/6/2 73/121/2 29/56/2
f 24/6/2 75/123/2 73/121/2
f 24/6/2 76/124/2 75/123/2
f 24/6/2 77/125/2 76/124/2
f 24/6/2 78/126/2 77/125/2
f 24/6/2 79/127/2 78/126/2
f 24/6/2 80/128/2 79/127/2
f 24/6/2 81/129/2 80/128/2
f 51/107/2 81/129/2 24/6/2
f 81/129/2 51/107/2 82/130/2
f 82/130/2 51/107/2 83/131/2
f 83/131/2 51/107/2 84/132/2
f 84/132/2 51/107/2 74/122/2
f 35/135/1 85/134/1 36/133/1
f 85/134/1 49/136/1 36/133/1
f 60/137/1 49/136/1 85/134/1
f 29/6/1 49/136/1 60/137/1
f 49/136/1 29/6/1 59/107/1
f 60/137/1 85/134/1 86/138/1
f 53/141/8 35/140/8 33/139/8
f 35/140/8 53/141/8 85/142/8
f 89/145/3 88/144/3 87/143/3
f 88/144/3 89/145/3 90/146/3
f 87/143/3 52/11/3 89/145/3
f 89/145/3 52/11/3 90/146/3
f 87/143/3 54/90/3 52/11/3
f 54/90/3 87/143/3 86/147/3
f 88/144/3 86/147/3 87/143/3
f 86/147/3 88/144/3 60/44/3
f 60/44/3 88/144/3 90/146/3
f 60/44/3 90/146/3 52/11/3

usemtl grey

f 93/110/2 92/148/2 91/108/2
f 92/148/2 93/110/2 94/149/2
f 94/149/2 93/110/2 95/150/2
f 95/150/2 93/110/2 96/111/2
f 95/150/2 96/111/2 97/151/2
f 97/151/2 96/111/2 98/152/2
f 98/152/2 96/111/2 99/112/2
f 98/152/2 99/112/2 100/153/2
f 100/153/2 99/112/2 101/115/2
f 100/153/2 101/115/2 102/154/2
f 102/154/2 101/115/2 103/116/2
f 102/154/2 103/116/2 104/155/2
f 104/155/2 103/116/2 105/156/2
f 105/156/2 103/116/2 106/117/2
f 105/156/2 106/117/2 107/157/2
f 107/157/2 106/117/2 108/118/2
f 107/157/2 108/118/2 109/158/2
f 109/158/2 108/118/2 110/159/2
f 110/159/2 108/118/2 111/119/2
f 110/159/2 111/119/2 112/160/2
f 112/160/2 111/119/2 113/124/2
f 113/124/2 111/119/2 114/123/2
f 114/123/2 111/119/2 115/120/2
f 114/123/2 115/120/2 116/121/2
f 113/124/2 117/161/2 112/160/2
f 118/125/2 117/161/2 113/124/2
f 118/125/2 119/162/2 117/161/2
f 118/125/2 120/163/2 119/162/2
f 121/126/2 120/163/2 118/125/2
f 121/126/2 122/164/2 120/163/2
f 123/127/2 122/164/2 121/126/2
f 123/127/2 124/165/2 122/164/2
f 125/128/2 124/165/2 123/127/2
f 125/128/2 126/166/2 124/165/2
f 125/128/2 127/167/2 126/166/2
f 128/129/2 127/167/2 125/128/2
f 128/129/2 129/168/2 127/167/2
f 130/130/2 129/168/2 128/129/2
f 130/130/2 131/169/2 129/168/2
f 130/130/2 132/170/2 131/169/2
f 133/131/2 132/170/2 130/130/2
f 133/131/2 134/171/2 132/170/2
f 133/131/2 92/148/2 134/171/2
f 133/131/2 91/108/2 92/148/2
f 135/132/2 91/108/2 133/131/2
f 136/122/2 91/108/2 135/132/2
f 136/122/2 137/113/2 91/108/2
f 137/113/2 136/122/2 138/114/2
f 77/174/9 121/173/10 118/172/9
f 121/173/10 77/174/9 78/175/10
f 78/178/10 123/177/11 121/176/10
f 123/177/11 78/178/10 79/179/11
f 79/182/11 125/181/4 123/180/11
f 125/181/4 79/182/11 80/183/4
f 80/186/4 128/185/12 125/184/4
f 128/185/12 80/186/4 81/187/12
f 81/190/12 130/189/13 128/188/12
f 130/189/13 81/190/12 82/191/13
f 82/194/13 133/193/14 130/192/13
f 133/193/14 82/194/13 83/195/14
f 84/198/15 133/197/14 83/196/14
f 133/197/14 84/198/15 135/199/15
f 74/202/16 135/201/15 84/200/15
f 135/201/15 74/202/16 136/203/16
f 66/206/6 136/205/16 74/204/16
f 136/205/16 66/206/6 138/207/6
f 65/210/17 138/209/6 66/208/6
f 138/209/6 65/210/17 137/211/17
f 61/214/18 137/213/17 65/212/17
f 137/213/17 61/214/18 91/215/18
f 62/218/19 91/217/18 61/216/18
f 91/217/18 62/218/19 93/219/19
f 62/173/19 96/174/20 93/175/19
f 96/174/20 62/173/19 63/172/20
f 63/177/20 99/178/21 96/179/20
f 99/178/21 63/177/20 64/176/21
f 64/181/21 101/182/1 99/183/21
f 101/182/1 64/181/21 67/180/1
f 67/185/1 103/186/22 101/187/1
f 103/186/22 67/185/1 68/184/22
f 68/189/22 106/190/23 103/191/22
f 106/190/23 68/189/22 69/188/23
f 69/193/23 108/194/24 106/195/23
f 108/194/24 69/193/23 70/192/24
f 108/198/24 71/197/25 111/196/25
f 71/197/25 108/198/24 70/199/24
f 111/202/25 72/201/26 115/200/26
f 72/201/26 111/202/25 71/203/25
f 115/206/26 73/205/5 116/204/5
f 73/205/5 115/206/26 72/207/26
f 116/210/5 75/209/27 114/208/27
f 75/209/27 116/210/5 73/211/5
f 114/214/27 76/213/28 113/212/28
f 76/213/28 114/214/27 75/215/27
f 113/218/28 77/217/9 118/216/9
f 77/217/9 113/218/28 76/219/28
f 139/222/21 122/221/20 124/220/21
f 122/221/20 139/222/21 140/223/20
f 140/226/20 120/225/19 122/224/20
f 120/225/19 140/226/20 141/227/19
f 142/230/18 120/229/19 141/228/19
f 120/229/19 142/230/18 119/231/18
f 143/234/17 119/233/18 142/232/18
f 119/233/18 143/234/17 117/235/17
f 144/238/6 117/237/17 143/236/17
f 117/237/17 144/238/6 112/239/6
f 145/242/16 112/241/6 144/240/6
f 112/241/6 145/242/16 110/243/16
f 146/246/15 110/245/16 145/244/16
f 110/245/16 146/246/15 109/247/15
f 147/250/14 109/249/15 146/248/15
f 109/249/15 147/250/14 107/251/14
f 147/254/14 105/253/13 107/252/14
f 105/253/13 147/254/14 148/255/13
f 148/258/13 104/257/12 105/256/13
f 104/257/12 148/258/13 149/259/12
f 149/262/12 102/261/4 104/260/12
f 102/261/4 149/262/12 150/263/4
f 150/266/4 100/265/11 102/264/4
f 100/265/11 150/266/4 151/267/11
f 151/221/11 98/222/10 100/223/11
f 98/222/10 151/221/11 152/220/10
f 152/225/10 97/226/9 98/227/10
f 97/226/9 152/225/10 153/224/9
f 97/230/9 154/229/28 95/228/28
f 154/229/28 97/230/9 153/231/9
f 95/234/28 155/233/27 94/232/27
f 155/233/27 95/234/28 154/235/28
f 94/238/27 156/237/5 92/236/5
f 156/237/5 94/238/27 155/239/27
f 92/242/5 157/241/26 134/240/26
f 157/241/26 92/242/5 156/243/5
f 134/246/26 158/245/25 132/244/25
f 158/245/25 134/246/26 157/247/26
f 132/250/25 159/249/24 131/248/24
f 159/249/24 132/250/25 158/251/25
f 159/253/24 129/254/23 131/255/24
f 129/254/23 159/253/24 160/252/23
f 160/257/23 127/258/22 129/259/23
f 127/258/22 160/257/23 161/256/22
f 161/261/22 126/262/1 127/263/22
f 126/262/1 161/261/22 162/260/1
f 162/265/1 124/266/21 126/267/1
f 124/266/21 162/265/1 139/264/21
f 55/270/3 164/269/3 163/268/3
f 164/269/3 55/270/3 56/271/3
f 57/274/2 166/273/2 165/272/2
f 166/273/2 57/274/2 58/275/2
f 45/277/6 166/102/6 46/276/6
f 166/102/6 45/277/6 165/101/6
f 55/280/4 166/279/4 58/278/4
f 166/279/4 55/280/4 163/281/4
f 166/279/4 163/281/4 46/282/4
f 46/282/4 163/281/4 48/283/4
f 165/286/1 164/285/1 57/284/1
f 164/285/1 165/286/1 45/287/1
f 164/285/1 45/287/1 47/288/1
f 56/289/1 57/284/1 164/285/1
f 164/292/5 48/291/5 163/290/5
f 48/291/5 164/292/5 47/293/5
f 86/296/6 53/295/6 54/294/6
f 53/295/6 86/296/6 85/297/6
f 90/300/5 167/299/5 89/298/5
f 167/299/5 90/300/5 168/301/5
f 167/145/3 170/303/3 169/302/3
f 170/303/3 167/145/3 168/146/3
f 170/306/1 90/305/1 88/304/1
f 90/305/1 170/306/1 168/307/1
f 169/310/29 88/309/29 87/308/29
f 88/309/29 169/310/29 170/311/29
f 167/314/4 87/313/4 89/312/4
f 87/313/4 167/314/4 169/315/4

usemtl dark

f 155/149/2 157/171/2 156/148/2
f 157/171/2 155/149/2 154/150/2
f 157/171/2 154/150/2 158/170/2
f 158/170/2 154/150/2 159/169/2
f 159/169/2 154/150/2 153/151/2
f 159/169/2 153/151/2 152/152/2
f 159/169/2 152/152/2 160/168/2
f 160/168/2 152/152/2 151/153/2
f 160/168/2 151/153/2 161/167/2
f 161/167/2 151/153/2 162/166/2
f 162/166/2 151/153/2 150/154/2
f 162/166/2 150/154/2 149/155/2
f 162/166/2 149/155/2 139/165/2
f 139/165/2 149/155/2 140/164/2
f 140/164/2 149/155/2 148/156/2
f 140/164/2 148/156/2 147/157/2
f 140/164/2 147/157/2 141/163/2
f 141/163/2 147/157/2 146/158/2
f 141/163/2 146/158/2 142/162/2
f 142/162/2 146/158/2 143/161/2
f 143/161/2 146/158/2 145/159/2
f 143/161/2 145/159/2 144/160/2

