{
    "asset" : {
        "generator" : "Khronos glTF Blender I/O v1.5.17",
        "version" : "2.0"
    },
    "scene" : 0,
    "scenes" : [
        {
            "name" : "Scene",
            "nodes" : [
                0,
                1,
                2
            ]
        }
    ],
    "nodes" : [
        {
            "mesh" : 0,
            "name" : "Cube"
        },
        {
            "mesh" : 1,
            "name" : "Cube.001"
        },
        {
            "mesh" : 2,
            "name" : "Cube.002"
        }
    ],
    "materials" : [
        {
            "doubleSided" : true,
            "name" : "Material.002",
            "normalTexture" : {
                "index" : 0
            },
            "pbrMetallicRoughness" : {
                "baseColorTexture" : {
                    "index" : 1
                },
                "metallicRoughnessTexture" : {
                    "index" : 2
                }
            }
        },
        {
            "doubleSided" : true,
            "name" : "Material.001",
            "normalTexture" : {
                "index" : 3
            },
            "pbrMetallicRoughness" : {
                "baseColorTexture" : {
                    "index" : 4
                },
                "metallicRoughnessTexture" : {
                    "index" : 5
                }
            }
        },
        {
            "doubleSided" : true,
            "name" : "Material.003",
            "normalTexture" : {
                "index" : 6
            },
            "pbrMetallicRoughness" : {
                "baseColorTexture" : {
                    "index" : 7
                },
                "metallicRoughnessTexture" : {
                    "index" : 8
                }
            }
        }
    ],
    "meshes" : [
        {
            "name" : "Cube.002",
            "primitives" : [
                {
                    "attributes" : {
                        "POSITION" : 0,
                        "NORMAL" : 1,
                        "TEXCOORD_0" : 2
                    },
                    "indices" : 3,
                    "material" : 0
                }
            ]
        },
        {
            "name" : "Cube.003",
            "primitives" : [
                {
                    "attributes" : {
                        "POSITION" : 4,
                        "NORMAL" : 5,
                        "TEXCOORD_0" : 6
                    },
                    "indices" : 7,
                    "material" : 1
                }
            ]
        },
        {
            "name" : "Cube.004",
            "primitives" : [
                {
                    "attributes" : {
                        "POSITION" : 8,
                        "NORMAL" : 9,
                        "TEXCOORD_0" : 10
                    },
                    "indices" : 11,
                    "material" : 2
                }
            ]
        }
    ],
    "textures" : [
        {
            "sampler" : 0,
            "source" : 0
        },
        {
            "sampler" : 0,
            "source" : 1
        },
        {
            "sampler" : 0,
            "source" : 2
        },
        {
            "sampler" : 0,
            "source" : 3
        },
        {
            "sampler" : 0,
            "source" : 4
        },
        {
            "sampler" : 0,
            "source" : 5
        },
        {
            "sampler" : 0,
            "source" : 6
        },
        {
            "sampler" : 0,
            "source" : 7
        },
        {
            "sampler" : 0,
            "source" : 8
        }
    ],
    "images" : [
        {
            "bufferView" : 4,
            "mimeType" : "image/jpeg",
            "name" : "Metal015_1K_Normal"
        },
        {
            "bufferView" : 5,
            "mimeType" : "image/jpeg",
            "name" : "Metal015_1K_Color"
        },
        {
            "bufferView" : 6,
            "mimeType" : "image/png",
            "name" : "Metal015_1K_Color.jpg-Metal015_1K_Roughness.jpg"
        },
        {
            "bufferView" : 11,
            "mimeType" : "image/jpeg",
            "name" : "Metal013_1K_Normal"
        },
        {
            "bufferView" : 12,
            "mimeType" : "image/jpeg",
            "name" : "Metal013_1K_Color"
        },
        {
            "bufferView" : 13,
            "mimeType" : "image/png",
            "name" : "Metal013_1K_Color.jpg-Metal013_1K_Roughness.jpg"
        },
        {
            "bufferView" : 18,
            "mimeType" : "image/jpeg",
            "name" : "MetalWalkway011_1K_Normal"
        },
        {
            "bufferView" : 19,
            "mimeType" : "image/jpeg",
            "name" : "MetalWalkway011_1K_Color"
        },
        {
            "bufferView" : 20,
            "mimeType" : "image/png",
            "name" : "MetalWalkway011_1K_Color.jpg-MetalWalkway011_1K_Roughness.jpg"
        }
    ],
    "accessors" : [
        {
            "bufferView" : 0,
            "componentType" : 5126,
            "count" : 156,
            "max" : [
                2,
                2,
                2
            ],
            "min" : [
                -2,
                0,
                -2
            ],
            "type" : "VEC3"
        },
        {
            "bufferView" : 1,
            "componentType" : 5126,
            "count" : 156,
            "type" : "VEC3"
        },
        {
            "bufferView" : 2,
            "componentType" : 5126,
            "count" : 156,
            "type" : "VEC2"
        },
        {
            "bufferView" : 3,
            "componentType" : 5123,
            "count" : 276,
            "type" : "SCALAR"
        },
        {
            "bufferView" : 7,
            "componentType" : 5126,
            "count" : 24,
            "max" : [
                1.8845301866531372,
                1.8845301866531372,
                1.8845301866531372
            ],
            "min" : [
                -1.8845301866531372,
                0.11546981334686279,
                -1.8845301866531372
            ],
            "type" : "VEC3"
        },
        {
            "bufferView" : 8,
            "componentType" : 5126,
            "count" : 24,
            "type" : "VEC3"
        },
        {
            "bufferView" : 9,
            "componentType" : 5126,
            "count" : 24,
            "type" : "VEC2"
        },
        {
            "bufferView" : 10,
            "componentType" : 5123,
            "count" : 36,
            "type" : "SCALAR"
        },
        {
            "bufferView" : 14,
            "componentType" : 5126,
            "count" : 24,
            "max" : [
                0.6480246782302856,
                2.082294225692749,
                0.5736464262008667
            ],
            "min" : [
                -0.6480246782302856,
                -0.08229422569274902,
                -0.5736470222473145
            ],
            "type" : "VEC3"
        },
        {
            "bufferView" : 15,
            "componentType" : 5126,
            "count" : 24,
            "type" : "VEC3"
        },
        {
            "bufferView" : 16,
            "componentType" : 5126,
            "count" : 24,
            "type" : "VEC2"
        },
        {
            "bufferView" : 17,
            "componentType" : 5123,
            "count" : 36,
            "type" : "SCALAR"
        }
    ],
    "bufferViews" : [
        {
            "buffer" : 0,
            "byteLength" : 1872,
            "byteOffset" : 0
        },
        {
            "buffer" : 0,
            "byteLength" : 1872,
            "byteOffset" : 1872
        },
        {
            "buffer" : 0,
            "byteLength" : 1248,
            "byteOffset" : 3744
        },
        {
            "buffer" : 0,
            "byteLength" : 552,
            "byteOffset" : 4992
        },
        {
            "buffer" : 0,
            "byteLength" : 18933,
            "byteOffset" : 5544
        },
        {
            "buffer" : 0,
            "byteLength" : 46329,
            "byteOffset" : 24480
        },
        {
            "buffer" : 0,
            "byteLength" : 518436,
            "byteOffset" : 70812
        },
        {
            "buffer" : 0,
            "byteLength" : 288,
            "byteOffset" : 589248
        },
        {
            "buffer" : 0,
            "byteLength" : 288,
            "byteOffset" : 589536
        },
        {
            "buffer" : 0,
            "byteLength" : 192,
            "byteOffset" : 589824
        },
        {
            "buffer" : 0,
            "byteLength" : 72,
            "byteOffset" : 590016
        },
        {
            "buffer" : 0,
            "byteLength" : 26573,
            "byteOffset" : 590088
        },
        {
            "buffer" : 0,
            "byteLength" : 63497,
            "byteOffset" : 616664
        },
        {
            "buffer" : 0,
            "byteLength" : 606877,
            "byteOffset" : 680164
        },
        {
            "buffer" : 0,
            "byteLength" : 288,
            "byteOffset" : 1287044
        },
        {
            "buffer" : 0,
            "byteLength" : 288,
            "byteOffset" : 1287332
        },
        {
            "buffer" : 0,
            "byteLength" : 192,
            "byteOffset" : 1287620
        },
        {
            "buffer" : 0,
            "byteLength" : 72,
            "byteOffset" : 1287812
        },
        {
            "buffer" : 0,
            "byteLength" : 115696,
            "byteOffset" : 1287884
        },
        {
            "buffer" : 0,
            "byteLength" : 58429,
            "byteOffset" : 1403580
        },
        {
            "buffer" : 0,
            "byteLength" : 514084,
            "byteOffset" : 1462012
        }
    ],
    "samplers" : [
        {
            "magFilter" : 9729,
            "minFilter" : 9987
        }
    ],
    "buffers" : [
        {
            "byteLength" : 1976096,
            "uri" : "data:application/octet-stream;base64,"
        }
    ]
}
