{
    "asset" : {
        "generator" : "Khronos glTF Blender I/O v1.5.17",
        "version" : "2.0"
    },
    "scene" : 0,
    "scenes" : [
        {
            "name" : "Scene",
            "nodes" : [
                0,
                1
            ]
        }
    ],
    "nodes" : [
        {
            "mesh" : 0,
            "name" : "Grid",
            "scale" : [
                6.826017379760742,
                6.826017379760742,
                6.826017379760742
            ]
        },
        {
            "mesh" : 1,
            "name" : "Grid.001",
            "scale" : [
                6.939970970153809,
                6.939970970153809,
                6.939970970153809
            ]
        }
    ],
    "materials" : [
        {
            "doubleSided" : true,
            "name" : "Material.001",
            "normalTexture" : {
                "index" : 0
            },
            "pbrMetallicRoughness" : {
                "baseColorTexture" : {
                    "index" : 1
                },
                "metallicFactor" : 0,
                "metallicRoughnessTexture" : {
                    "index" : 2
                }
            }
        },
        {
            "doubleSided" : true,
            "name" : "Material.002",
            "normalTexture" : {
                "index" : 3
            },
            "pbrMetallicRoughness" : {
                "baseColorTexture" : {
                    "index" : 4
                },
                "metallicFactor" : 0,
                "metallicRoughnessTexture" : {
                    "index" : 5
                }
            }
        }
    ],
    "meshes" : [
        {
            "name" : "Grid",
            "primitives" : [
                {
                    "attributes" : {
                        "POSITION" : 0,
                        "NORMAL" : 1,
                        "TEXCOORD_0" : 2
                    },
                    "indices" : 3,
                    "material" : 0
                }
            ]
        },
        {
            "name" : "Grid.001",
            "primitives" : [
                {
                    "attributes" : {
                        "POSITION" : 4,
                        "NORMAL" : 5,
                        "TEXCOORD_0" : 6
                    },
                    "indices" : 7,
                    "material" : 1
                }
            ]
        }
    ],
    "textures" : [
        {
            "sampler" : 0,
            "source" : 0
        },
        {
            "sampler" : 0,
            "source" : 1
        },
        {
            "sampler" : 0,
            "source" : 2
        },
        {
            "sampler" : 0,
            "source" : 3
        },
        {
            "sampler" : 0,
            "source" : 4
        },
        {
            "sampler" : 0,
            "source" : 5
        }
    ],
    "images" : [
        {
            "bufferView" : 4,
            "mimeType" : "image/jpeg",
            "name" : "Ground037_1K_Normal"
        },
        {
            "bufferView" : 5,
            "mimeType" : "image/jpeg",
            "name" : "Ground037_1K_Color"
        },
        {
            "bufferView" : 6,
            "mimeType" : "image/png",
            "name" : "Ground037_1K_Roughness"
        },
        {
            "bufferView" : 11,
            "mimeType" : "image/jpeg",
            "name" : "Grass004_1K_Normal"
        },
        {
            "bufferView" : 12,
            "mimeType" : "image/jpeg",
            "name" : "Grass004_1K_Color"
        },
        {
            "bufferView" : 13,
            "mimeType" : "image/png",
            "name" : "Grass004_1K_Roughness"
        }
    ],
    "accessors" : [
        {
            "bufferView" : 0,
            "componentType" : 5126,
            "count" : 324,
            "max" : [
                1.0267287492752075,
                0.16945478320121765,
                0.9874244928359985
            ],
            "min" : [
                -1.0238008499145508,
                0.014488854445517063,
                -1.0610326528549194
            ],
            "type" : "VEC3"
        },
        {
            "bufferView" : 1,
            "componentType" : 5126,
            "count" : 324,
            "type" : "VEC3"
        },
        {
            "bufferView" : 2,
            "componentType" : 5126,
            "count" : 324,
            "type" : "VEC2"
        },
        {
            "bufferView" : 3,
            "componentType" : 5123,
            "count" : 486,
            "type" : "SCALAR"
        },
        {
            "bufferView" : 7,
            "componentType" : 5126,
            "count" : 234,
            "max" : [
                1.0471229553222656,
                0.3447532653808594,
                0.7979415655136108
            ],
            "min" : [
                -1.015082597732544,
                0.0014273994602262974,
                -1.0498379468917847
            ],
            "type" : "VEC3"
        },
        {
            "bufferView" : 8,
            "componentType" : 5126,
            "count" : 234,
            "type" : "VEC3"
        },
        {
            "bufferView" : 9,
            "componentType" : 5126,
            "count" : 234,
            "type" : "VEC2"
        },
        {
            "bufferView" : 10,
            "componentType" : 5123,
            "count" : 342,
            "type" : "SCALAR"
        }
    ],
    "bufferViews" : [
        {
            "buffer" : 0,
            "byteLength" : 3888,
            "byteOffset" : 0
        },
        {
            "buffer" : 0,
            "byteLength" : 3888,
            "byteOffset" : 3888
        },
        {
            "buffer" : 0,
            "byteLength" : 2592,
            "byteOffset" : 7776
        },
        {
            "buffer" : 0,
            "byteLength" : 972,
            "byteOffset" : 10368
        },
        {
            "buffer" : 0,
            "byteLength" : 56849,
            "byteOffset" : 11340
        },
        {
            "buffer" : 0,
            "byteLength" : 77785,
            "byteOffset" : 68192
        },
        {
            "buffer" : 0,
            "byteLength" : 174917,
            "byteOffset" : 145980
        },
        {
            "buffer" : 0,
            "byteLength" : 2808,
            "byteOffset" : 320900
        },
        {
            "buffer" : 0,
            "byteLength" : 2808,
            "byteOffset" : 323708
        },
        {
            "buffer" : 0,
            "byteLength" : 1872,
            "byteOffset" : 326516
        },
        {
            "buffer" : 0,
            "byteLength" : 684,
            "byteOffset" : 328388
        },
        {
            "buffer" : 0,
            "byteLength" : 63298,
            "byteOffset" : 329072
        },
        {
            "buffer" : 0,
            "byteLength" : 86933,
            "byteOffset" : 392372
        },
        {
            "buffer" : 0,
            "byteLength" : 365435,
            "byteOffset" : 479308
        }
    ],
    "samplers" : [
        {
            "magFilter" : 9729,
            "minFilter" : 9987
        }
    ],
    "buffers" : [
        {
            "byteLength" : 844744,
            "uri" : "data:application/octet-stream;base64,"
        }
    ]
}
