{
    "asset" : {
        "generator" : "Khronos glTF Blender I/O v1.5.17",
        "version" : "2.0"
    },
    "scene" : 0,
    "scenes" : [
        {
            "name" : "Scene",
            "nodes" : [
                0,
                1,
                2
            ]
        }
    ],
    "nodes" : [
        {
            "mesh" : 0,
            "name" : "Cube"
        },
        {
            "mesh" : 1,
            "name" : "Cube.001"
        },
        {
            "mesh" : 2,
            "name" : "Cube.002"
        }
    ],
    "materials" : [
        {
            "doubleSided" : true,
            "name" : "Material",
            "normalTexture" : {
                "index" : 0
            },
            "pbrMetallicRoughness" : {
                "baseColorTexture" : {
                    "index" : 1
                },
                "metallicRoughnessTexture" : {
                    "index" : 2
                }
            }
        },
        {
            "doubleSided" : true,
            "name" : "Material.001",
            "normalTexture" : {
                "index" : 3
            },
            "pbrMetallicRoughness" : {
                "baseColorTexture" : {
                    "index" : 4
                },
                "metallicRoughnessTexture" : {
                    "index" : 5
                }
            }
        },
        {
            "doubleSided" : true,
            "name" : "Material.003",
            "normalTexture" : {
                "index" : 6
            },
            "pbrMetallicRoughness" : {
                "baseColorTexture" : {
                    "index" : 7
                },
                "metallicRoughnessTexture" : {
                    "index" : 8
                }
            }
        }
    ],
    "meshes" : [
        {
            "name" : "Cube",
            "primitives" : [
                {
                    "attributes" : {
                        "POSITION" : 0,
                        "NORMAL" : 1,
                        "TEXCOORD_0" : 2
                    },
                    "indices" : 3,
                    "material" : 0
                }
            ]
        },
        {
            "name" : "Cube.001",
            "primitives" : [
                {
                    "attributes" : {
                        "POSITION" : 4,
                        "NORMAL" : 5,
                        "TEXCOORD_0" : 6
                    },
                    "indices" : 7,
                    "material" : 1
                }
            ]
        },
        {
            "name" : "Cube.002",
            "primitives" : [
                {
                    "attributes" : {
                        "POSITION" : 8,
                        "NORMAL" : 9,
                        "TEXCOORD_0" : 10
                    },
                    "indices" : 11,
                    "material" : 2
                }
            ]
        }
    ],
    "textures" : [
        {
            "sampler" : 0,
            "source" : 0
        },
        {
            "sampler" : 0,
            "source" : 1
        },
        {
            "sampler" : 0,
            "source" : 2
        },
        {
            "sampler" : 0,
            "source" : 3
        },
        {
            "sampler" : 0,
            "source" : 4
        },
        {
            "sampler" : 0,
            "source" : 5
        },
        {
            "sampler" : 1,
            "source" : 6
        },
        {
            "sampler" : 1,
            "source" : 7
        },
        {
            "sampler" : 1,
            "source" : 8
        }
    ],
    "images" : [
        {
            "bufferView" : 4,
            "mimeType" : "image/jpeg",
            "name" : "Metal020_1K_Normal"
        },
        {
            "bufferView" : 5,
            "mimeType" : "image/jpeg",
            "name" : "Metal020_1K_Color"
        },
        {
            "bufferView" : 6,
            "mimeType" : "image/png",
            "name" : "Metal020_1K_Color.jpg-Metal020_1K_Roughness"
        },
        {
            "bufferView" : 11,
            "mimeType" : "image/jpeg",
            "name" : "PaintedMetal014_1K_Normal"
        },
        {
            "bufferView" : 12,
            "mimeType" : "image/jpeg",
            "name" : "PaintedMetal014_1K_Color"
        },
        {
            "bufferView" : 13,
            "mimeType" : "image/png",
            "name" : "PaintedMetal014_1K_AmbientOcclusion-PaintedMetal014_1K_Roughness"
        },
        {
            "bufferView" : 18,
            "mimeType" : "image/jpeg",
            "name" : "MetalPlates002_1K_Normal"
        },
        {
            "bufferView" : 19,
            "mimeType" : "image/jpeg",
            "name" : "MetalPlates002_1K_Color"
        },
        {
            "bufferView" : 20,
            "mimeType" : "image/png",
            "name" : "MetalPlates002_1K_Color.jpg-MetalPlates002_1K_Roughness"
        }
    ],
    "accessors" : [
        {
            "bufferView" : 0,
            "componentType" : 5126,
            "count" : 264,
            "max" : [
                1,
                5.292068004608154,
                1
            ],
            "min" : [
                -1,
                -0.10000002384185791,
                -1
            ],
            "type" : "VEC3"
        },
        {
            "bufferView" : 1,
            "componentType" : 5126,
            "count" : 264,
            "type" : "VEC3"
        },
        {
            "bufferView" : 2,
            "componentType" : 5126,
            "count" : 264,
            "type" : "VEC2"
        },
        {
            "bufferView" : 3,
            "componentType" : 5123,
            "count" : 444,
            "type" : "SCALAR"
        },
        {
            "bufferView" : 7,
            "componentType" : 5126,
            "count" : 40,
            "max" : [
                0.515864372253418,
                2.1639490127563477,
                -0.5746133923530579
            ],
            "min" : [
                -0.515864372253418,
                1.4360511302947998,
                -1.2253868579864502
            ],
            "type" : "VEC3"
        },
        {
            "bufferView" : 8,
            "componentType" : 5126,
            "count" : 40,
            "type" : "VEC3"
        },
        {
            "bufferView" : 9,
            "componentType" : 5126,
            "count" : 40,
            "type" : "VEC2"
        },
        {
            "bufferView" : 10,
            "componentType" : 5123,
            "count" : 60,
            "type" : "SCALAR"
        },
        {
            "bufferView" : 14,
            "componentType" : 5126,
            "count" : 40,
            "max" : [
                -0.6746132373809814,
                2.1081645488739014,
                0.5497869253158569
            ],
            "min" : [
                -1.3253867626190186,
                1.4918354749679565,
                -0.5497870445251465
            ],
            "type" : "VEC3"
        },
        {
            "bufferView" : 15,
            "componentType" : 5126,
            "count" : 40,
            "type" : "VEC3"
        },
        {
            "bufferView" : 16,
            "componentType" : 5126,
            "count" : 40,
            "type" : "VEC2"
        },
        {
            "bufferView" : 17,
            "componentType" : 5123,
            "count" : 60,
            "type" : "SCALAR"
        }
    ],
    "bufferViews" : [
        {
            "buffer" : 0,
            "byteLength" : 3168,
            "byteOffset" : 0
        },
        {
            "buffer" : 0,
            "byteLength" : 3168,
            "byteOffset" : 3168
        },
        {
            "buffer" : 0,
            "byteLength" : 2112,
            "byteOffset" : 6336
        },
        {
            "buffer" : 0,
            "byteLength" : 888,
            "byteOffset" : 8448
        },
        {
            "buffer" : 0,
            "byteLength" : 17799,
            "byteOffset" : 9336
        },
        {
            "buffer" : 0,
            "byteLength" : 84065,
            "byteOffset" : 27136
        },
        {
            "buffer" : 0,
            "byteLength" : 778475,
            "byteOffset" : 111204
        },
        {
            "buffer" : 0,
            "byteLength" : 480,
            "byteOffset" : 889680
        },
        {
            "buffer" : 0,
            "byteLength" : 480,
            "byteOffset" : 890160
        },
        {
            "buffer" : 0,
            "byteLength" : 320,
            "byteOffset" : 890640
        },
        {
            "buffer" : 0,
            "byteLength" : 120,
            "byteOffset" : 890960
        },
        {
            "buffer" : 0,
            "byteLength" : 49803,
            "byteOffset" : 891080
        },
        {
            "buffer" : 0,
            "byteLength" : 93812,
            "byteOffset" : 940884
        },
        {
            "buffer" : 0,
            "byteLength" : 663822,
            "byteOffset" : 1034696
        },
        {
            "buffer" : 0,
            "byteLength" : 480,
            "byteOffset" : 1698520
        },
        {
            "buffer" : 0,
            "byteLength" : 480,
            "byteOffset" : 1699000
        },
        {
            "buffer" : 0,
            "byteLength" : 320,
            "byteOffset" : 1699480
        },
        {
            "buffer" : 0,
            "byteLength" : 120,
            "byteOffset" : 1699800
        },
        {
            "buffer" : 0,
            "byteLength" : 23798,
            "byteOffset" : 1699920
        },
        {
            "buffer" : 0,
            "byteLength" : 39081,
            "byteOffset" : 1723720
        },
        {
            "buffer" : 0,
            "byteLength" : 317230,
            "byteOffset" : 1762804
        }
    ],
    "samplers" : [
        {
            "magFilter" : 9728,
            "minFilter" : 9984
        },
        {
            "magFilter" : 9729,
            "minFilter" : 9987
        }
    ],
    "buffers" : [
        {
            "byteLength" : 2080036,
            "uri" : "data:application/octet-stream;base64,"
        }
    ]
}
