# Created by Kenney (www.kenney.nl)

mtllib grenadeFlash.mtl

g grenadeFlash

v 0.03828 0.022968 -0.01118689
v 0.01914 0.022968 0.02196456
v 0.01914 0.022968 -0.04433835
v -0.01914 0.022968 -0.04433835
v -0.01914 0.022968 0.02196456
v -0.03828 0.022968 -0.01118689
v -0.01914 0 -0.04433835
v 0.01914 0 -0.04433835
v 0.01914 0 0.02196456
v -0.01914 0 0.02196456
v 0.03828 0.137808 -0.01118689
v 0.02830806 0.130152 -0.01118689
v 0.01914 0.137808 0.02196456
v 0.01415403 0.130152 0.01332861
v 0.01914 0.137808 -0.04433835
v 0.01415403 0.130152 -0.03570239
v 0.03828 0 -0.01118689
v -0.03828 0 -0.01118689
v 0.01914 0.160776 -0.01118689
v 0.01848782 0.160776 -0.01614069
v 0.01914 0.160776 -0.04433835
v 0.01657573 0.160776 -0.02075689
v 0.01353403 0.160776 -0.02472092
v 0.009570001 0.160776 -0.02776262
v -0.01914 0.160776 -0.04433835
v 0.004953797 0.160776 -0.02967472
v -6.908693E-17 0.160776 -0.03032689
v -0.004953797 0.160776 -0.02967472
v -0.009570001 0.160776 -0.02776262
v -0.01353403 0.160776 -0.02472092
v -0.01657573 0.160776 -0.02075689
v -0.01848782 0.160776 -0.01614069
v -0.01914 0.160776 -0.01118689
v -0.03828 0.160776 -0.01118689
v 0.01914 0.160776 0.02196456
v 0.03828 0.160776 -0.01118689
v -0.01914 0.160776 0.02196456
v 0.009570001 0.160776 0.005388833
v 0.01353403 0.160776 0.00234713
v 0.01657573 0.160776 -0.001616893
v 0.01848782 0.160776 -0.006233097
v 0.004953797 0.160776 0.007300927
v -6.908693E-17 0.160776 0.007953106
v -0.004953797 0.160776 0.007300927
v -0.009570001 0.160776 0.005388833
v -0.01353403 0.160776 0.00234713
v -0.01657573 0.160776 -0.001616893
v -0.01848782 0.160776 -0.006233097
v -0.01415403 0.130152 0.01332861
v -0.02830806 0.130152 -0.01118689
v -0.01914 0.137808 0.02196456
v -0.03828 0.137808 -0.01118689
v -0.01914 0.137808 -0.04433835
v -0.01415403 0.130152 -0.03570239
v 0.02830806 0.030624 -0.01118689
v 0.01415403 0.030624 -0.03570239
v 0.01415403 0.030624 0.01332861
v -0.01415403 0.030624 0.01332861
v -0.02830806 0.030624 -0.01118689
v -0.01415403 0.030624 -0.03570239
v 0.01848782 0.164604 -0.006233097
v 0.01657573 0.164604 -0.001616893
v 0.004953797 0.164604 -0.02967472
v 0.009570001 0.164604 -0.02776262
v -0.01657573 0.164604 -0.02075689
v -0.01848782 0.164604 -0.01614069
v -0.004953797 0.164604 0.007300927
v -6.908693E-17 0.164604 0.007953106
v 0.01848782 0.164604 -0.01614069
v 0.01914 0.164604 -0.01118689
v 0.01353403 0.164604 -0.02472092
v -0.01914 0.164604 -0.01118689
v -0.01657573 0.164604 -0.001616893
v -0.01353403 0.164604 0.00234713
v 0.004953797 0.164604 0.007300927
v 0.009570001 0.164604 0.005388833
v 0.01353403 0.164604 0.00234713
v 0.01657573 0.164604 -0.02075689
v -0.009570001 0.164604 -0.02776262
v -0.004953797 0.164604 -0.02967472
v -0.01848782 0.164604 -0.006233097
v -0.009570001 0.164604 0.005388833
v -6.908693E-17 0.164604 -0.03032689
v -0.01353403 0.164604 -0.02472092

vn 0 0.3828 0
vn 0 0 -0.3828
vn 0 0 0.3828
vn 0.2199187 -0.2864441 0.1269701
vn 0.2199187 -0.2864441 -0.1269701
vn 0 -0.3828 0
vn 0.3315146 0 -0.1914
vn -0.2199187 -0.2864441 0.1269701
vn 0.3315146 0 0.1914
vn -0.3315146 0 0.1914
vn -0.3315146 0 -0.1914
vn -0.2199187 -0.2864441 -0.1269701
vn 0.2199187 0.2864441 -0.1269701
vn 0 -0.2864441 -0.2539402
vn 0.2199187 0.2864441 0.1269701
vn -0.2199187 0.2864441 0.1269701
vn 0 0.2864441 0.2539402
vn -0.2199187 0.2864441 -0.1269701
vn 0 -0.2864441 0.2539402
vn 0 0.2864441 -0.2539402
vn 0.3697564 0 0.09907594
vn 0.09907594 0 -0.3697564
vn 0.1914 0 -0.3315146
vn -0.3697564 0 -0.09907594
vn -0.09907594 0 0.3697564
vn 0.3697564 0 -0.09907594
vn 0.3828 0 0
vn 0.2706805 0 -0.2706805
vn -0.3828 0 0
vn -0.2706805 0 0.2706805
vn 0.09907594 0 0.3697564
vn 0.1914 0 0.3315146
vn 0.2706805 0 0.2706805
vn -0.1914 0 -0.3315146
vn -0.09907594 0 -0.3697564
vn -0.3697564 0 0.09907594
vn -0.1914 0 0.3315146
vn -0.2706805 0 -0.2706805

vt -3.937008 -1.150546
vt -1.968504 2.259003
vt -1.968504 -4.560094
vt 1.968504 -4.560094
vt 1.968504 2.259003
vt 3.937008 -1.150546
vt 1.968504 0
vt -1.968504 0
vt 1.968504 2.362205
vt -1.968504 2.362205
vt 2.964906 11.52303
vt 2.452111 10.33606
vt -0.9721022 11.52303
vt -0.4593069 10.33606
vt -0.9721022 12.38396
vt 2.964906 12.38396
vt -0.4593069 11.197
vt 2.452111 11.197
vt -1.968504 -1.150546
vt -1.901429 -1.660032
vt -1.704774 -2.134798
vt -1.391943 -2.542488
vt -0.984252 -2.85532
vt -0.5094863 -3.051975
vt -7.247536E-14 -3.11905
vt 0.5094863 -3.051975
vt 0.984252 -2.85532
vt 1.391943 -2.542488
vt 1.704774 -2.134798
vt 1.901429 -1.660032
vt 1.968504 -1.150546
vt -0.984252 0.5542288
vt -1.391943 0.2413968
vt -1.704774 -0.1662937
vt -1.901429 -0.6410593
vt -0.5094863 0.7508832
vt -7.247536E-14 0.8179583
vt 0.5094863 0.7508832
vt 0.984252 0.5542288
vt 1.391943 0.2413968
vt 1.704774 -0.1662937
vt 1.901429 -0.6410593
vt 2.964906 16.53543
vt 2.964906 14.17323
vt -0.9721022 16.53543
vt -0.9721022 14.17323
vt 0.4593069 10.33606
vt -2.452111 10.33606
vt 0.9721022 11.52303
vt -2.964906 11.52303
vt 2.964906 2.362205
vt 2.964906 0
vt -0.9721022 2.362205
vt -0.9721022 0
vt -1.968504 14.17323
vt -1.968504 16.53543
vt 1.968504 14.17323
vt 1.968504 16.53543
vt -2.964906 0
vt -2.964906 2.362205
vt 0.9721022 0
vt 0.9721022 2.362205
vt -2.964906 14.17323
vt -2.964906 16.53543
vt 0.9721022 14.17323
vt 0.9721022 16.53543
vt -2.452111 11.197
vt -2.964906 12.38396
vt 0.4593069 11.197
vt 0.9721022 12.38396
vt -0.9721022 -1.414759
vt -0.4593069 -0.2277973
vt 2.964906 -1.414759
vt 2.452111 -0.2277973
vt -1.968504 12.81443
vt 1.968504 12.81443
vt -1.455709 11.62747
vt 1.455709 11.62747
vt 2.964906 -0.5538213
vt -0.9721022 -0.5538213
vt 2.452111 0.6331404
vt -0.4593069 0.6331404
vt 0.4593069 0.6331404
vt 0.9721022 -0.5538213
vt -2.452111 0.6331404
vt -2.964906 -0.5538213
vt 1.968504 -0.1233524
vt -1.968504 -0.1233524
vt 1.455709 1.063609
vt -1.455709 1.063609
vt -2.452111 -0.2277973
vt 0.4593069 -0.2277973
vt -2.964906 -1.414759
vt 0.9721022 -1.414759
vt 1.968504 11.09256
vt 1.455709 9.905595
vt -1.968504 11.09256
vt -1.455709 9.905595
vt -2.911417 -1.150546
vt -1.455709 1.370816
vt -1.455709 -3.671907
vt 1.455709 -3.671907
vt 1.455709 1.370816
vt 2.911417 -1.150546
vt -1.968504 -1.845228
vt -1.455709 -0.6582662
vt 1.968504 -1.845228
vt 1.455709 -0.6582662
vt 1.319907 16.92913
vt 1.319907 16.53543
vt 0.8060243 16.92913
vt 0.8060243 16.53543
vt 0.6972361 16.53543
vt 0.1833534 16.53543
vt 0.6972361 16.92913
vt 0.1833534 16.92913
vt -1.319907 16.53543
vt -1.319907 16.92913
vt -0.8060243 16.53543
vt -0.8060243 16.92913
vt -0.4071177 16.53543
vt -0.4071177 16.92913
vt 0.106765 16.53543
vt 0.106765 16.92913
vt 1.397644 16.92913
vt 1.397644 16.53543
vt 0.8837612 16.92913
vt 0.8837612 16.53543
vt 0.9573491 16.53543
vt 0.4434665 16.53543
vt 0.9573491 16.92913
vt 0.4434665 16.92913
vt -1.397644 16.53543
vt -1.397644 16.92913
vt -0.8837612 16.53543
vt -0.8837612 16.92913
vt -1.169731 16.53543
vt -1.169731 16.92913
vt -0.6558479 16.53543
vt -0.6558479 16.92913
vt 0.4071177 16.53543
vt -0.106765 16.53543
vt 0.4071177 16.92913
vt -0.106765 16.92913
vt 1.169731 16.92913
vt 1.169731 16.53543
vt 0.6558479 16.92913
vt 0.6558479 16.53543
vt -0.1833534 16.53543
vt -0.6972361 16.53543
vt -0.1833534 16.92913
vt -0.6972361 16.92913
vt -0.9573491 16.53543
vt -0.9573491 16.92913
vt -0.4434665 16.53543
vt -0.4434665 16.92913
vt -6.498126E-14 -3.11905
vt -6.498126E-14 0.8179583
vt 2.452111 3.149606
vt -0.4593069 3.149606
vt 2.452111 13.38583
vt -0.4593069 13.38583
vt -2.452111 3.149606
vt -2.452111 13.38583
vt 0.4593069 3.149606
vt 0.4593069 13.38583
vt 1.455709 3.149606
vt -1.455709 3.149606
vt 1.455709 13.38583
vt -1.455709 13.38583

usemtl green

f 3/3/1 2/2/1 1/1/1
f 2/2/1 3/3/1 4/4/1
f 2/2/1 4/4/1 5/5/1
f 5/5/1 4/4/1 6/6/1
f 4/9/2 8/8/2 7/7/2
f 8/8/2 4/9/2 3/10/2
f 2/9/3 10/8/3 9/7/3
f 10/8/3 2/9/3 5/10/3
f 13/13/4 12/12/4 11/11/4
f 12/12/4 13/13/4 14/14/4
f 12/17/5 15/16/5 11/15/5
f 15/16/5 12/17/5 16/18/5
f 9/5/6 8/4/6 17/6/6
f 8/4/6 9/5/6 7/3/6
f 7/3/6 9/5/6 10/2/6
f 7/3/6 10/2/6 18/1/6
f 21/3/1 20/20/1 19/19/1
f 20/20/1 21/3/1 22/21/1
f 22/21/1 21/3/1 23/22/1
f 23/22/1 21/3/1 24/23/1
f 24/23/1 21/3/1 25/4/1
f 24/23/1 25/4/1 26/24/1
f 26/24/1 25/4/1 27/25/1
f 27/25/1 25/4/1 28/26/1
f 28/26/1 25/4/1 29/27/1
f 29/27/1 25/4/1 30/28/1
f 30/28/1 25/4/1 31/29/1
f 31/29/1 25/4/1 32/30/1
f 32/30/1 25/4/1 33/31/1
f 33/31/1 25/4/1 34/6/1
f 35/2/1 21/3/1 19/19/1
f 21/3/1 35/2/1 36/1/1
f 37/5/1 33/31/1 34/6/1
f 35/2/1 38/32/1 37/5/1
f 35/2/1 39/33/1 38/32/1
f 35/2/1 40/34/1 39/33/1
f 35/2/1 41/35/1 40/34/1
f 35/2/1 19/19/1 41/35/1
f 37/5/1 38/32/1 42/36/1
f 37/5/1 42/36/1 43/37/1
f 37/5/1 43/37/1 44/38/1
f 37/5/1 44/38/1 45/39/1
f 37/5/1 45/39/1 46/40/1
f 37/5/1 46/40/1 47/41/1
f 37/5/1 47/41/1 48/42/1
f 37/5/1 48/42/1 33/31/1
f 36/45/7 15/44/7 21/43/7
f 15/44/7 36/45/7 11/46/7
f 51/49/8 50/48/8 49/47/8
f 50/48/8 51/49/8 52/50/8
f 2/53/9 17/52/9 1/51/9
f 17/52/9 2/53/9 9/54/9
f 1/53/7 8/52/7 3/51/7
f 8/52/7 1/53/7 17/54/7
f 13/5/6 15/4/6 11/6/6
f 15/4/6 13/5/6 51/2/6
f 15/4/6 51/2/6 53/3/6
f 53/3/6 51/2/6 52/1/6
f 53/57/2 21/56/2 15/55/2
f 21/56/2 53/57/2 25/58/2
f 10/61/10 6/60/10 18/59/10
f 6/60/10 10/61/10 5/62/10
f 35/45/9 11/44/9 36/43/9
f 11/44/9 35/45/9 13/46/9
f 51/65/10 34/64/10 52/63/10
f 34/64/10 51/65/10 37/66/10
f 52/65/11 25/64/11 53/63/11
f 25/64/11 52/65/11 34/66/11
f 35/58/3 51/55/3 13/57/3
f 51/55/3 35/58/3 37/56/3
f 50/69/12 53/68/12 54/67/12
f 53/68/12 50/69/12 52/70/12
f 18/61/11 4/60/11 7/59/11
f 4/60/11 18/61/11 6/62/11
f 3/73/13 55/72/13 1/71/13
f 55/72/13 3/73/13 56/74/13
f 16/77/14 53/76/14 15/75/14
f 53/76/14 16/77/14 54/78/14
f 55/81/15 2/80/15 1/79/15
f 2/80/15 55/81/15 57/82/15
f 59/85/16 5/84/16 58/83/16
f 5/84/16 59/85/16 6/86/16
f 57/89/17 5/88/17 2/87/17
f 5/88/17 57/89/17 58/90/17
f 4/93/18 59/92/18 60/91/18
f 59/92/18 4/93/18 6/94/18
f 51/97/19 14/96/19 13/95/19
f 14/96/19 51/97/19 49/98/19
f 16/101/1 14/100/1 12/99/1
f 14/100/1 16/101/1 54/102/1
f 14/100/1 54/102/1 49/103/1
f 49/103/1 54/102/1 50/104/1
f 4/107/20 56/106/20 3/105/20
f 56/106/20 4/107/20 60/108/20

usemtl dark

f 62/111/9 41/110/21 61/109/21
f 41/110/21 62/111/9 40/112/9
f 63/115/22 24/114/23 26/113/22
f 24/114/23 63/115/22 64/116/23
f 32/119/24 65/118/11 31/117/11
f 65/118/11 32/119/24 66/120/24
f 43/123/3 67/122/25 44/121/25
f 67/122/25 43/123/3 68/124/3
f 70/127/27 20/126/26 69/125/26
f 20/126/26 70/127/27 19/128/27
f 64/131/23 23/130/28 24/129/23
f 23/130/28 64/131/23 71/132/28
f 33/135/29 66/134/24 32/133/24
f 66/134/24 33/135/29 72/136/29
f 46/139/30 73/138/10 47/137/10
f 73/138/10 46/139/30 74/140/30
f 75/143/31 43/142/3 42/141/31
f 43/142/3 75/143/31 68/144/3
f 76/115/32 42/114/31 38/113/32
f 42/114/31 76/115/32 75/116/31
f 39/129/33 76/132/32 38/130/32
f 76/132/32 39/129/33 77/131/33
f 77/147/33 40/146/9 62/145/9
f 40/146/9 77/147/33 39/148/33
f 78/147/7 23/146/28 71/145/28
f 23/146/28 78/147/7 22/148/7
f 79/151/34 28/150/35 29/149/34
f 28/150/35 79/151/34 80/152/35
f 48/135/36 72/134/29 33/133/29
f 72/134/29 48/135/36 81/136/36
f 45/155/37 74/154/30 46/153/30
f 74/154/30 45/155/37 82/156/37
f 67/151/25 45/150/37 44/149/25
f 45/150/37 67/151/25 82/152/37
f 69/20/1 61/35/1 70/19/1
f 61/35/1 69/20/1 78/21/1
f 61/35/1 78/21/1 62/34/1
f 62/34/1 78/21/1 71/22/1
f 62/34/1 71/22/1 77/33/1
f 77/33/1 71/22/1 76/32/1
f 76/32/1 71/22/1 64/23/1
f 76/32/1 64/23/1 63/24/1
f 76/32/1 63/24/1 75/36/1
f 75/36/1 63/24/1 83/157/1
f 75/36/1 83/157/1 68/158/1
f 68/158/1 83/157/1 80/26/1
f 68/158/1 80/26/1 67/38/1
f 67/38/1 80/26/1 79/27/1
f 67/38/1 79/27/1 82/39/1
f 82/39/1 79/27/1 84/28/1
f 82/39/1 84/28/1 74/40/1
f 74/40/1 84/28/1 73/41/1
f 73/41/1 84/28/1 65/29/1
f 73/41/1 65/29/1 66/30/1
f 73/41/1 66/30/1 81/42/1
f 81/42/1 66/30/1 72/31/1
f 83/143/2 26/142/22 27/141/2
f 26/142/22 83/143/2 63/144/22
f 80/124/35 27/121/2 28/123/35
f 27/121/2 80/124/35 83/122/2
f 31/139/11 84/138/38 30/137/38
f 84/138/38 31/139/11 65/140/11
f 47/119/10 81/118/36 48/117/36
f 81/118/36 47/119/10 73/120/10
f 69/111/26 22/110/7 78/109/7
f 22/110/7 69/111/26 20/112/26
f 61/127/21 19/126/27 70/125/27
f 19/126/27 61/127/21 41/128/21
f 84/156/38 29/153/34 30/155/38
f 29/153/34 84/156/38 79/154/34
f 16/161/7 55/160/7 56/159/7
f 55/160/7 16/161/7 12/162/7
f 12/161/9 57/160/9 55/159/9
f 57/160/9 12/161/9 14/162/9
f 58/165/10 50/164/10 59/163/10
f 50/164/10 58/165/10 49/166/10
f 14/169/3 58/168/3 57/167/3
f 58/168/3 14/169/3 49/170/3
f 54/169/2 56/168/2 60/167/2
f 56/168/2 54/169/2 16/170/2
f 59/165/11 54/164/11 60/163/11
f 54/164/11 59/165/11 50/166/11

g grip

v -0.01724524 0.164604 -0.02843213
v -0.01724524 0.195228 -0.02843213
v -0.01724524 0.164604 0.02902635
v -0.01724524 0.195228 0.006058348
v -0.01724524 0.1716781 0.02519835
v -0.01724524 0.1716781 0.03668234
v -0.01724524 0.088044 0.03668234
v -0.01724524 0.088044 0.04433835
v 0.01724524 0.195228 -0.02843213
v 0.01724524 0.195228 0.006058348
v 0.01724524 0.164604 -0.02843213
v 0.01724524 0.164604 0.02902635
v 0.01724524 0.1716781 0.02519835
v 0.01724524 0.1716781 0.03668234
v 0.01724524 0.088044 0.03668234
v 0.01724524 0.088044 0.04433835

vn -1 0 0
vn 0 1 0
vn 1 0 0
vn 0 0 -1
vn 0 0.6307065 0.7760215
vn 0 0.09116041 0.9958363
vn 0 -1 0
vn 0 -0.09950371 -0.9950371

vt 0 0
vt 0 3.149606
vt 5.909469 0
vt 3.547265 3.149606
vt 5.515769 0.7275584
vt 6.696871 0.7275584
vt 6.696871 -7.874016
vt 7.484272 -7.874016
vt 0 3.547265
vt 3.547265 0
vt 3.547265 3.547265
vt -3.547265 3.149606
vt -5.909469 0
vt -5.515769 0.7275584
vt -6.696871 0.7275584
vt -6.696871 -7.874016
vt -7.484272 -7.874016
vt 0 -2.91423
vt -3.547265 -2.91423
vt 0 0.2068794
vt -3.547265 0.2068794
vt 0 -8.523499
vt -3.547265 -8.523499
vt 0 0.1140395
vt -3.547265 0.1140395
vt 0 5.515769
vt 0 6.696871
vt 3.547265 5.515769
vt 3.547265 6.696871
vt 0 5.909469
vt -3.547265 5.909469
vt -3.547265 0
vt 0 7.484272
vt -3.547265 7.484272
vt -3.547265 6.696871
vt 3.547265 -8.501302
vt 0 -8.501302
vt 3.547265 -0.5880142
vt 0 -0.5880142

usemtl grey

f 87/173/39 86/172/39 85/171/39
f 86/172/39 87/173/39 88/174/39
f 88/174/39 87/173/39 89/175/39
f 89/175/39 87/173/39 90/176/39
f 90/176/39 87/173/39 91/177/39
f 90/176/39 91/177/39 92/178/39
f 86/180/40 94/179/40 93/171/40
f 94/179/40 86/180/40 88/181/40
f 94/182/41 95/171/41 93/172/41
f 95/171/41 94/182/41 96/183/41
f 96/183/41 94/182/41 97/184/41
f 96/183/41 97/184/41 98/185/41
f 96/183/41 98/185/41 99/186/41
f 99/186/41 98/185/41 100/187/41
f 86/174/42 95/171/42 85/180/42
f 95/171/42 86/174/42 93/172/42
f 94/190/43 89/189/43 97/188/43
f 89/189/43 94/190/43 88/191/43
f 98/194/44 92/193/44 100/192/44
f 92/193/44 98/194/44 90/195/44
f 89/198/40 98/197/40 97/196/40
f 98/197/40 89/198/40 90/199/40
f 87/201/45 95/171/45 96/200/45
f 95/171/45 87/201/45 85/202/45
f 92/204/45 99/197/45 100/203/45
f 99/197/45 92/204/45 91/205/45
f 87/208/46 99/207/46 91/206/46
f 99/207/46 87/208/46 96/209/46

