{
    "asset" : {
        "generator" : "Khronos glTF Blender I/O v1.5.17",
        "version" : "2.0"
    },
    "scene" : 0,
    "scenes" : [
        {
            "name" : "Scene",
            "nodes" : [
                0,
                1,
                2,
                3,
                4,
                5
            ]
        }
    ],
    "nodes" : [
        {
            "mesh" : 0,
            "name" : "Cube",
            "translation" : [
                0,
                1,
                0
            ]
        },
        {
            "mesh" : 1,
            "name" : "Sphere",
            "scale" : [
                2.985307216644287,
                2.985307216644287,
                2.985307216644287
            ],
            "translation" : [
                -12.037152290344238,
                14.150069236755371,
                0.5200366973876953
            ]
        },
        {
            "mesh" : 2,
            "name" : "Sphere.001",
            "scale" : [
                2.985307216644287,
                2.985307216644287,
                2.985307216644287
            ],
            "translation" : [
                -19.003087997436523,
                22.853099822998047,
                -2.439436912536621
            ]
        },
        {
            "mesh" : 3,
            "name" : "Sphere.002",
            "scale" : [
                2.985307216644287,
                2.985307216644287,
                2.985307216644287
            ],
            "translation" : [
                -6.2664594650268555,
                21.42607879638672,
                0.9356992244720459
            ]
        },
        {
            "mesh" : 4,
            "name" : "Sphere.006",
            "scale" : [
                2.721410036087036,
                2.721410036087036,
                2.721410036087036
            ],
            "translation" : [
                14.213438034057617,
                19.68924331665039,
                2.644587516784668
            ]
        },
        {
            "mesh" : 5,
            "name" : "Sphere.007",
            "scale" : [
                2.2255403995513916,
                2.2255403995513916,
                2.2255403995513916
            ],
            "translation" : [
                15.040172576904297,
                11.952718734741211,
                -10.008516311645508
            ]
        }
    ],
    "materials" : [
        {
            "doubleSided" : true,
            "name" : "Material.001",
            "pbrMetallicRoughness" : {
                "baseColorTexture" : {
                    "index" : 0
                },
                "metallicFactor" : 0
            }
        },
        {
            "doubleSided" : true,
            "name" : "Material",
            "pbrMetallicRoughness" : {
                "baseColorTexture" : {
                    "index" : 1
                },
                "metallicFactor" : 0
            }
        }
    ],
    "meshes" : [
        {
            "name" : "Cube.001",
            "primitives" : [
                {
                    "attributes" : {
                        "POSITION" : 0,
                        "NORMAL" : 1,
                        "TEXCOORD_0" : 2
                    },
                    "indices" : 3,
                    "material" : 0
                }
            ]
        },
        {
            "name" : "Sphere",
            "primitives" : [
                {
                    "attributes" : {
                        "POSITION" : 4,
                        "NORMAL" : 5,
                        "TEXCOORD_0" : 6
                    },
                    "indices" : 7,
                    "material" : 1
                }
            ]
        },
        {
            "name" : "Sphere.001",
            "primitives" : [
                {
                    "attributes" : {
                        "POSITION" : 8,
                        "NORMAL" : 9,
                        "TEXCOORD_0" : 10
                    },
                    "indices" : 7,
                    "material" : 1
                }
            ]
        },
        {
            "name" : "Sphere.002",
            "primitives" : [
                {
                    "attributes" : {
                        "POSITION" : 11,
                        "NORMAL" : 12,
                        "TEXCOORD_0" : 13
                    },
                    "indices" : 14,
                    "material" : 1
                }
            ]
        },
        {
            "name" : "Sphere.006",
            "primitives" : [
                {
                    "attributes" : {
                        "POSITION" : 15,
                        "NORMAL" : 16,
                        "TEXCOORD_0" : 17
                    },
                    "indices" : 7,
                    "material" : 1
                }
            ]
        },
        {
            "name" : "Sphere.007",
            "primitives" : [
                {
                    "attributes" : {
                        "POSITION" : 18,
                        "NORMAL" : 19,
                        "TEXCOORD_0" : 20
                    },
                    "indices" : 7,
                    "material" : 1
                }
            ]
        }
    ],
    "textures" : [
        {
            "sampler" : 0,
            "source" : 0
        },
        {
            "sampler" : 0,
            "source" : 1
        }
    ],
    "images" : [
        {
            "bufferView" : 4,
            "mimeType" : "image/png",
            "name" : "baseTextureFreddy"
        },
        {
            "bufferView" : 9,
            "mimeType" : "image/png",
            "name" : "plants1"
        }
    ],
    "accessors" : [
        {
            "bufferView" : 0,
            "componentType" : 5126,
            "count" : 536,
            "max" : [
                15.789690971374512,
                21.566652297973633,
                1.374789834022522
            ],
            "min" : [
                -17.058029174804688,
                -1,
                -11.207242965698242
            ],
            "type" : "VEC3"
        },
        {
            "bufferView" : 1,
            "componentType" : 5126,
            "count" : 536,
            "type" : "VEC3"
        },
        {
            "bufferView" : 2,
            "componentType" : 5126,
            "count" : 536,
            "type" : "VEC2"
        },
        {
            "bufferView" : 3,
            "componentType" : 5123,
            "count" : 804,
            "type" : "SCALAR"
        },
        {
            "bufferView" : 5,
            "componentType" : 5126,
            "count" : 70,
            "max" : [
                0.9510565996170044,
                1,
                0.8090171813964844
            ],
            "min" : [
                -0.9510566592216492,
                -1,
                -1
            ],
            "type" : "VEC3"
        },
        {
            "bufferView" : 6,
            "componentType" : 5126,
            "count" : 70,
            "type" : "VEC3"
        },
        {
            "bufferView" : 7,
            "componentType" : 5126,
            "count" : 70,
            "type" : "VEC2"
        },
        {
            "bufferView" : 8,
            "componentType" : 5123,
            "count" : 90,
            "type" : "SCALAR"
        },
        {
            "bufferView" : 10,
            "componentType" : 5126,
            "count" : 70,
            "max" : [
                0.9510565996170044,
                1,
                0.8090171813964844
            ],
            "min" : [
                -0.9510566592216492,
                -1,
                -1
            ],
            "type" : "VEC3"
        },
        {
            "bufferView" : 11,
            "componentType" : 5126,
            "count" : 70,
            "type" : "VEC3"
        },
        {
            "bufferView" : 12,
            "componentType" : 5126,
            "count" : 70,
            "type" : "VEC2"
        },
        {
            "bufferView" : 13,
            "componentType" : 5126,
            "count" : 280,
            "max" : [
                4.277318477630615,
                1.0414714813232422,
                1.6715461015701294
            ],
            "min" : [
                -0.9510566592216492,
                -4.380974769592285,
                -3.2758209705352783
            ],
            "type" : "VEC3"
        },
        {
            "bufferView" : 14,
            "componentType" : 5126,
            "count" : 280,
            "type" : "VEC3"
        },
        {
            "bufferView" : 15,
            "componentType" : 5126,
            "count" : 280,
            "type" : "VEC2"
        },
        {
            "bufferView" : 16,
            "componentType" : 5123,
            "count" : 360,
            "type" : "SCALAR"
        },
        {
            "bufferView" : 17,
            "componentType" : 5126,
            "count" : 70,
            "max" : [
                0.9510565996170044,
                1,
                0.8090171813964844
            ],
            "min" : [
                -0.9510566592216492,
                -1,
                -1
            ],
            "type" : "VEC3"
        },
        {
            "bufferView" : 18,
            "componentType" : 5126,
            "count" : 70,
            "type" : "VEC3"
        },
        {
            "bufferView" : 19,
            "componentType" : 5126,
            "count" : 70,
            "type" : "VEC2"
        },
        {
            "bufferView" : 20,
            "componentType" : 5126,
            "count" : 70,
            "max" : [
                0.9510565996170044,
                1,
                0.8090171813964844
            ],
            "min" : [
                -0.9510566592216492,
                -1,
                -1
            ],
            "type" : "VEC3"
        },
        {
            "bufferView" : 21,
            "componentType" : 5126,
            "count" : 70,
            "type" : "VEC3"
        },
        {
            "bufferView" : 22,
            "componentType" : 5126,
            "count" : 70,
            "type" : "VEC2"
        }
    ],
    "bufferViews" : [
        {
            "buffer" : 0,
            "byteLength" : 6432,
            "byteOffset" : 0
        },
        {
            "buffer" : 0,
            "byteLength" : 6432,
            "byteOffset" : 6432
        },
        {
            "buffer" : 0,
            "byteLength" : 4288,
            "byteOffset" : 12864
        },
        {
            "buffer" : 0,
            "byteLength" : 1608,
            "byteOffset" : 17152
        },
        {
            "buffer" : 0,
            "byteLength" : 158021,
            "byteOffset" : 18760
        },
        {
            "buffer" : 0,
            "byteLength" : 840,
            "byteOffset" : 176784
        },
        {
            "buffer" : 0,
            "byteLength" : 840,
            "byteOffset" : 177624
        },
        {
            "buffer" : 0,
            "byteLength" : 560,
            "byteOffset" : 178464
        },
        {
            "buffer" : 0,
            "byteLength" : 180,
            "byteOffset" : 179024
        },
        {
            "buffer" : 0,
            "byteLength" : 165459,
            "byteOffset" : 179204
        },
        {
            "buffer" : 0,
            "byteLength" : 840,
            "byteOffset" : 344664
        },
        {
            "buffer" : 0,
            "byteLength" : 840,
            "byteOffset" : 345504
        },
        {
            "buffer" : 0,
            "byteLength" : 560,
            "byteOffset" : 346344
        },
        {
            "buffer" : 0,
            "byteLength" : 3360,
            "byteOffset" : 346904
        },
        {
            "buffer" : 0,
            "byteLength" : 3360,
            "byteOffset" : 350264
        },
        {
            "buffer" : 0,
            "byteLength" : 2240,
            "byteOffset" : 353624
        },
        {
            "buffer" : 0,
            "byteLength" : 720,
            "byteOffset" : 355864
        },
        {
            "buffer" : 0,
            "byteLength" : 840,
            "byteOffset" : 356584
        },
        {
            "buffer" : 0,
            "byteLength" : 840,
            "byteOffset" : 357424
        },
        {
            "buffer" : 0,
            "byteLength" : 560,
            "byteOffset" : 358264
        },
        {
            "buffer" : 0,
            "byteLength" : 840,
            "byteOffset" : 358824
        },
        {
            "buffer" : 0,
            "byteLength" : 840,
            "byteOffset" : 359664
        },
        {
            "buffer" : 0,
            "byteLength" : 560,
            "byteOffset" : 360504
        }
    ],
    "samplers" : [
        {
            "magFilter" : 9728,
            "minFilter" : 9984
        }
    ],
    "buffers" : [
        {
            "byteLength" : 361064,
            "uri" : "data:application/octet-stream;base64,"
        }
    ]
}
