# Created by Kenney (www.kenney.nl)

mtllib blasterH.mtl

g blasterH

v -0.05 0.07 -0.2658196
v -0.05 0.07 -0.2058197
v -0.05 -0.06 -0.2158196
v -0.05 -0.06 -0.1558197
v 0.03 -0.06 0.1468197
v 0.03 -0.06 0.04418033
v -0.03 -0.06 0.1468197
v -0.03 -0.06 0.04418033
v 0.05 -0.06 -0.2158196
v -0.03 -0.04133309 -0.2229992
v -0.03 0.05133309 -0.2586401
v 0.05 0.07 -0.2658196
v 0.03 -0.04133309 -0.2229992
v 0.03 0.05133309 -0.2586401
v 0.05 0.07 -0.2058197
v 0.015 0.07 -0.2369702
v -0.015 0.07 -0.2369702
v -0.015 0.07 -0.2058197
v 0.015 0.07 -0.2058197
v 0.03999999 -0.02 -0.04581966
v 0.05 -0.02 -0.02581966
v 0.03999999 0.03 -0.04581966
v 0.05 0.03 -0.02581966
v 0.03999999 -0.02 -0.005819663
v 0.03999999 0.03 -0.005819663
v -0.04 0.03 -0.04581966
v -0.05 0.03 -0.02581966
v -0.04 -0.02 -0.04581966
v -0.05 -0.02 -0.02581966
v -0.04 0.03 -0.005819663
v -0.04 -0.02 -0.005819663
v 0.015 0.07 -0.05697015
v -0.015 0.07 -0.05697015
v 0.015 0.08 -0.05697015
v -0.015 0.08 -0.05697015
v 0.015 0.08 -0.2369702
v -0.015 0.08 -0.2369702
v 0.015 0.12 0.009180337
v 0.015 0.12 0.1391803
v -0.015 0.12 0.009180337
v -0.015 0.12 0.1391803
v -0.015 0.07 -0.01581965
v 0.015 0.07 -0.01581965
v 0.015 0.095 0.1237295
v 0.015 0.095 0.02463119
v -0.015 0.095 0.1237295
v -0.015 0.095 0.02463119
v -0.03 0.02 0.04418033
v -0.03 0.02 0.2341803
v -0.05 0.02 0.04418033
v -0.03 0.02 0.2541803
v -0.05 0.02 0.2341803
v 0.03 0.02 0.2541803
v 0.03 0.02 0.2341803
v 0.03 0.02 0.04418033
v 0.05 0.02 0.2341803
v 0.05 0.02 0.04418033
v 0.03 -0.035 0.1368197
v -0.03 -0.035 0.1368197
v 0.03 -0.035 0.04418033
v -0.03 -0.035 0.04418033
v 0.015 0.07 0.01213118
v -0.015 0.07 0.01213118
v -0.015 0.07 0.1362295
v 0.015 0.07 0.1362295
v 0.015 0.07 0.1641803
v -0.015 0.07 0.1641803
v 0.05 -0.06 -0.1558197
v -0.03 0.07 0.04418033
v -0.03 0.07 0.2041803
v -0.03 0.045 0.2341803
v 0.03 0.07 0.2041803
v 0.03 0.045 0.2341803
v 0.05 0.04 -0.1458197
v 0.05 0.07 0.04418033
v 0.05 -0.03 -0.1458197
v 0.05 0.04 0.004180342
v 0.05 -0.06 0.04418033
v 0.05 -0.03 0.004180342
v 0.05 -0.01 0.04418033
v 0.05 -0.01 0.2341803
v 0.03 0.03 -0.04581966
v 0.03 0.03 -0.005819663
v 0.03 -0.02 -0.005819663
v 0.03 -0.02 -0.04581966
v -0.03 0.03 -0.04581966
v -0.03 0.03 -0.005819663
v -0.03 -0.02 -0.005819663
v -0.03 -0.02 -0.04581966
v 0.03 0.07 0.04418033
v -0.05 0.07 0.04418033
v -0.05 -0.01 0.2341803
v -0.03 -0.01 0.2541803
v 0.03 -0.01 0.2541803
v 0.03 -0.01 0.2218196
v -0.03 -0.01 0.2218196
v -0.03 -0.01 0.1268196
v 0.03 -0.01 0.1268196
v -0.05 -0.01 0.04418033
v -0.05 -0.06 0.04418033
v -0.05 0.04 -0.1458197
v -0.05 -0.03 -0.1458197
v -0.05 -0.03 0.004180342
v -0.05 0.04 0.004180342
v -0.03 0.05133309 -0.1929992
v -0.03 -0.04133309 -0.1929992
v 0.03 0.05133309 -0.1929992
v 0.03 -0.04133309 -0.1929992
v -0.01000001 -0.02133309 -0.1929992
v -0.01000001 0.03133309 -0.1929992
v 0.01000001 -0.02133309 -0.1929992
v 0.01000001 0.03133309 -0.1929992
v -0.01000001 -0.02133309 -0.1429992
v 0.01000001 -0.02133309 -0.1429992
v -0.01000001 0.03133309 -0.1429992
v 0.01000001 0.03133309 -0.1429992
v 0.03 -0.03 -0.1458197
v 0.03 -0.03 0.004180342
v 0.03 0.04 -0.1458197
v 0.03 0.04 0.004180342
v -0.03 -0.03 -0.1458197
v -0.03 0.04 -0.1458197
v -0.03 -0.03 0.004180342
v -0.03 0.04 0.004180342
v -0.03 -0.12 0.1708197
v 0.03 -0.12 0.1708197
v 0.03 -0.12 0.2658196
v -0.03 -0.12 0.2658196

vn -1 0 0
vn 0 -1 0
vn 0 -0.3589791 -0.9333456
vn 0 1 0
vn 0.8944272 0 -0.4472136
vn 0.8944272 0 0.4472136
vn -0.8944272 0 -0.4472136
vn -0.8944272 0 0.4472136
vn 0 0 1
vn 1 0 0
vn 0 0 -1
vn 0 0.4472136 -0.8944272
vn 0 -0.4472136 0.8944272
vn 0 -0.4472136 -0.8944272
vn 0 0.4472136 0.8944272
vn 0 0.7682213 0.6401844
vn -0.7071068 0 0.7071068
vn 0.7071068 0 0.7071068
vn 0 -0.3713907 -0.9284768
vn 0 0.3713907 0.9284768

vt -10.46534 2.755906
vt -8.103136 2.755906
vt -8.496837 -2.362205
vt -6.134632 -2.362205
vt 1.181102 5.780302
vt 1.181102 1.739383
vt -1.181102 5.780302
vt -1.181102 1.739383
vt -1.968504 0.8454334
vt 1.181102 1.632835
vt 1.968504 0.8454334
vt 1.968504 6.329051
vt 1.181102 5.541649
vt -1.968504 6.329051
vt -1.181102 1.632835
vt -1.181102 5.541649
vt -1.968504 -8.103136
vt -0.5905512 -9.329534
vt -1.968504 -10.46534
vt 1.968504 -10.46534
vt 0.5905512 -9.329534
vt 0.5905512 -8.103136
vt 1.968504 -8.103136
vt -0.5905512 -8.103136
vt 0.909205 -0.7874016
vt 0.02886324 -0.7874016
vt 0.909205 1.181102
vt 0.02886324 1.181102
vt 1.789547 -0.7874016
vt 1.789547 1.181102
vt -0.909205 1.181102
vt -0.02886324 1.181102
vt -0.909205 -0.7874016
vt -0.02886324 -0.7874016
vt -1.789547 1.181102
vt -1.789547 -0.7874016
vt 0.5905512 2.755906
vt -0.5905512 2.755906
vt 0.5905512 3.149606
vt -0.5905512 3.149606
vt 9.329534 3.149606
vt 9.329534 2.755906
vt 2.242919 3.149606
vt 8.103136 2.755906
vt 2.242919 2.755906
vt -9.329534 2.755906
vt -9.329534 3.149606
vt -2.242919 3.149606
vt -2.242919 2.755906
vt -0.5905512 -2.242919
vt 0.5905512 -2.242919
vt -0.5905512 0.3614307
vt -0.5905512 5.479541
vt 0.5905512 0.3614307
vt 0.5905512 5.479541
vt 0.5905512 2.186423
vt -0.5905512 2.186423
vt 0.5905512 4.387277
vt -0.5905512 4.387277
vt 0.5905512 4.87124
vt 0.5905512 0.9697319
vt -0.5905512 4.87124
vt -0.5905512 0.9697319
vt 1.181102 9.219698
vt 1.968504 1.739383
vt 1.181102 10.0071
vt 1.968504 9.219698
vt -1.181102 10.0071
vt -1.181102 9.219698
vt -1.968504 9.219698
vt -1.968504 1.739383
vt -1.181102 5.386601
vt 1.181102 5.386601
vt 0.5905512 2.678549
vt -0.5905512 2.678549
vt 0.5905512 3.778976
vt -0.5905512 3.778976
vt 0.5905512 0.06638674
vt -0.5905512 0.06638674
vt 0.5905512 1.166814
vt -0.5905512 1.166814
vt -1.739383 -1.377953
vt -1.739383 -2.362205
vt -5.386601 -1.377953
vt -5.780302 -2.362205
vt 0.5905512 -0.4257392
vt -0.5905512 -0.4257392
vt 0.5905512 1.775115
vt -0.5905512 1.775115
vt 1.968504 -6.134632
vt 1.968504 -8.496837
vt -1.968504 -6.134632
vt -1.968504 -8.496837
vt 1.739383 -2.362205
vt 1.739383 -1.377953
vt 5.780302 -2.362205
vt 5.386601 -1.377953
vt 10.46534 2.755906
vt 8.496837 -2.362205
vt 6.134632 -2.362205
vt 1.739383 2.755906
vt 8.038596 2.755906
vt 1.739383 0.7874016
vt 9.219698 0.7874016
vt 9.219698 1.771654
vt 1.181102 -4.411133
vt 1.181102 -5.948584
vt -1.181102 -4.411133
vt -1.181102 -5.948584
vt 1.181102 0.7874016
vt -1.181102 0.7874016
vt 1.181102 1.771654
vt -1.181102 1.771654
vt 5.740932 1.574803
vt -1.739383 2.755906
vt 5.740932 -1.181102
vt -0.1645803 1.574803
vt -0.1645803 -1.181102
vt -1.739383 0.7874016
vt -1.739383 -0.3937008
vt -9.219698 0.7874016
vt -9.219698 -0.3937008
vt -1.968504 -1.016522
vt -1.574803 -0.2291205
vt -1.574803 -1.803924
vt -1.181102 -1.803924
vt -1.181102 -0.2291205
vt 1.574803 -0.7874016
vt 1.181102 -0.7874016
vt 1.574803 1.181102
vt 1.181102 1.181102
vt 1.968504 -1.016522
vt 1.574803 -1.803924
vt 1.574803 -0.2291205
vt 1.181102 -0.2291205
vt 1.181102 -1.803924
vt -1.181102 -0.7874016
vt -1.574803 -0.7874016
vt -1.181102 1.181102
vt -1.574803 1.181102
vt -8.038596 2.755906
vt -9.219698 1.771654
vt -1.968504 0.7874016
vt -1.181102 2.755906
vt -1.968504 2.755906
vt 5.127369 -0.3937008
vt 5.127369 0.7874016
vt 6.240923 -0.3937008
vt 6.240923 0.7874016
vt -5.127369 0.7874016
vt -5.127369 -0.3937008
vt -6.240923 0.7874016
vt -6.240923 -0.3937008
vt 1.181102 -0.3937008
vt -1.181102 -0.3937008
vt 1.968504 0.7874016
vt 1.968504 2.755906
vt 1.181102 2.755906
vt 1.181102 8.733057
vt -1.181102 8.733057
vt -1.181102 4.9929
vt 1.181102 4.9929
vt 1.968504 -2.362205
vt 1.181102 -2.362205
vt 1.968504 -0.3937008
vt 1.181102 -1.377953
vt -1.181102 -1.377953
vt -1.968504 -0.3937008
vt -1.968504 -2.362205
vt -1.181102 -2.362205
vt -5.740932 1.574803
vt -5.740932 -1.181102
vt 0.1645803 -1.181102
vt 0.1645803 1.574803
vt 1.739383 -0.3937008
vt 9.219698 -0.3937008
vt -1.181102 8.038596
vt -0.5905512 -0.6228213
vt 0.5905512 -0.6228213
vt 0.5905512 0.4776059
vt 0.5905512 5.363366
vt 0.5905512 6.463793
vt -0.5905512 6.463793
vt 1.181102 8.038596
vt -0.5905512 0.4776059
vt -0.5905512 5.363366
vt 10.18268 2.020988
vt 8.779498 -1.627287
vt 7.598395 2.020988
vt 7.598395 -1.627287
vt -10.18268 2.020988
vt -7.598395 2.020988
vt -8.779498 -1.627287
vt -7.598395 -1.627287
vt 1.181102 -10.18268
vt -1.181102 -10.18268
vt 1.181102 -7.598395
vt -1.181102 -7.598395
vt -1.181102 -8.779498
vt 1.181102 -8.779498
vt 0.6228213 2.755906
vt -0.4776059 2.755906
vt -0.3614307 4.72441
vt -0.9697319 3.740157
vt -5.479541 4.72441
vt -4.87124 3.740157
vt -5.363366 2.755906
vt -6.463793 2.755906
vt -0.6228213 2.755906
vt 0.3614307 4.72441
vt 0.4776059 2.755906
vt 0.9697319 3.740157
vt 5.479541 4.72441
vt 4.87124 3.740157
vt 5.363366 2.755906
vt 6.463793 2.755906
vt 1.181102 -1.627287
vt 0.3937008 -0.8398854
vt 1.181102 2.020988
vt 0.3937008 1.233586
vt -1.181102 2.020988
vt -0.3937008 -0.8398854
vt -1.181102 -1.627287
vt -0.3937008 1.233586
vt 0.3937008 -5.629891
vt 0.3937008 -7.598395
vt -0.3937008 -5.629891
vt -0.3937008 -7.598395
vt -1.968504 -5.740932
vt -1.968504 0.1645803
vt -1.181102 -5.740932
vt -1.181102 0.1645803
vt 1.968504 -1.181102
vt 1.181102 -1.181102
vt 1.968504 1.574803
vt 1.181102 1.574803
vt 1.968504 0.1645803
vt 1.968504 -5.740932
vt 1.181102 0.1645803
vt 1.181102 -5.740932
vt 1.803924 -0.7874016
vt 1.803924 1.181102
vt 0.2291205 1.181102
vt 0.2291205 -0.7874016
vt -1.181102 -1.181102
vt -1.968504 -1.181102
vt -1.181102 1.574803
vt -1.968504 1.574803
vt -1.803924 1.181102
vt -1.803924 -0.7874016
vt -0.2291205 -0.7874016
vt -0.2291205 1.181102
vt -7.598395 -0.8398854
vt -7.598395 1.233586
vt -5.629891 -0.8398854
vt -5.629891 1.233586
vt 7.598395 1.233586
vt 7.598395 -0.8398854
vt 5.629891 1.233586
vt 5.629891 -0.8398854
vt 1.181102 -6.884174
vt -1.181102 -6.884174
vt 1.181102 -4.340002
vt -1.181102 -4.340002
vt 1.181102 -8.273234
vt -1.181102 -8.273234
vt 1.181102 -3.608918
vt -1.181102 -3.608918
vt 1.181102 10.46534
vt 1.181102 6.725183
vt -1.181102 10.46534
vt -1.181102 6.725183
vt 4.9929 -0.3937008
vt 8.733057 -0.3937008
vt 6.725183 -4.72441
vt 10.46534 -4.72441
vt 1.181102 -3.27993
vt -1.181102 -3.27993
vt 1.181102 -2.219858
vt -1.181102 -2.219858
vt -4.9929 -0.3937008
vt -8.733057 -0.3937008
vt -6.725183 -4.72441
vt -10.46534 -4.72441

usemtl metal

f 3/3/1 2/2/1 1/1/1
f 2/2/1 3/3/1 4/4/1
f 7/7/2 6/6/2 5/5/2
f 6/6/2 7/7/2 8/8/2
f 3/11/3 10/10/3 9/9/3
f 10/10/3 3/11/3 1/12/3
f 10/10/3 1/12/3 11/13/3
f 11/13/3 1/12/3 12/14/3
f 9/9/3 13/15/3 12/14/3
f 13/15/3 9/9/3 10/10/3
f 12/14/3 13/15/3 14/16/3
f 12/14/3 14/16/3 11/13/3
f 12/19/4 16/18/4 15/17/4
f 16/18/4 12/19/4 1/20/4
f 16/18/4 1/20/4 17/21/4
f 17/21/4 1/20/4 18/22/4
f 18/22/4 1/20/4 2/23/4
f 19/24/4 15/17/4 16/18/4
f 22/27/5 21/26/5 20/25/5
f 21/26/5 22/27/5 23/28/5
f 23/30/6 24/25/6 21/29/6
f 24/25/6 23/30/6 25/27/6
f 28/33/7 27/32/7 26/31/7
f 27/32/7 28/33/7 29/34/7
f 29/36/8 30/31/8 27/35/8
f 30/31/8 29/36/8 31/33/8
f 34/39/9 33/38/9 32/37/9
f 33/38/9 34/39/9 35/40/9
f 34/43/10 16/42/10 36/41/10
f 16/42/10 34/43/10 19/44/10
f 19/44/10 34/43/10 32/45/10
f 18/2/1 37/47/1 17/46/1
f 37/47/1 18/2/1 35/48/1
f 35/48/1 18/2/1 33/49/1
f 37/21/4 34/50/4 36/18/4
f 34/50/4 37/21/4 35/51/4
f 17/37/11 36/40/11 16/38/11
f 36/40/11 17/37/11 37/39/11
f 40/54/4 39/53/4 38/52/4
f 39/53/4 40/54/4 41/55/4
f 40/58/12 43/57/12 42/56/12
f 43/57/12 40/58/12 38/59/12
f 46/62/2 45/61/2 44/60/2
f 45/61/2 46/62/2 47/63/2
f 50/65/4 49/64/4 48/6/4
f 49/64/4 50/65/4 51/66/4
f 51/66/4 50/65/4 52/67/4
f 53/68/4 49/64/4 51/66/4
f 53/68/4 54/69/4 49/64/4
f 53/68/4 55/8/4 54/69/4
f 56/70/4 55/8/4 53/68/4
f 55/8/4 56/70/4 57/71/4
f 60/8/4 59/73/4 58/72/4
f 59/73/4 60/8/4 61/6/4
f 45/76/13 63/75/13 62/74/13
f 63/75/13 45/76/13 47/77/13
f 46/80/14 65/79/14 64/78/14
f 65/79/14 46/80/14 44/81/14
f 58/84/10 6/83/10 60/82/10
f 6/83/10 58/84/10 5/85/10
f 39/88/15 67/87/15 66/86/15
f 67/87/15 39/88/15 41/89/15
f 4/92/2 9/91/2 68/90/2
f 9/91/2 4/92/2 3/93/2
f 7/96/1 61/95/1 8/94/1
f 61/95/1 7/96/1 59/97/1
f 15/44/10 9/99/10 12/98/10
f 9/99/10 15/44/10 68/100/10

usemtl pink

f 48/103/1 70/102/1 69/101/1
f 70/102/1 48/103/1 49/104/1
f 70/102/1 49/104/1 71/105/1
f 70/108/16 73/107/16 72/106/16
f 73/107/16 70/108/16 71/109/16
f 73/112/9 49/111/9 54/110/9
f 49/111/9 73/112/9 71/113/9
f 15/44/10 74/114/10 68/100/10
f 74/114/10 15/44/10 75/115/10
f 68/100/10 74/114/10 76/116/10
f 74/114/10 75/115/10 77/117/10
f 76/116/10 78/83/10 68/100/10
f 78/83/10 77/117/10 75/115/10
f 78/83/10 76/116/10 79/118/10
f 78/83/10 79/118/10 77/117/10
f 78/83/10 75/115/10 57/119/10
f 78/83/10 57/119/10 80/120/10
f 56/121/10 80/120/10 57/119/10
f 80/120/10 56/121/10 81/122/10
f 22/125/4 25/124/4 23/123/4
f 25/124/4 22/125/4 82/126/4
f 25/124/4 82/126/4 83/127/4
f 25/130/9 84/129/9 24/128/9
f 84/129/9 25/130/9 83/131/9
f 24/134/2 20/133/2 21/132/2
f 20/133/2 24/134/2 84/135/2
f 20/133/2 84/135/2 85/136/2
f 82/139/11 20/138/11 85/137/11
f 20/138/11 82/139/11 22/140/11
f 26/133/4 87/135/4 86/136/4
f 87/135/4 26/133/4 30/134/4
f 30/134/4 26/133/4 27/132/4
f 87/139/9 31/138/9 88/137/9
f 31/138/9 87/139/9 30/140/9
f 26/130/11 89/129/11 28/128/11
f 89/129/11 26/130/11 86/131/11
f 88/127/2 28/125/2 89/126/2
f 28/125/2 88/127/2 31/124/2
f 28/125/2 31/124/2 29/123/2
f 72/141/10 55/119/10 90/115/10
f 55/119/10 72/141/10 54/121/10
f 54/121/10 72/141/10 73/142/10
f 69/144/9 50/143/9 48/111/9
f 50/143/9 69/144/9 91/145/9
f 93/148/17 52/147/17 92/146/17
f 52/147/17 93/148/17 51/149/17
f 53/152/18 81/151/18 56/150/18
f 81/151/18 53/152/18 94/153/18
f 53/110/9 93/155/9 94/154/9
f 93/155/9 53/110/9 51/111/9
f 75/157/9 55/110/9 57/156/9
f 55/110/9 75/157/9 90/158/9
f 93/68/2 95/159/2 94/66/2
f 95/159/2 93/68/2 96/160/2
f 96/160/2 93/68/2 92/70/2
f 96/160/2 92/70/2 97/161/2
f 98/162/2 94/66/2 95/159/2
f 80/65/2 94/66/2 98/162/2
f 94/66/2 80/65/2 81/67/2
f 80/65/2 98/162/2 99/71/2
f 99/71/2 98/162/2 97/161/2
f 99/71/2 97/161/2 92/70/2
f 80/165/9 6/164/9 78/163/9
f 6/164/9 80/165/9 60/166/9
f 60/166/9 80/165/9 61/167/9
f 99/168/9 61/167/9 80/165/9
f 100/169/9 61/167/9 99/168/9
f 61/167/9 100/169/9 8/170/9
f 4/4/1 102/172/1 101/171/1
f 102/172/1 4/4/1 100/94/1
f 102/172/1 100/94/1 103/173/1
f 101/171/1 2/2/1 4/4/1
f 2/2/1 101/171/1 91/101/1
f 91/101/1 103/173/1 100/94/1
f 91/101/1 101/171/1 104/174/1
f 91/101/1 104/174/1 103/173/1
f 91/101/1 100/94/1 99/175/1
f 91/101/1 99/175/1 50/103/1
f 50/103/1 99/175/1 92/176/1
f 50/103/1 92/176/1 52/104/1
f 19/24/4 75/71/4 15/17/4
f 75/71/4 19/24/4 90/8/4
f 90/8/4 19/24/4 72/177/4
f 72/177/4 19/24/4 43/178/4
f 43/178/4 19/24/4 32/50/4
f 43/178/4 32/50/4 42/179/4
f 42/179/4 32/50/4 33/51/4
f 42/179/4 33/51/4 63/180/4
f 63/180/4 33/51/4 64/181/4
f 64/181/4 33/51/4 67/182/4
f 66/183/4 72/177/4 43/178/4
f 72/177/4 66/183/4 70/184/4
f 70/184/4 66/183/4 67/182/4
f 70/184/4 67/182/4 33/51/4
f 66/183/4 43/178/4 62/185/4
f 66/183/4 62/185/4 65/186/4
f 63/180/4 65/186/4 62/185/4
f 65/186/4 63/180/4 64/181/4
f 70/184/4 33/51/4 69/6/4
f 33/51/4 2/23/4 69/6/4
f 2/23/4 33/51/4 18/22/4
f 69/6/4 2/23/4 91/65/4
f 6/6/2 68/90/2 78/65/2
f 68/90/2 6/6/2 4/92/2
f 4/92/2 6/6/2 8/8/2
f 4/92/2 8/8/2 100/71/2

usemtl darkMetal

f 105/189/10 10/188/10 11/187/10
f 10/188/10 105/189/10 106/190/10
f 13/193/1 107/192/1 14/191/1
f 107/192/1 13/193/1 108/194/1
f 107/197/2 11/196/2 14/195/2
f 11/196/2 107/197/2 105/198/2
f 10/200/4 108/198/4 13/199/4
f 108/198/4 10/200/4 106/197/4
f 38/203/10 62/202/10 43/201/10
f 62/202/10 38/203/10 45/204/10
f 45/204/10 38/203/10 39/205/10
f 45/204/10 39/205/10 44/206/10
f 44/206/10 39/205/10 65/207/10
f 65/207/10 39/205/10 66/208/10
f 63/211/1 40/210/1 42/209/1
f 40/210/1 63/211/1 47/212/1
f 40/210/1 47/212/1 41/213/1
f 41/213/1 47/212/1 46/214/1
f 41/213/1 46/214/1 64/215/1
f 41/213/1 64/215/1 67/216/1

usemtl dark

f 105/219/11 109/218/11 106/217/11
f 109/218/11 105/219/11 110/220/11
f 110/220/11 105/219/11 107/221/11
f 111/222/11 106/217/11 109/218/11
f 108/223/11 111/222/11 107/221/11
f 111/222/11 108/223/11 106/217/11
f 107/221/11 111/222/11 112/224/11
f 107/221/11 112/224/11 110/220/11
f 115/220/11 114/222/11 113/218/11
f 114/222/11 115/220/11 116/224/11
f 115/227/2 112/226/2 116/225/2
f 112/226/2 115/227/2 110/228/2
f 117/231/4 79/230/4 76/229/4
f 79/230/4 117/231/4 118/232/4
f 74/235/9 117/234/9 76/233/9
f 117/234/9 74/235/9 119/236/9
f 120/239/2 74/238/2 77/237/2
f 74/238/2 120/239/2 119/240/2
f 119/114/10 82/242/10 85/241/10
f 82/242/10 119/114/10 120/117/10
f 82/242/10 120/117/10 83/243/10
f 83/243/10 120/117/10 118/118/10
f 117/116/10 85/241/10 118/118/10
f 85/241/10 117/116/10 119/114/10
f 118/118/10 85/241/10 84/244/10
f 118/118/10 84/244/10 83/243/10
f 122/247/9 102/246/9 121/245/9
f 102/246/9 122/247/9 101/248/9
f 103/233/11 124/236/11 123/234/11
f 124/236/11 103/233/11 104/235/11
f 124/232/2 101/229/2 122/231/2
f 101/229/2 124/232/2 104/230/2
f 120/247/11 79/246/11 118/245/11
f 79/246/11 120/247/11 77/248/11
f 121/172/1 89/250/1 86/249/1
f 89/250/1 121/172/1 123/173/1
f 89/250/1 123/173/1 88/251/1
f 88/251/1 123/173/1 124/174/1
f 122/171/1 86/249/1 124/174/1
f 86/249/1 122/171/1 121/172/1
f 124/174/1 86/249/1 87/252/1
f 124/174/1 87/252/1 88/251/1
f 102/238/4 123/239/4 121/240/4
f 123/239/4 102/238/4 103/237/4
f 114/255/1 112/254/1 111/253/1
f 112/254/1 114/255/1 116/256/1
f 109/226/4 114/227/4 111/228/4
f 114/227/4 109/226/4 113/225/4
f 115/259/10 109/258/10 110/257/10
f 109/258/10 115/259/10 113/260/10
f 7/263/19 126/262/19 125/261/19
f 126/262/19 7/263/19 5/264/19
f 95/267/20 128/266/20 127/265/20
f 128/266/20 95/267/20 96/268/20
f 128/271/2 126/270/2 127/269/2
f 126/270/2 128/271/2 125/272/2
f 59/97/1 96/274/1 97/273/1
f 96/274/1 59/97/1 7/96/1
f 96/274/1 7/96/1 125/275/1
f 96/274/1 125/275/1 128/276/1
f 97/279/19 58/278/19 59/277/19
f 58/278/19 97/279/19 98/280/19
f 95/282/10 58/84/10 98/281/10
f 58/84/10 95/282/10 5/85/10
f 5/85/10 95/282/10 126/283/10
f 126/283/10 95/282/10 127/284/10

