# Created by Kenney (www.kenney.nl)

mtllib clipA.mtl

g clipA

v 0.03 -0.07645898 -0.045
v 0.03 -0.09 -0.01791796
v 0.01000001 -0.07645898 -0.045
v 0.01000001 -0.09 -0.01791796
v -0.01000001 -0.07645898 -0.045
v -0.01000001 -0.09 -0.01791796
v -0.03 -0.07645898 -0.045
v -0.03 -0.09 -0.01791796
v 0.03 -0.09 0.045
v 0.01000001 -0.09 0.045
v -0.01000001 0.08 0.045
v -0.01000001 0.08 -0.045
v -0.03 0.08 0.045
v -0.03 0.08 -0.045
v -0.03 -0.09 0.045
v -0.01000001 -0.09 0.045
v 0.03 0.08 0.045
v 0.03 0.08 -0.045
v 0.01000001 0.08 0.045
v 0.01000001 0.08 -0.045
v 0.03 -0.095 -0.075
v 0.03 0.11 -0.075
v 0.03 0.11 0.075
v 0.03 -0.12 -0.02500001
v 0.03 -0.12 0.075
v -0.03 0.11 -0.075
v -0.03 -0.095 -0.075
v -0.03 -0.12 -0.02500001
v -0.03 -0.12 0.075
v -0.03 0.11 0.075
v 0.01000001 0.11 -0.045
v -0.01000001 0.11 -0.045
v -0.01000001 0.11 0.045
v 0.01000001 0.11 0.045
v 0.009659261 0.1125882 0.045
v -0.009659261 0.1125882 0.045
v 0.008660257 0.115 0.045
v -0.008660257 0.115 0.045
v -0.007071063 0.1170711 0.045
v 0.007071063 0.1170711 0.045
v 0.004999995 0.1186603 0.045
v -0.004999995 0.1186603 0.045
v 0.002588198 0.1196593 0.045
v -0.002588198 0.1196593 0.045
v 0 0.12 0.045
v 0.007071063 0.1170711 -0.045
v 0.004999995 0.1186603 -0.045
v -0.008660257 0.115 -0.045
v -0.007071063 0.1170711 -0.045
v -0.009659261 0.1125882 -0.045
v 0.009659261 0.1125882 -0.045
v 0.008660257 0.115 -0.045
v -0.004999995 0.1186603 -0.045
v -0.002588198 0.1196593 -0.045
v 0.002588198 0.1196593 -0.045
v 0 0.12 -0.045

vn 0 0.8944272 0.4472136
vn 0 1 0
vn 0 -1 0
vn 0 0 -1
vn 0 0 1
vn 1 0 0
vn -1 0 0
vn 0 -0.8944272 -0.4472136
vn 0.7071068 0.7071068 0
vn 0.5 0.8660254 0
vn -0.8660254 0.5 0
vn -0.7071068 0.7071068 0
vn 0.8660254 0.5 0
vn 0.9659258 0.258819 0
vn 0.9914449 0.1305262 0
vn -0.258819 0.9659258 0
vn -0.5 0.8660254 0
vn -0.9659258 0.258819 0
vn -0.9914449 0.1305262 0
vn 0.258819 0.9659258 0

vt 1.181102 0.2384145
vt 1.181102 -0.953658
vt 0.3937008 0.2384145
vt 0.3937008 -0.953658
vt -0.3937008 0.2384145
vt -0.3937008 -0.953658
vt -1.181102 0.2384145
vt -1.181102 -0.953658
vt -1.181102 -0.7054315
vt -1.181102 1.771654
vt -0.3937008 -0.7054315
vt -0.3937008 1.771654
vt -0.3937008 -1.771654
vt -1.181102 -1.771654
vt 1.181102 -3.543307
vt 0.3937008 -3.543307
vt 1.181102 3.149606
vt 0.3937008 3.149606
vt 1.181102 1.771654
vt 1.181102 -1.771654
vt 0.3937008 1.771654
vt 0.3937008 -1.771654
vt -0.3937008 -3.543307
vt -1.181102 -3.543307
vt -0.3937008 3.149606
vt -1.181102 3.149606
vt 1.181102 -3.010196
vt 0.3937008 -3.010196
vt -0.3937008 -3.010196
vt -1.181102 -3.010196
vt 2.952756 -3.740157
vt 1.771654 3.149606
vt 2.952756 4.330709
vt -2.952756 4.330709
vt -1.771654 3.149606
vt -1.771654 -3.543307
vt 1.771654 -3.010196
vt 0.984252 -4.72441
vt 0.7054315 -3.543307
vt -2.952756 -4.72441
vt -1.771654 -3.010196
vt -2.952756 -3.740157
vt -0.984252 -4.72441
vt -0.7054315 -3.543307
vt 2.952756 -4.72441
vt 1.771654 -3.543307
vt 1.181102 -3.740157
vt -1.181102 -3.740157
vt 1.181102 4.330709
vt -1.181102 4.330709
vt 1.181102 -4.72441
vt -1.181102 -4.72441
vt -1.181102 2.952756
vt -1.181102 -2.952756
vt 1.181102 -2.952756
vt 1.181102 2.952756
vt -1.181102 -1.232478
vt -1.181102 0.9683759
vt 1.181102 -1.232478
vt 1.181102 0.9683759
vt 1.181102 -0.984252
vt -1.181102 -0.984252
vt 0.3937008 -0.7054315
vt 1.181102 -0.7054315
vt 0.3937008 4.330709
vt -0.3937008 4.330709
vt 0.3802858 4.432606
vt -0.3802858 4.432606
vt 0.3409549 4.527559
vt -0.3409549 4.527559
vt -0.2783885 4.609097
vt 0.2783885 4.609097
vt 0.1968504 4.671664
vt -0.1968504 4.671664
vt 0.1018973 4.710994
vt -0.1018973 4.710994
vt 4.207862E-30 4.72441
vt 1.771654 2.58498
vt -1.771654 2.58498
vt 1.771654 2.687757
vt -1.771654 2.687757
vt -1.771654 3.384394
vt -1.771654 3.48717
vt 1.771654 3.384394
vt 1.771654 3.48717
vt 1.518621E-30 4.72441
vt 1.771654 4.345047
vt 1.771654 4.24227
vt -1.771654 4.345047
vt -1.771654 4.24227
vt -1.771654 0.6166592
vt 1.771654 0.6166592
vt -1.771654 0.5138826
vt 1.771654 0.5138826
vt -1.771654 1.708679
vt 1.771654 1.708679
vt -1.771654 1.605902
vt 1.771654 1.605902
vt -1.771654 3.949665
vt -1.771654 4.052441
vt 1.771654 3.949665
vt 1.771654 4.052441

usemtl metal

f 3/3/1 2/2/1 1/1/1
f 2/2/1 3/3/1 4/4/1
f 7/7/1 6/6/1 5/5/1
f 6/6/1 7/7/1 8/8/1
f 4/11/2 9/10/2 2/9/2
f 9/10/2 4/11/2 10/12/2
f 13/10/3 12/13/3 11/12/3
f 12/13/3 13/10/3 14/14/3
f 13/17/4 16/16/4 15/15/4
f 16/16/4 13/17/4 11/18/4
f 19/21/3 18/20/3 17/19/3
f 18/20/3 19/21/3 20/22/3
f 19/25/4 9/24/4 10/23/4
f 9/24/4 19/25/4 17/26/4
f 18/17/5 3/28/5 1/27/5
f 3/28/5 18/17/5 20/18/5
f 12/25/5 7/30/5 5/29/5
f 7/30/5 12/25/5 14/26/5
f 22/33/6 18/32/6 21/31/6
f 18/32/6 22/33/6 23/34/6
f 18/32/6 23/34/6 17/35/6
f 17/35/6 23/34/6 9/36/6
f 1/37/6 21/31/6 18/32/6
f 21/31/6 1/37/6 24/38/6
f 24/38/6 1/37/6 2/39/6
f 24/38/6 2/39/6 25/40/6
f 25/40/6 2/39/6 9/36/6
f 25/40/6 9/36/6 23/34/6
f 27/42/7 7/41/7 26/34/7
f 7/41/7 27/42/7 28/43/7
f 7/41/7 28/43/7 8/44/7
f 8/44/7 28/43/7 29/45/7
f 8/44/7 29/45/7 15/46/7
f 15/46/7 29/45/7 13/32/7
f 14/35/7 26/34/7 7/41/7
f 26/34/7 14/35/7 30/33/7
f 30/33/7 14/35/7 13/32/7
f 30/33/7 13/32/7 29/45/7
f 26/49/4 21/48/4 27/47/4
f 21/48/4 26/49/4 22/50/4
f 23/49/5 29/52/5 25/51/5
f 29/52/5 23/49/5 30/50/5
f 22/54/2 31/13/2 23/53/2
f 31/13/2 22/54/2 26/55/2
f 31/13/2 26/55/2 32/22/2
f 32/22/2 26/55/2 33/21/2
f 34/12/2 23/53/2 31/13/2
f 23/53/2 34/12/2 30/56/2
f 30/56/2 34/12/2 33/21/2
f 30/56/2 33/21/2 26/55/2
f 28/59/8 21/58/8 24/57/8
f 21/58/8 28/59/8 27/60/8
f 29/53/3 24/61/3 25/56/3
f 24/61/3 29/53/3 28/62/3
f 8/64/2 16/21/2 6/63/2
f 16/21/2 8/64/2 15/19/2

usemtl darkMetal

f 19/35/6 3/37/6 20/32/6
f 3/37/6 19/35/6 4/39/6
f 4/39/6 19/35/6 10/36/6
f 6/44/7 12/35/7 5/41/7
f 12/35/7 6/44/7 11/32/7
f 11/32/7 6/44/7 16/46/7

usemtl yellow

f 35/67/5 33/66/5 34/65/5
f 33/66/5 35/67/5 36/68/5
f 36/68/5 35/67/5 37/69/5
f 36/68/5 37/69/5 38/70/5
f 38/70/5 37/69/5 39/71/5
f 39/71/5 37/69/5 40/72/5
f 39/71/5 40/72/5 41/73/5
f 39/71/5 41/73/5 42/74/5
f 42/74/5 41/73/5 43/75/5
f 42/74/5 43/75/5 44/76/5
f 44/76/5 43/75/5 45/77/5
f 47/80/10 40/79/9 46/78/9
f 40/79/9 47/80/10 41/81/10
f 38/84/11 49/83/12 48/82/11
f 49/83/12 38/84/11 39/85/12
f 50/67/4 31/66/4 32/65/4
f 31/66/4 50/67/4 51/68/4
f 51/68/4 50/67/4 48/69/4
f 51/68/4 48/69/4 52/70/4
f 52/70/4 48/69/4 49/72/4
f 52/70/4 49/72/4 46/71/4
f 46/71/4 49/72/4 53/73/4
f 46/71/4 53/73/4 47/74/4
f 47/74/4 53/73/4 54/75/4
f 47/74/4 54/75/4 55/76/4
f 55/76/4 54/75/4 56/86/4
f 40/83/9 52/84/13 46/85/9
f 52/84/13 40/83/9 37/82/13
f 35/89/14 31/88/15 51/87/14
f 31/88/15 35/89/14 34/90/15
f 54/93/16 45/92/2 56/91/2
f 45/92/2 54/93/16 44/94/16
f 53/97/17 44/96/16 54/95/16
f 44/96/16 53/97/17 42/98/17
f 36/101/18 48/100/11 50/99/18
f 48/100/11 36/101/18 38/102/11
f 33/88/19 50/89/18 32/90/19
f 50/89/18 33/88/19 36/87/18
f 49/79/12 42/80/17 53/81/17
f 42/80/17 49/79/12 39/78/12
f 37/100/13 51/101/14 52/102/13
f 51/101/14 37/100/13 35/99/14
f 55/96/20 41/97/10 47/98/10
f 41/97/10 55/96/20 43/95/20
f 56/92/2 43/93/20 55/94/20
f 43/93/20 56/92/2 45/91/2

