# Created by Kenney (www.kenney.nl)

mtllib foamBulletA.mtl

g foamBulletA

v 0.01000001 -0.025 0
v 0.009659261 -0.025 -0.002588198
v 0.009659261 -0.025 0.002588198
v 0.008660257 -0.025 0.004999995
v 0.008660257 -0.025 -0.004999995
v 0.007071063 -0.025 0.007071063
v 0.007071063 -0.025 -0.007071063
v 0.004999995 -0.025 0.008660257
v 0.004999995 -0.025 -0.008660257
v 0.002588198 -0.025 0.009659261
v 0.002588198 -0.025 -0.009659261
v 0 -0.025 0.01000001
v 0 -0.025 -0.01000001
v -0.002588198 -0.025 0.009659261
v -0.002588198 -0.025 -0.009659261
v -0.004999995 -0.025 -0.008660257
v -0.004999995 -0.025 0.008660257
v -0.007071063 -0.025 0.007071063
v -0.007071063 -0.025 -0.007071063
v -0.008660257 -0.025 0.004999995
v -0.008660257 -0.025 -0.004999995
v -0.009659261 -0.025 0.002588198
v -0.009659261 -0.025 -0.002588198
v -0.01000001 -0.025 0
v 0.007071063 0.025 -0.007071063
v 0.008660257 0.025 -0.004999995
v -0.008660257 0.025 -0.004999995
v -0.009659261 0.025 -0.002588198
v -0.007071063 0.025 -0.007071063
v -0.004999995 0.025 -0.008660257
v 0.007071063 0.025 0.007071063
v 0.004999995 0.025 0.008660257
v -0.002588198 0.025 -0.009659261
v 0 0.025 -0.01000001
v -0.008660257 0.025 0.004999995
v -0.007071063 0.025 0.007071063
v 0.002588198 0.025 -0.009659261
v 0.01000001 0.025 0
v 0.009659261 0.025 0.002588198
v 0.009659261 0.025 -0.002588198
v 0.008660257 0.025 0.004999995
v 0.004999995 0.025 -0.008660257
v 0.002588198 0.025 0.009659261
v 0 0.025 0.01000001
v -0.002588198 0.025 0.009659261
v -0.004999995 0.025 0.008660257
v -0.009659261 0.025 0.002588198
v -0.01000001 0.025 0

vn 0 -1 0
vn 0.7071068 0 -0.7071068
vn 0.8660254 0 -0.5
vn -0.8660254 0 -0.5
vn -0.9659258 0 -0.258819
vn -0.7071068 0 -0.7071068
vn -0.5 0 -0.8660254
vn 0.7071068 0 0.7071068
vn 0.5 0 0.8660254
vn -0.258819 0 -0.9659258
vn 0 0 -1
vn -0.8660254 0 0.5
vn -0.7071068 0 0.7071068
vn 0.258819 0 -0.9659258
vn 0 1 0
vn 0 0 1
vn -0.258819 0 0.9659258
vn -0.5 0 0.8660254
vn 0.8660254 0 0.5
vn 1 0 0
vn 0.9659258 0 0.258819
vn 0.5 0 -0.8660254
vn 0.258819 0 0.9659258
vn 0.9659258 0 -0.258819
vn -1 0 0
vn -0.9659258 0 0.258819

vt 0.3937008 0
vt 0.3802858 -0.1018973
vt 0.3802858 0.1018973
vt 0.3409549 0.1968504
vt 0.3409549 -0.1968504
vt 0.2783885 0.2783885
vt 0.2783885 -0.2783885
vt 0.1968504 0.3409549
vt 0.1968504 -0.3409549
vt 0.1018973 0.3802858
vt 0.1018973 -0.3802858
vt 0 0.3937008
vt 0 -0.3937008
vt -0.1018973 0.3802858
vt -0.1018973 -0.3802858
vt -0.1968504 -0.3409549
vt -0.1968504 0.3409549
vt -0.2783885 0.2783885
vt -0.2783885 -0.2783885
vt -0.3409549 0.1968504
vt -0.3409549 -0.1968504
vt -0.3802858 0.1018973
vt -0.3802858 -0.1018973
vt -0.3937008 0
vt 0.05138826 0.984252
vt 0.05138826 -0.984252
vt -0.05138826 0.984252
vt -0.05138826 -0.984252

usemtl yellow

f 3/3/1 2/2/1 1/1/1
f 2/2/1 3/3/1 4/4/1
f 2/2/1 4/4/1 5/5/1
f 5/5/1 4/4/1 6/6/1
f 5/5/1 6/6/1 7/7/1
f 7/7/1 6/6/1 8/8/1
f 7/7/1 8/8/1 9/9/1
f 9/9/1 8/8/1 10/10/1
f 9/9/1 10/10/1 11/11/1
f 11/11/1 10/10/1 12/12/1
f 11/11/1 12/12/1 13/13/1
f 13/13/1 12/12/1 14/14/1
f 13/13/1 14/14/1 15/15/1
f 15/15/1 14/14/1 16/16/1
f 16/16/1 14/14/1 17/17/1
f 16/16/1 17/17/1 18/18/1
f 16/16/1 18/18/1 19/19/1
f 19/19/1 18/18/1 20/20/1
f 19/19/1 20/20/1 21/21/1
f 21/21/1 20/20/1 22/22/1
f 21/21/1 22/22/1 23/23/1
f 23/23/1 22/22/1 24/24/1
f 26/27/3 7/26/2 25/25/2
f 7/26/2 26/27/3 5/28/3
f 23/26/5 27/27/4 21/28/4
f 27/27/4 23/26/5 28/25/5
f 29/25/6 16/28/7 19/26/6
f 16/28/7 29/25/6 30/27/7
f 31/25/8 8/28/9 6/26/8
f 8/28/9 31/25/8 32/27/9
f 33/25/10 13/28/11 15/26/10
f 13/28/11 33/25/10 34/27/11
f 18/26/13 35/27/12 20/28/12
f 35/27/12 18/26/13 36/25/13
f 34/25/11 11/28/14 13/26/11
f 11/28/14 34/25/11 37/27/14
f 40/23/15 39/22/15 38/24/15
f 39/22/15 40/23/15 26/21/15
f 39/22/15 26/21/15 41/20/15
f 41/20/15 26/21/15 25/19/15
f 41/20/15 25/19/15 31/18/15
f 31/18/15 25/19/15 42/16/15
f 31/18/15 42/16/15 32/17/15
f 32/17/15 42/16/15 37/15/15
f 32/17/15 37/15/15 43/14/15
f 43/14/15 37/15/15 34/13/15
f 43/14/15 34/13/15 44/12/15
f 44/12/15 34/13/15 33/11/15
f 44/12/15 33/11/15 45/10/15
f 45/10/15 33/11/15 30/9/15
f 45/10/15 30/9/15 46/8/15
f 46/8/15 30/9/15 29/7/15
f 46/8/15 29/7/15 36/6/15
f 36/6/15 29/7/15 27/5/15
f 36/6/15 27/5/15 35/4/15
f 35/4/15 27/5/15 28/2/15
f 35/4/15 28/2/15 47/3/15
f 47/3/15 28/2/15 48/1/15
f 44/25/16 14/28/17 12/26/16
f 14/28/17 44/25/16 45/27/17
f 45/25/17 17/28/18 14/26/17
f 17/28/18 45/25/17 46/27/18
f 31/27/8 4/26/19 41/25/19
f 4/26/19 31/27/8 6/28/8
f 39/27/21 1/26/20 38/25/20
f 1/26/20 39/27/21 3/28/21
f 37/25/14 9/28/22 11/26/14
f 9/28/22 37/25/14 42/27/22
f 32/25/9 10/28/23 8/26/9
f 10/28/23 32/25/9 43/27/23
f 38/27/20 2/26/24 40/25/24
f 2/26/24 38/27/20 1/28/20
f 46/25/18 18/28/13 17/26/18
f 18/28/13 46/25/18 36/27/13
f 21/26/4 29/27/6 19/28/6
f 29/27/6 21/26/4 27/25/4
f 24/26/25 28/27/5 23/28/5
f 28/27/5 24/26/25 48/25/25
f 20/26/12 47/27/26 22/28/26
f 47/27/26 20/26/12 35/25/12
f 30/25/7 15/28/10 16/26/7
f 15/28/10 30/25/7 33/27/10
f 22/26/26 48/27/25 24/28/25
f 48/27/25 22/26/26 47/25/26
f 40/27/24 5/26/3 26/25/3
f 5/26/3 40/27/24 2/28/24
f 42/25/22 7/28/2 9/26/22
f 7/28/2 42/25/22 25/27/2
f 41/27/19 3/26/21 39/25/21
f 3/26/21 41/27/19 4/28/19
f 43/25/23 12/28/16 10/26/23
f 12/28/16 43/25/23 44/27/16

